G04 EAGLE Gerber RS-274X export*
G75*
%MOMM*%
%FSLAX34Y34*%
%LPD*%
%INSoldermask Bottom*%
%IPPOS*%
%AMOC8*
5,1,8,0,0,1.08239X$1,22.5*%
G01*
%ADD10C,3.403200*%
%ADD11C,3.703200*%
%ADD12C,1.981200*%
%ADD13C,2.133600*%
%ADD14R,1.981200X1.981200*%
%ADD15C,3.303200*%
%ADD16P,4.343848X8X22.500000*%
%ADD17C,2.082800*%
%ADD18C,5.283200*%
%ADD19C,1.524000*%
%ADD20C,2.387600*%
%ADD21C,4.013200*%
%ADD22C,1.727200*%
%ADD23P,2.144431X8X292.500000*%
%ADD24C,1.879600*%
%ADD25C,2.743200*%
%ADD26P,2.969212X8X112.500000*%
%ADD27P,2.969212X8X292.500000*%
%ADD28P,2.969212X8X22.500000*%
%ADD29P,2.969212X8X202.500000*%
%ADD30C,2.082800*%
%ADD31C,3.403600*%
%ADD32R,2.133600X2.133600*%
%ADD33C,1.854200*%
%ADD34C,1.611200*%
%ADD35R,1.209600X1.209600*%
%ADD36C,0.959600*%


D10*
X63500Y50800D03*
X952500Y50800D03*
X63500Y939800D03*
X952500Y939800D03*
D11*
X533400Y190500D03*
D12*
X406400Y165100D03*
D13*
X406400Y63500D03*
D12*
X368300Y165100D03*
D13*
X368300Y63500D03*
D12*
X287020Y191770D03*
D13*
X287020Y293370D03*
D14*
X825500Y533400D03*
D13*
X825500Y508000D03*
X825500Y482600D03*
X825500Y457200D03*
X825500Y431800D03*
X825500Y406400D03*
X825500Y381000D03*
X825500Y355600D03*
X825500Y330200D03*
X825500Y304800D03*
D15*
X955040Y533400D03*
X955040Y304800D03*
D12*
X850900Y482600D03*
D13*
X850900Y584200D03*
D12*
X889000Y482600D03*
D13*
X889000Y584200D03*
D16*
X774700Y889000D03*
D17*
X952500Y876808D02*
X952500Y858012D01*
X927100Y858012D02*
X927100Y876808D01*
X901700Y876808D02*
X901700Y858012D01*
X876300Y858012D02*
X876300Y876808D01*
D16*
X723900Y889000D03*
D12*
X330200Y165100D03*
D13*
X330200Y63500D03*
D14*
X342900Y622300D03*
D13*
X342900Y596900D03*
X342900Y571500D03*
X342900Y546100D03*
X342900Y520700D03*
X342900Y495300D03*
X342900Y469900D03*
X342900Y444500D03*
X342900Y419100D03*
X342900Y393700D03*
X342900Y368300D03*
X342900Y342900D03*
X495300Y622300D03*
X495300Y596900D03*
X495300Y571500D03*
X495300Y546100D03*
X495300Y520700D03*
X495300Y495300D03*
X495300Y444500D03*
X495300Y419100D03*
X495300Y368300D03*
X495300Y342900D03*
X495300Y393700D03*
X495300Y469900D03*
X342900Y317500D03*
X342900Y292100D03*
X342900Y266700D03*
X495300Y317500D03*
X495300Y292100D03*
X495300Y266700D03*
D12*
X292100Y63500D03*
D13*
X292100Y165100D03*
D12*
X914400Y647700D03*
D13*
X914400Y546100D03*
D12*
X965200Y482600D03*
D13*
X965200Y381000D03*
D12*
X927100Y482600D03*
D13*
X927100Y381000D03*
D12*
X285750Y349250D03*
D13*
X285750Y450850D03*
D18*
X267300Y596900D03*
X88300Y596900D03*
X168300Y596900D03*
X172300Y680900D03*
X172300Y512900D03*
D19*
X215900Y318008D02*
X215900Y304800D01*
X190500Y304800D02*
X190500Y318008D01*
X190500Y228600D02*
X190500Y215392D01*
X215900Y215392D02*
X215900Y228600D01*
X165100Y304800D02*
X165100Y318008D01*
X165100Y228600D02*
X165100Y215392D01*
X215900Y431800D02*
X215900Y445008D01*
X190500Y445008D02*
X190500Y431800D01*
X190500Y355600D02*
X190500Y342392D01*
X215900Y342392D02*
X215900Y355600D01*
X165100Y431800D02*
X165100Y445008D01*
X165100Y355600D02*
X165100Y342392D01*
D12*
X248920Y377190D03*
D13*
X248920Y478790D03*
D12*
X250190Y219710D03*
D13*
X250190Y321310D03*
D20*
X170180Y726440D03*
X68580Y726440D03*
D17*
X685800Y608838D02*
X685800Y590042D01*
X660400Y590042D02*
X660400Y608838D01*
D20*
X511810Y774700D03*
X511810Y673100D03*
D21*
X469900Y711200D03*
X317500Y711200D03*
D16*
X825500Y889000D03*
X101600Y838200D03*
X304800Y901700D03*
X254000Y901700D03*
X101600Y787400D03*
D12*
X641350Y323850D03*
D13*
X742950Y323850D03*
D12*
X641350Y293370D03*
D13*
X742950Y293370D03*
D22*
X604520Y787400D02*
X589280Y787400D01*
X589280Y762000D02*
X604520Y762000D01*
X604520Y736600D02*
X589280Y736600D01*
X589280Y660400D02*
X604520Y660400D01*
X604520Y635000D02*
X589280Y635000D01*
X589280Y609600D02*
X604520Y609600D01*
D23*
X457200Y812800D03*
X457200Y787400D03*
D12*
X635000Y812800D03*
D13*
X635000Y711200D03*
D24*
X457200Y546100D03*
X457200Y520700D03*
X800100Y495300D03*
X800100Y520700D03*
X850900Y457200D03*
X876300Y457200D03*
X876300Y406400D03*
X876300Y431800D03*
X850900Y355600D03*
X876300Y355600D03*
X850900Y330200D03*
X850900Y304800D03*
D25*
X806450Y619760D03*
D26*
X806450Y670560D03*
D25*
X876300Y787400D03*
D27*
X876300Y736600D03*
D25*
X711200Y762000D03*
D28*
X762000Y762000D03*
D17*
X876300Y72898D02*
X876300Y54102D01*
X850900Y54102D02*
X850900Y72898D01*
X825500Y72898D02*
X825500Y54102D01*
X800100Y54102D02*
X800100Y72898D01*
D25*
X254000Y787400D03*
D29*
X203200Y787400D03*
D16*
X355600Y901700D03*
D17*
X876300Y237998D02*
X876300Y219202D01*
X901700Y219202D02*
X901700Y237998D01*
X927100Y237998D02*
X927100Y219202D01*
X952500Y219202D02*
X952500Y237998D01*
D19*
X215900Y165608D02*
X215900Y152400D01*
X190500Y152400D02*
X190500Y165608D01*
X190500Y76200D02*
X190500Y62992D01*
X215900Y62992D02*
X215900Y76200D01*
X165100Y152400D02*
X165100Y165608D01*
X165100Y76200D02*
X165100Y62992D01*
D12*
X254000Y165100D03*
D13*
X254000Y63500D03*
D17*
X98298Y114300D02*
X79502Y114300D01*
X79502Y139700D02*
X98298Y139700D01*
X98298Y165100D02*
X79502Y165100D01*
X79502Y254000D02*
X98298Y254000D01*
X98298Y279400D02*
X79502Y279400D01*
X79502Y304800D02*
X98298Y304800D01*
X98298Y393700D02*
X79502Y393700D01*
X79502Y419100D02*
X98298Y419100D01*
X98298Y444500D02*
X79502Y444500D01*
D12*
X469900Y673100D03*
D13*
X368300Y673100D03*
D30*
X609600Y101600D03*
X584200Y101600D03*
X558800Y101600D03*
X533400Y101600D03*
X508000Y101600D03*
X482600Y101600D03*
D10*
X673100Y114300D03*
X952500Y114300D03*
X952500Y673100D03*
X673100Y673100D03*
D17*
X196850Y892302D02*
X196850Y911098D01*
X171450Y911098D02*
X171450Y892302D01*
X146050Y892302D02*
X146050Y911098D01*
X120650Y911098D02*
X120650Y892302D01*
D31*
X762000Y363220D03*
X558800Y363220D03*
X558800Y541020D03*
X762000Y541020D03*
D13*
X596900Y363220D03*
D32*
X647700Y363220D03*
D13*
X673100Y363220D03*
X698500Y363220D03*
D33*
X622300Y363220D03*
D17*
X736600Y237998D02*
X736600Y219202D01*
X762000Y219202D02*
X762000Y237998D01*
X787400Y237998D02*
X787400Y219202D01*
X812800Y219202D02*
X812800Y237998D01*
D13*
X725170Y488950D03*
X699770Y488950D03*
X674370Y488950D03*
D32*
X598170Y488950D03*
D11*
X718820Y444500D03*
X604520Y304800D03*
D24*
X648970Y488950D03*
X623570Y488950D03*
D25*
X279400Y787400D03*
X687070Y772160D03*
D17*
X876300Y136398D02*
X876300Y117602D01*
X850900Y117602D02*
X850900Y136398D01*
X825500Y136398D02*
X825500Y117602D01*
X800100Y117602D02*
X800100Y136398D01*
D30*
X571500Y177800D03*
X596900Y177800D03*
X622300Y177800D03*
X647700Y177800D03*
X673100Y177800D03*
X698500Y177800D03*
X723900Y177800D03*
X749300Y177800D03*
D16*
X406400Y901700D03*
D34*
X557560Y918700D02*
X571640Y918700D01*
X571640Y884700D02*
X557560Y884700D01*
X532640Y935700D02*
X518560Y935700D01*
X518560Y901700D02*
X532640Y901700D01*
X532640Y867700D02*
X518560Y867700D01*
D16*
X457200Y901700D03*
X673100Y889000D03*
D21*
X617220Y901700D03*
D16*
X355600Y812800D03*
X406400Y812800D03*
D35*
X215900Y965200D03*
X88900Y889000D03*
X440690Y767080D03*
X609600Y965200D03*
X977900Y787400D03*
X490220Y880110D03*
X901700Y952500D03*
X351790Y245110D03*
X825500Y787400D03*
X965200Y723900D03*
X635000Y749300D03*
X628650Y678180D03*
X596900Y698500D03*
X546100Y647700D03*
X287020Y419100D03*
X317500Y469900D03*
X533400Y787400D03*
X673100Y850900D03*
X736600Y812800D03*
X723900Y850900D03*
X787400Y825500D03*
X38100Y673100D03*
X38100Y490220D03*
X88900Y203200D03*
X953770Y593090D03*
X546100Y38100D03*
X488950Y209550D03*
X800100Y571500D03*
X703580Y259080D03*
X50800Y889000D03*
X271780Y965200D03*
X203200Y749300D03*
X203200Y647700D03*
X241300Y533400D03*
X36830Y581660D03*
X88900Y337820D03*
X177800Y381000D03*
X711200Y609600D03*
X825500Y952500D03*
X457200Y444500D03*
X457200Y609600D03*
X863600Y952500D03*
X812800Y825500D03*
X638810Y574040D03*
X723900Y673100D03*
X977900Y163830D03*
X709930Y129540D03*
X800100Y438150D03*
X114300Y50800D03*
X533400Y317500D03*
X838200Y685800D03*
X609600Y430530D03*
X520700Y482600D03*
X889000Y317500D03*
X632460Y101600D03*
X38100Y350520D03*
X787400Y952500D03*
X762000Y127000D03*
X271780Y210820D03*
X600710Y256540D03*
X762000Y406400D03*
X698500Y965200D03*
X365760Y393700D03*
D36*
X609600Y546100D03*
X381000Y571500D03*
X685800Y279400D03*
X431800Y571500D03*
D35*
X266700Y863600D03*
X304800Y838200D03*
X279400Y723900D03*
X304800Y749300D03*
X266700Y647700D03*
X254000Y736600D03*
X254000Y685800D03*
D36*
X711200Y215900D03*
X419100Y304800D03*
D35*
X107950Y688340D03*
X63500Y685800D03*
X101600Y546100D03*
X114300Y660400D03*
X76200Y533400D03*
D36*
X381000Y317500D03*
X584200Y254000D03*
X406400Y635000D03*
M02*
