G04 EAGLE Gerber RS-274X export*
G75*
%MOMM*%
%FSLAX34Y34*%
%LPD*%
%INBoard Outline*%
%IPPOS*%
%AMOC8*
5,1,8,0,0,1.08239X$1,22.5*%
G01*
%ADD10C,0.000000*%
%ADD11C,0.609600*%
%ADD12C,0.254000*%


D10*
X47500Y50800D02*
X47505Y51193D01*
X47519Y51585D01*
X47543Y51977D01*
X47577Y52368D01*
X47620Y52759D01*
X47673Y53148D01*
X47736Y53535D01*
X47807Y53921D01*
X47889Y54306D01*
X47979Y54688D01*
X48080Y55067D01*
X48189Y55445D01*
X48308Y55819D01*
X48435Y56190D01*
X48572Y56558D01*
X48718Y56923D01*
X48873Y57284D01*
X49036Y57641D01*
X49208Y57994D01*
X49389Y58342D01*
X49579Y58686D01*
X49776Y59026D01*
X49982Y59360D01*
X50196Y59689D01*
X50419Y60013D01*
X50649Y60331D01*
X50886Y60644D01*
X51132Y60950D01*
X51385Y61251D01*
X51645Y61545D01*
X51912Y61833D01*
X52186Y62114D01*
X52467Y62388D01*
X52755Y62655D01*
X53049Y62915D01*
X53350Y63168D01*
X53656Y63414D01*
X53969Y63651D01*
X54287Y63881D01*
X54611Y64104D01*
X54940Y64318D01*
X55274Y64524D01*
X55614Y64721D01*
X55958Y64911D01*
X56306Y65092D01*
X56659Y65264D01*
X57016Y65427D01*
X57377Y65582D01*
X57742Y65728D01*
X58110Y65865D01*
X58481Y65992D01*
X58855Y66111D01*
X59233Y66220D01*
X59612Y66321D01*
X59994Y66411D01*
X60379Y66493D01*
X60765Y66564D01*
X61152Y66627D01*
X61541Y66680D01*
X61932Y66723D01*
X62323Y66757D01*
X62715Y66781D01*
X63107Y66795D01*
X63500Y66800D01*
X63893Y66795D01*
X64285Y66781D01*
X64677Y66757D01*
X65068Y66723D01*
X65459Y66680D01*
X65848Y66627D01*
X66235Y66564D01*
X66621Y66493D01*
X67006Y66411D01*
X67388Y66321D01*
X67767Y66220D01*
X68145Y66111D01*
X68519Y65992D01*
X68890Y65865D01*
X69258Y65728D01*
X69623Y65582D01*
X69984Y65427D01*
X70341Y65264D01*
X70694Y65092D01*
X71042Y64911D01*
X71386Y64721D01*
X71726Y64524D01*
X72060Y64318D01*
X72389Y64104D01*
X72713Y63881D01*
X73031Y63651D01*
X73344Y63414D01*
X73650Y63168D01*
X73951Y62915D01*
X74245Y62655D01*
X74533Y62388D01*
X74814Y62114D01*
X75088Y61833D01*
X75355Y61545D01*
X75615Y61251D01*
X75868Y60950D01*
X76114Y60644D01*
X76351Y60331D01*
X76581Y60013D01*
X76804Y59689D01*
X77018Y59360D01*
X77224Y59026D01*
X77421Y58686D01*
X77611Y58342D01*
X77792Y57994D01*
X77964Y57641D01*
X78127Y57284D01*
X78282Y56923D01*
X78428Y56558D01*
X78565Y56190D01*
X78692Y55819D01*
X78811Y55445D01*
X78920Y55067D01*
X79021Y54688D01*
X79111Y54306D01*
X79193Y53921D01*
X79264Y53535D01*
X79327Y53148D01*
X79380Y52759D01*
X79423Y52368D01*
X79457Y51977D01*
X79481Y51585D01*
X79495Y51193D01*
X79500Y50800D01*
X79495Y50407D01*
X79481Y50015D01*
X79457Y49623D01*
X79423Y49232D01*
X79380Y48841D01*
X79327Y48452D01*
X79264Y48065D01*
X79193Y47679D01*
X79111Y47294D01*
X79021Y46912D01*
X78920Y46533D01*
X78811Y46155D01*
X78692Y45781D01*
X78565Y45410D01*
X78428Y45042D01*
X78282Y44677D01*
X78127Y44316D01*
X77964Y43959D01*
X77792Y43606D01*
X77611Y43258D01*
X77421Y42914D01*
X77224Y42574D01*
X77018Y42240D01*
X76804Y41911D01*
X76581Y41587D01*
X76351Y41269D01*
X76114Y40956D01*
X75868Y40650D01*
X75615Y40349D01*
X75355Y40055D01*
X75088Y39767D01*
X74814Y39486D01*
X74533Y39212D01*
X74245Y38945D01*
X73951Y38685D01*
X73650Y38432D01*
X73344Y38186D01*
X73031Y37949D01*
X72713Y37719D01*
X72389Y37496D01*
X72060Y37282D01*
X71726Y37076D01*
X71386Y36879D01*
X71042Y36689D01*
X70694Y36508D01*
X70341Y36336D01*
X69984Y36173D01*
X69623Y36018D01*
X69258Y35872D01*
X68890Y35735D01*
X68519Y35608D01*
X68145Y35489D01*
X67767Y35380D01*
X67388Y35279D01*
X67006Y35189D01*
X66621Y35107D01*
X66235Y35036D01*
X65848Y34973D01*
X65459Y34920D01*
X65068Y34877D01*
X64677Y34843D01*
X64285Y34819D01*
X63893Y34805D01*
X63500Y34800D01*
X63107Y34805D01*
X62715Y34819D01*
X62323Y34843D01*
X61932Y34877D01*
X61541Y34920D01*
X61152Y34973D01*
X60765Y35036D01*
X60379Y35107D01*
X59994Y35189D01*
X59612Y35279D01*
X59233Y35380D01*
X58855Y35489D01*
X58481Y35608D01*
X58110Y35735D01*
X57742Y35872D01*
X57377Y36018D01*
X57016Y36173D01*
X56659Y36336D01*
X56306Y36508D01*
X55958Y36689D01*
X55614Y36879D01*
X55274Y37076D01*
X54940Y37282D01*
X54611Y37496D01*
X54287Y37719D01*
X53969Y37949D01*
X53656Y38186D01*
X53350Y38432D01*
X53049Y38685D01*
X52755Y38945D01*
X52467Y39212D01*
X52186Y39486D01*
X51912Y39767D01*
X51645Y40055D01*
X51385Y40349D01*
X51132Y40650D01*
X50886Y40956D01*
X50649Y41269D01*
X50419Y41587D01*
X50196Y41911D01*
X49982Y42240D01*
X49776Y42574D01*
X49579Y42914D01*
X49389Y43258D01*
X49208Y43606D01*
X49036Y43959D01*
X48873Y44316D01*
X48718Y44677D01*
X48572Y45042D01*
X48435Y45410D01*
X48308Y45781D01*
X48189Y46155D01*
X48080Y46533D01*
X47979Y46912D01*
X47889Y47294D01*
X47807Y47679D01*
X47736Y48065D01*
X47673Y48452D01*
X47620Y48841D01*
X47577Y49232D01*
X47543Y49623D01*
X47519Y50015D01*
X47505Y50407D01*
X47500Y50800D01*
X936500Y50800D02*
X936505Y51193D01*
X936519Y51585D01*
X936543Y51977D01*
X936577Y52368D01*
X936620Y52759D01*
X936673Y53148D01*
X936736Y53535D01*
X936807Y53921D01*
X936889Y54306D01*
X936979Y54688D01*
X937080Y55067D01*
X937189Y55445D01*
X937308Y55819D01*
X937435Y56190D01*
X937572Y56558D01*
X937718Y56923D01*
X937873Y57284D01*
X938036Y57641D01*
X938208Y57994D01*
X938389Y58342D01*
X938579Y58686D01*
X938776Y59026D01*
X938982Y59360D01*
X939196Y59689D01*
X939419Y60013D01*
X939649Y60331D01*
X939886Y60644D01*
X940132Y60950D01*
X940385Y61251D01*
X940645Y61545D01*
X940912Y61833D01*
X941186Y62114D01*
X941467Y62388D01*
X941755Y62655D01*
X942049Y62915D01*
X942350Y63168D01*
X942656Y63414D01*
X942969Y63651D01*
X943287Y63881D01*
X943611Y64104D01*
X943940Y64318D01*
X944274Y64524D01*
X944614Y64721D01*
X944958Y64911D01*
X945306Y65092D01*
X945659Y65264D01*
X946016Y65427D01*
X946377Y65582D01*
X946742Y65728D01*
X947110Y65865D01*
X947481Y65992D01*
X947855Y66111D01*
X948233Y66220D01*
X948612Y66321D01*
X948994Y66411D01*
X949379Y66493D01*
X949765Y66564D01*
X950152Y66627D01*
X950541Y66680D01*
X950932Y66723D01*
X951323Y66757D01*
X951715Y66781D01*
X952107Y66795D01*
X952500Y66800D01*
X952893Y66795D01*
X953285Y66781D01*
X953677Y66757D01*
X954068Y66723D01*
X954459Y66680D01*
X954848Y66627D01*
X955235Y66564D01*
X955621Y66493D01*
X956006Y66411D01*
X956388Y66321D01*
X956767Y66220D01*
X957145Y66111D01*
X957519Y65992D01*
X957890Y65865D01*
X958258Y65728D01*
X958623Y65582D01*
X958984Y65427D01*
X959341Y65264D01*
X959694Y65092D01*
X960042Y64911D01*
X960386Y64721D01*
X960726Y64524D01*
X961060Y64318D01*
X961389Y64104D01*
X961713Y63881D01*
X962031Y63651D01*
X962344Y63414D01*
X962650Y63168D01*
X962951Y62915D01*
X963245Y62655D01*
X963533Y62388D01*
X963814Y62114D01*
X964088Y61833D01*
X964355Y61545D01*
X964615Y61251D01*
X964868Y60950D01*
X965114Y60644D01*
X965351Y60331D01*
X965581Y60013D01*
X965804Y59689D01*
X966018Y59360D01*
X966224Y59026D01*
X966421Y58686D01*
X966611Y58342D01*
X966792Y57994D01*
X966964Y57641D01*
X967127Y57284D01*
X967282Y56923D01*
X967428Y56558D01*
X967565Y56190D01*
X967692Y55819D01*
X967811Y55445D01*
X967920Y55067D01*
X968021Y54688D01*
X968111Y54306D01*
X968193Y53921D01*
X968264Y53535D01*
X968327Y53148D01*
X968380Y52759D01*
X968423Y52368D01*
X968457Y51977D01*
X968481Y51585D01*
X968495Y51193D01*
X968500Y50800D01*
X968495Y50407D01*
X968481Y50015D01*
X968457Y49623D01*
X968423Y49232D01*
X968380Y48841D01*
X968327Y48452D01*
X968264Y48065D01*
X968193Y47679D01*
X968111Y47294D01*
X968021Y46912D01*
X967920Y46533D01*
X967811Y46155D01*
X967692Y45781D01*
X967565Y45410D01*
X967428Y45042D01*
X967282Y44677D01*
X967127Y44316D01*
X966964Y43959D01*
X966792Y43606D01*
X966611Y43258D01*
X966421Y42914D01*
X966224Y42574D01*
X966018Y42240D01*
X965804Y41911D01*
X965581Y41587D01*
X965351Y41269D01*
X965114Y40956D01*
X964868Y40650D01*
X964615Y40349D01*
X964355Y40055D01*
X964088Y39767D01*
X963814Y39486D01*
X963533Y39212D01*
X963245Y38945D01*
X962951Y38685D01*
X962650Y38432D01*
X962344Y38186D01*
X962031Y37949D01*
X961713Y37719D01*
X961389Y37496D01*
X961060Y37282D01*
X960726Y37076D01*
X960386Y36879D01*
X960042Y36689D01*
X959694Y36508D01*
X959341Y36336D01*
X958984Y36173D01*
X958623Y36018D01*
X958258Y35872D01*
X957890Y35735D01*
X957519Y35608D01*
X957145Y35489D01*
X956767Y35380D01*
X956388Y35279D01*
X956006Y35189D01*
X955621Y35107D01*
X955235Y35036D01*
X954848Y34973D01*
X954459Y34920D01*
X954068Y34877D01*
X953677Y34843D01*
X953285Y34819D01*
X952893Y34805D01*
X952500Y34800D01*
X952107Y34805D01*
X951715Y34819D01*
X951323Y34843D01*
X950932Y34877D01*
X950541Y34920D01*
X950152Y34973D01*
X949765Y35036D01*
X949379Y35107D01*
X948994Y35189D01*
X948612Y35279D01*
X948233Y35380D01*
X947855Y35489D01*
X947481Y35608D01*
X947110Y35735D01*
X946742Y35872D01*
X946377Y36018D01*
X946016Y36173D01*
X945659Y36336D01*
X945306Y36508D01*
X944958Y36689D01*
X944614Y36879D01*
X944274Y37076D01*
X943940Y37282D01*
X943611Y37496D01*
X943287Y37719D01*
X942969Y37949D01*
X942656Y38186D01*
X942350Y38432D01*
X942049Y38685D01*
X941755Y38945D01*
X941467Y39212D01*
X941186Y39486D01*
X940912Y39767D01*
X940645Y40055D01*
X940385Y40349D01*
X940132Y40650D01*
X939886Y40956D01*
X939649Y41269D01*
X939419Y41587D01*
X939196Y41911D01*
X938982Y42240D01*
X938776Y42574D01*
X938579Y42914D01*
X938389Y43258D01*
X938208Y43606D01*
X938036Y43959D01*
X937873Y44316D01*
X937718Y44677D01*
X937572Y45042D01*
X937435Y45410D01*
X937308Y45781D01*
X937189Y46155D01*
X937080Y46533D01*
X936979Y46912D01*
X936889Y47294D01*
X936807Y47679D01*
X936736Y48065D01*
X936673Y48452D01*
X936620Y48841D01*
X936577Y49232D01*
X936543Y49623D01*
X936519Y50015D01*
X936505Y50407D01*
X936500Y50800D01*
X47500Y939800D02*
X47505Y940193D01*
X47519Y940585D01*
X47543Y940977D01*
X47577Y941368D01*
X47620Y941759D01*
X47673Y942148D01*
X47736Y942535D01*
X47807Y942921D01*
X47889Y943306D01*
X47979Y943688D01*
X48080Y944067D01*
X48189Y944445D01*
X48308Y944819D01*
X48435Y945190D01*
X48572Y945558D01*
X48718Y945923D01*
X48873Y946284D01*
X49036Y946641D01*
X49208Y946994D01*
X49389Y947342D01*
X49579Y947686D01*
X49776Y948026D01*
X49982Y948360D01*
X50196Y948689D01*
X50419Y949013D01*
X50649Y949331D01*
X50886Y949644D01*
X51132Y949950D01*
X51385Y950251D01*
X51645Y950545D01*
X51912Y950833D01*
X52186Y951114D01*
X52467Y951388D01*
X52755Y951655D01*
X53049Y951915D01*
X53350Y952168D01*
X53656Y952414D01*
X53969Y952651D01*
X54287Y952881D01*
X54611Y953104D01*
X54940Y953318D01*
X55274Y953524D01*
X55614Y953721D01*
X55958Y953911D01*
X56306Y954092D01*
X56659Y954264D01*
X57016Y954427D01*
X57377Y954582D01*
X57742Y954728D01*
X58110Y954865D01*
X58481Y954992D01*
X58855Y955111D01*
X59233Y955220D01*
X59612Y955321D01*
X59994Y955411D01*
X60379Y955493D01*
X60765Y955564D01*
X61152Y955627D01*
X61541Y955680D01*
X61932Y955723D01*
X62323Y955757D01*
X62715Y955781D01*
X63107Y955795D01*
X63500Y955800D01*
X63893Y955795D01*
X64285Y955781D01*
X64677Y955757D01*
X65068Y955723D01*
X65459Y955680D01*
X65848Y955627D01*
X66235Y955564D01*
X66621Y955493D01*
X67006Y955411D01*
X67388Y955321D01*
X67767Y955220D01*
X68145Y955111D01*
X68519Y954992D01*
X68890Y954865D01*
X69258Y954728D01*
X69623Y954582D01*
X69984Y954427D01*
X70341Y954264D01*
X70694Y954092D01*
X71042Y953911D01*
X71386Y953721D01*
X71726Y953524D01*
X72060Y953318D01*
X72389Y953104D01*
X72713Y952881D01*
X73031Y952651D01*
X73344Y952414D01*
X73650Y952168D01*
X73951Y951915D01*
X74245Y951655D01*
X74533Y951388D01*
X74814Y951114D01*
X75088Y950833D01*
X75355Y950545D01*
X75615Y950251D01*
X75868Y949950D01*
X76114Y949644D01*
X76351Y949331D01*
X76581Y949013D01*
X76804Y948689D01*
X77018Y948360D01*
X77224Y948026D01*
X77421Y947686D01*
X77611Y947342D01*
X77792Y946994D01*
X77964Y946641D01*
X78127Y946284D01*
X78282Y945923D01*
X78428Y945558D01*
X78565Y945190D01*
X78692Y944819D01*
X78811Y944445D01*
X78920Y944067D01*
X79021Y943688D01*
X79111Y943306D01*
X79193Y942921D01*
X79264Y942535D01*
X79327Y942148D01*
X79380Y941759D01*
X79423Y941368D01*
X79457Y940977D01*
X79481Y940585D01*
X79495Y940193D01*
X79500Y939800D01*
X79495Y939407D01*
X79481Y939015D01*
X79457Y938623D01*
X79423Y938232D01*
X79380Y937841D01*
X79327Y937452D01*
X79264Y937065D01*
X79193Y936679D01*
X79111Y936294D01*
X79021Y935912D01*
X78920Y935533D01*
X78811Y935155D01*
X78692Y934781D01*
X78565Y934410D01*
X78428Y934042D01*
X78282Y933677D01*
X78127Y933316D01*
X77964Y932959D01*
X77792Y932606D01*
X77611Y932258D01*
X77421Y931914D01*
X77224Y931574D01*
X77018Y931240D01*
X76804Y930911D01*
X76581Y930587D01*
X76351Y930269D01*
X76114Y929956D01*
X75868Y929650D01*
X75615Y929349D01*
X75355Y929055D01*
X75088Y928767D01*
X74814Y928486D01*
X74533Y928212D01*
X74245Y927945D01*
X73951Y927685D01*
X73650Y927432D01*
X73344Y927186D01*
X73031Y926949D01*
X72713Y926719D01*
X72389Y926496D01*
X72060Y926282D01*
X71726Y926076D01*
X71386Y925879D01*
X71042Y925689D01*
X70694Y925508D01*
X70341Y925336D01*
X69984Y925173D01*
X69623Y925018D01*
X69258Y924872D01*
X68890Y924735D01*
X68519Y924608D01*
X68145Y924489D01*
X67767Y924380D01*
X67388Y924279D01*
X67006Y924189D01*
X66621Y924107D01*
X66235Y924036D01*
X65848Y923973D01*
X65459Y923920D01*
X65068Y923877D01*
X64677Y923843D01*
X64285Y923819D01*
X63893Y923805D01*
X63500Y923800D01*
X63107Y923805D01*
X62715Y923819D01*
X62323Y923843D01*
X61932Y923877D01*
X61541Y923920D01*
X61152Y923973D01*
X60765Y924036D01*
X60379Y924107D01*
X59994Y924189D01*
X59612Y924279D01*
X59233Y924380D01*
X58855Y924489D01*
X58481Y924608D01*
X58110Y924735D01*
X57742Y924872D01*
X57377Y925018D01*
X57016Y925173D01*
X56659Y925336D01*
X56306Y925508D01*
X55958Y925689D01*
X55614Y925879D01*
X55274Y926076D01*
X54940Y926282D01*
X54611Y926496D01*
X54287Y926719D01*
X53969Y926949D01*
X53656Y927186D01*
X53350Y927432D01*
X53049Y927685D01*
X52755Y927945D01*
X52467Y928212D01*
X52186Y928486D01*
X51912Y928767D01*
X51645Y929055D01*
X51385Y929349D01*
X51132Y929650D01*
X50886Y929956D01*
X50649Y930269D01*
X50419Y930587D01*
X50196Y930911D01*
X49982Y931240D01*
X49776Y931574D01*
X49579Y931914D01*
X49389Y932258D01*
X49208Y932606D01*
X49036Y932959D01*
X48873Y933316D01*
X48718Y933677D01*
X48572Y934042D01*
X48435Y934410D01*
X48308Y934781D01*
X48189Y935155D01*
X48080Y935533D01*
X47979Y935912D01*
X47889Y936294D01*
X47807Y936679D01*
X47736Y937065D01*
X47673Y937452D01*
X47620Y937841D01*
X47577Y938232D01*
X47543Y938623D01*
X47519Y939015D01*
X47505Y939407D01*
X47500Y939800D01*
X936500Y939800D02*
X936505Y940193D01*
X936519Y940585D01*
X936543Y940977D01*
X936577Y941368D01*
X936620Y941759D01*
X936673Y942148D01*
X936736Y942535D01*
X936807Y942921D01*
X936889Y943306D01*
X936979Y943688D01*
X937080Y944067D01*
X937189Y944445D01*
X937308Y944819D01*
X937435Y945190D01*
X937572Y945558D01*
X937718Y945923D01*
X937873Y946284D01*
X938036Y946641D01*
X938208Y946994D01*
X938389Y947342D01*
X938579Y947686D01*
X938776Y948026D01*
X938982Y948360D01*
X939196Y948689D01*
X939419Y949013D01*
X939649Y949331D01*
X939886Y949644D01*
X940132Y949950D01*
X940385Y950251D01*
X940645Y950545D01*
X940912Y950833D01*
X941186Y951114D01*
X941467Y951388D01*
X941755Y951655D01*
X942049Y951915D01*
X942350Y952168D01*
X942656Y952414D01*
X942969Y952651D01*
X943287Y952881D01*
X943611Y953104D01*
X943940Y953318D01*
X944274Y953524D01*
X944614Y953721D01*
X944958Y953911D01*
X945306Y954092D01*
X945659Y954264D01*
X946016Y954427D01*
X946377Y954582D01*
X946742Y954728D01*
X947110Y954865D01*
X947481Y954992D01*
X947855Y955111D01*
X948233Y955220D01*
X948612Y955321D01*
X948994Y955411D01*
X949379Y955493D01*
X949765Y955564D01*
X950152Y955627D01*
X950541Y955680D01*
X950932Y955723D01*
X951323Y955757D01*
X951715Y955781D01*
X952107Y955795D01*
X952500Y955800D01*
X952893Y955795D01*
X953285Y955781D01*
X953677Y955757D01*
X954068Y955723D01*
X954459Y955680D01*
X954848Y955627D01*
X955235Y955564D01*
X955621Y955493D01*
X956006Y955411D01*
X956388Y955321D01*
X956767Y955220D01*
X957145Y955111D01*
X957519Y954992D01*
X957890Y954865D01*
X958258Y954728D01*
X958623Y954582D01*
X958984Y954427D01*
X959341Y954264D01*
X959694Y954092D01*
X960042Y953911D01*
X960386Y953721D01*
X960726Y953524D01*
X961060Y953318D01*
X961389Y953104D01*
X961713Y952881D01*
X962031Y952651D01*
X962344Y952414D01*
X962650Y952168D01*
X962951Y951915D01*
X963245Y951655D01*
X963533Y951388D01*
X963814Y951114D01*
X964088Y950833D01*
X964355Y950545D01*
X964615Y950251D01*
X964868Y949950D01*
X965114Y949644D01*
X965351Y949331D01*
X965581Y949013D01*
X965804Y948689D01*
X966018Y948360D01*
X966224Y948026D01*
X966421Y947686D01*
X966611Y947342D01*
X966792Y946994D01*
X966964Y946641D01*
X967127Y946284D01*
X967282Y945923D01*
X967428Y945558D01*
X967565Y945190D01*
X967692Y944819D01*
X967811Y944445D01*
X967920Y944067D01*
X968021Y943688D01*
X968111Y943306D01*
X968193Y942921D01*
X968264Y942535D01*
X968327Y942148D01*
X968380Y941759D01*
X968423Y941368D01*
X968457Y940977D01*
X968481Y940585D01*
X968495Y940193D01*
X968500Y939800D01*
X968495Y939407D01*
X968481Y939015D01*
X968457Y938623D01*
X968423Y938232D01*
X968380Y937841D01*
X968327Y937452D01*
X968264Y937065D01*
X968193Y936679D01*
X968111Y936294D01*
X968021Y935912D01*
X967920Y935533D01*
X967811Y935155D01*
X967692Y934781D01*
X967565Y934410D01*
X967428Y934042D01*
X967282Y933677D01*
X967127Y933316D01*
X966964Y932959D01*
X966792Y932606D01*
X966611Y932258D01*
X966421Y931914D01*
X966224Y931574D01*
X966018Y931240D01*
X965804Y930911D01*
X965581Y930587D01*
X965351Y930269D01*
X965114Y929956D01*
X964868Y929650D01*
X964615Y929349D01*
X964355Y929055D01*
X964088Y928767D01*
X963814Y928486D01*
X963533Y928212D01*
X963245Y927945D01*
X962951Y927685D01*
X962650Y927432D01*
X962344Y927186D01*
X962031Y926949D01*
X961713Y926719D01*
X961389Y926496D01*
X961060Y926282D01*
X960726Y926076D01*
X960386Y925879D01*
X960042Y925689D01*
X959694Y925508D01*
X959341Y925336D01*
X958984Y925173D01*
X958623Y925018D01*
X958258Y924872D01*
X957890Y924735D01*
X957519Y924608D01*
X957145Y924489D01*
X956767Y924380D01*
X956388Y924279D01*
X956006Y924189D01*
X955621Y924107D01*
X955235Y924036D01*
X954848Y923973D01*
X954459Y923920D01*
X954068Y923877D01*
X953677Y923843D01*
X953285Y923819D01*
X952893Y923805D01*
X952500Y923800D01*
X952107Y923805D01*
X951715Y923819D01*
X951323Y923843D01*
X950932Y923877D01*
X950541Y923920D01*
X950152Y923973D01*
X949765Y924036D01*
X949379Y924107D01*
X948994Y924189D01*
X948612Y924279D01*
X948233Y924380D01*
X947855Y924489D01*
X947481Y924608D01*
X947110Y924735D01*
X946742Y924872D01*
X946377Y925018D01*
X946016Y925173D01*
X945659Y925336D01*
X945306Y925508D01*
X944958Y925689D01*
X944614Y925879D01*
X944274Y926076D01*
X943940Y926282D01*
X943611Y926496D01*
X943287Y926719D01*
X942969Y926949D01*
X942656Y927186D01*
X942350Y927432D01*
X942049Y927685D01*
X941755Y927945D01*
X941467Y928212D01*
X941186Y928486D01*
X940912Y928767D01*
X940645Y929055D01*
X940385Y929349D01*
X940132Y929650D01*
X939886Y929956D01*
X939649Y930269D01*
X939419Y930587D01*
X939196Y930911D01*
X938982Y931240D01*
X938776Y931574D01*
X938579Y931914D01*
X938389Y932258D01*
X938208Y932606D01*
X938036Y932959D01*
X937873Y933316D01*
X937718Y933677D01*
X937572Y934042D01*
X937435Y934410D01*
X937308Y934781D01*
X937189Y935155D01*
X937080Y935533D01*
X936979Y935912D01*
X936889Y936294D01*
X936807Y936679D01*
X936736Y937065D01*
X936673Y937452D01*
X936620Y937841D01*
X936577Y938232D01*
X936543Y938623D01*
X936519Y939015D01*
X936505Y939407D01*
X936500Y939800D01*
D11*
X1003300Y0D02*
X12700Y0D01*
X1003300Y0D02*
X1003300Y990600D01*
X12700Y990600D01*
X12700Y0D01*
D10*
X515900Y190500D02*
X515905Y190929D01*
X515921Y191359D01*
X515947Y191787D01*
X515984Y192215D01*
X516032Y192642D01*
X516089Y193068D01*
X516158Y193492D01*
X516236Y193914D01*
X516325Y194334D01*
X516424Y194752D01*
X516534Y195167D01*
X516654Y195580D01*
X516783Y195989D01*
X516923Y196396D01*
X517073Y196798D01*
X517232Y197197D01*
X517401Y197592D01*
X517580Y197982D01*
X517769Y198368D01*
X517966Y198749D01*
X518173Y199126D01*
X518390Y199497D01*
X518615Y199862D01*
X518849Y200222D01*
X519092Y200577D01*
X519344Y200925D01*
X519604Y201267D01*
X519872Y201602D01*
X520149Y201931D01*
X520433Y202252D01*
X520726Y202567D01*
X521026Y202874D01*
X521333Y203174D01*
X521648Y203467D01*
X521969Y203751D01*
X522298Y204028D01*
X522633Y204296D01*
X522975Y204556D01*
X523323Y204808D01*
X523678Y205051D01*
X524038Y205285D01*
X524403Y205510D01*
X524774Y205727D01*
X525151Y205934D01*
X525532Y206131D01*
X525918Y206320D01*
X526308Y206499D01*
X526703Y206668D01*
X527102Y206827D01*
X527504Y206977D01*
X527911Y207117D01*
X528320Y207246D01*
X528733Y207366D01*
X529148Y207476D01*
X529566Y207575D01*
X529986Y207664D01*
X530408Y207742D01*
X530832Y207811D01*
X531258Y207868D01*
X531685Y207916D01*
X532113Y207953D01*
X532541Y207979D01*
X532971Y207995D01*
X533400Y208000D01*
X533829Y207995D01*
X534259Y207979D01*
X534687Y207953D01*
X535115Y207916D01*
X535542Y207868D01*
X535968Y207811D01*
X536392Y207742D01*
X536814Y207664D01*
X537234Y207575D01*
X537652Y207476D01*
X538067Y207366D01*
X538480Y207246D01*
X538889Y207117D01*
X539296Y206977D01*
X539698Y206827D01*
X540097Y206668D01*
X540492Y206499D01*
X540882Y206320D01*
X541268Y206131D01*
X541649Y205934D01*
X542026Y205727D01*
X542397Y205510D01*
X542762Y205285D01*
X543122Y205051D01*
X543477Y204808D01*
X543825Y204556D01*
X544167Y204296D01*
X544502Y204028D01*
X544831Y203751D01*
X545152Y203467D01*
X545467Y203174D01*
X545774Y202874D01*
X546074Y202567D01*
X546367Y202252D01*
X546651Y201931D01*
X546928Y201602D01*
X547196Y201267D01*
X547456Y200925D01*
X547708Y200577D01*
X547951Y200222D01*
X548185Y199862D01*
X548410Y199497D01*
X548627Y199126D01*
X548834Y198749D01*
X549031Y198368D01*
X549220Y197982D01*
X549399Y197592D01*
X549568Y197197D01*
X549727Y196798D01*
X549877Y196396D01*
X550017Y195989D01*
X550146Y195580D01*
X550266Y195167D01*
X550376Y194752D01*
X550475Y194334D01*
X550564Y193914D01*
X550642Y193492D01*
X550711Y193068D01*
X550768Y192642D01*
X550816Y192215D01*
X550853Y191787D01*
X550879Y191359D01*
X550895Y190929D01*
X550900Y190500D01*
X550895Y190071D01*
X550879Y189641D01*
X550853Y189213D01*
X550816Y188785D01*
X550768Y188358D01*
X550711Y187932D01*
X550642Y187508D01*
X550564Y187086D01*
X550475Y186666D01*
X550376Y186248D01*
X550266Y185833D01*
X550146Y185420D01*
X550017Y185011D01*
X549877Y184604D01*
X549727Y184202D01*
X549568Y183803D01*
X549399Y183408D01*
X549220Y183018D01*
X549031Y182632D01*
X548834Y182251D01*
X548627Y181874D01*
X548410Y181503D01*
X548185Y181138D01*
X547951Y180778D01*
X547708Y180423D01*
X547456Y180075D01*
X547196Y179733D01*
X546928Y179398D01*
X546651Y179069D01*
X546367Y178748D01*
X546074Y178433D01*
X545774Y178126D01*
X545467Y177826D01*
X545152Y177533D01*
X544831Y177249D01*
X544502Y176972D01*
X544167Y176704D01*
X543825Y176444D01*
X543477Y176192D01*
X543122Y175949D01*
X542762Y175715D01*
X542397Y175490D01*
X542026Y175273D01*
X541649Y175066D01*
X541268Y174869D01*
X540882Y174680D01*
X540492Y174501D01*
X540097Y174332D01*
X539698Y174173D01*
X539296Y174023D01*
X538889Y173883D01*
X538480Y173754D01*
X538067Y173634D01*
X537652Y173524D01*
X537234Y173425D01*
X536814Y173336D01*
X536392Y173258D01*
X535968Y173189D01*
X535542Y173132D01*
X535115Y173084D01*
X534687Y173047D01*
X534259Y173021D01*
X533829Y173005D01*
X533400Y173000D01*
X532971Y173005D01*
X532541Y173021D01*
X532113Y173047D01*
X531685Y173084D01*
X531258Y173132D01*
X530832Y173189D01*
X530408Y173258D01*
X529986Y173336D01*
X529566Y173425D01*
X529148Y173524D01*
X528733Y173634D01*
X528320Y173754D01*
X527911Y173883D01*
X527504Y174023D01*
X527102Y174173D01*
X526703Y174332D01*
X526308Y174501D01*
X525918Y174680D01*
X525532Y174869D01*
X525151Y175066D01*
X524774Y175273D01*
X524403Y175490D01*
X524038Y175715D01*
X523678Y175949D01*
X523323Y176192D01*
X522975Y176444D01*
X522633Y176704D01*
X522298Y176972D01*
X521969Y177249D01*
X521648Y177533D01*
X521333Y177826D01*
X521026Y178126D01*
X520726Y178433D01*
X520433Y178748D01*
X520149Y179069D01*
X519872Y179398D01*
X519604Y179733D01*
X519344Y180075D01*
X519092Y180423D01*
X518849Y180778D01*
X518615Y181138D01*
X518390Y181503D01*
X518173Y181874D01*
X517966Y182251D01*
X517769Y182632D01*
X517580Y183018D01*
X517401Y183408D01*
X517232Y183803D01*
X517073Y184202D01*
X516923Y184604D01*
X516783Y185011D01*
X516654Y185420D01*
X516534Y185833D01*
X516424Y186248D01*
X516325Y186666D01*
X516236Y187086D01*
X516158Y187508D01*
X516089Y187932D01*
X516032Y188358D01*
X515984Y188785D01*
X515947Y189213D01*
X515921Y189641D01*
X515905Y190071D01*
X515900Y190500D01*
X939540Y533400D02*
X939545Y533780D01*
X939559Y534161D01*
X939582Y534540D01*
X939615Y534919D01*
X939657Y535297D01*
X939708Y535674D01*
X939768Y536050D01*
X939838Y536424D01*
X939917Y536796D01*
X940005Y537166D01*
X940101Y537534D01*
X940207Y537899D01*
X940322Y538262D01*
X940446Y538622D01*
X940579Y538978D01*
X940720Y539332D01*
X940870Y539681D01*
X941028Y540027D01*
X941195Y540369D01*
X941370Y540707D01*
X941554Y541040D01*
X941745Y541369D01*
X941945Y541692D01*
X942152Y542011D01*
X942367Y542325D01*
X942590Y542633D01*
X942821Y542936D01*
X943058Y543233D01*
X943303Y543524D01*
X943555Y543809D01*
X943814Y544088D01*
X944080Y544360D01*
X944352Y544626D01*
X944631Y544885D01*
X944916Y545137D01*
X945207Y545382D01*
X945504Y545619D01*
X945807Y545850D01*
X946115Y546073D01*
X946429Y546288D01*
X946748Y546495D01*
X947071Y546695D01*
X947400Y546886D01*
X947733Y547070D01*
X948071Y547245D01*
X948413Y547412D01*
X948759Y547570D01*
X949108Y547720D01*
X949462Y547861D01*
X949818Y547994D01*
X950178Y548118D01*
X950541Y548233D01*
X950906Y548339D01*
X951274Y548435D01*
X951644Y548523D01*
X952016Y548602D01*
X952390Y548672D01*
X952766Y548732D01*
X953143Y548783D01*
X953521Y548825D01*
X953900Y548858D01*
X954279Y548881D01*
X954660Y548895D01*
X955040Y548900D01*
X955420Y548895D01*
X955801Y548881D01*
X956180Y548858D01*
X956559Y548825D01*
X956937Y548783D01*
X957314Y548732D01*
X957690Y548672D01*
X958064Y548602D01*
X958436Y548523D01*
X958806Y548435D01*
X959174Y548339D01*
X959539Y548233D01*
X959902Y548118D01*
X960262Y547994D01*
X960618Y547861D01*
X960972Y547720D01*
X961321Y547570D01*
X961667Y547412D01*
X962009Y547245D01*
X962347Y547070D01*
X962680Y546886D01*
X963009Y546695D01*
X963332Y546495D01*
X963651Y546288D01*
X963965Y546073D01*
X964273Y545850D01*
X964576Y545619D01*
X964873Y545382D01*
X965164Y545137D01*
X965449Y544885D01*
X965728Y544626D01*
X966000Y544360D01*
X966266Y544088D01*
X966525Y543809D01*
X966777Y543524D01*
X967022Y543233D01*
X967259Y542936D01*
X967490Y542633D01*
X967713Y542325D01*
X967928Y542011D01*
X968135Y541692D01*
X968335Y541369D01*
X968526Y541040D01*
X968710Y540707D01*
X968885Y540369D01*
X969052Y540027D01*
X969210Y539681D01*
X969360Y539332D01*
X969501Y538978D01*
X969634Y538622D01*
X969758Y538262D01*
X969873Y537899D01*
X969979Y537534D01*
X970075Y537166D01*
X970163Y536796D01*
X970242Y536424D01*
X970312Y536050D01*
X970372Y535674D01*
X970423Y535297D01*
X970465Y534919D01*
X970498Y534540D01*
X970521Y534161D01*
X970535Y533780D01*
X970540Y533400D01*
X970535Y533020D01*
X970521Y532639D01*
X970498Y532260D01*
X970465Y531881D01*
X970423Y531503D01*
X970372Y531126D01*
X970312Y530750D01*
X970242Y530376D01*
X970163Y530004D01*
X970075Y529634D01*
X969979Y529266D01*
X969873Y528901D01*
X969758Y528538D01*
X969634Y528178D01*
X969501Y527822D01*
X969360Y527468D01*
X969210Y527119D01*
X969052Y526773D01*
X968885Y526431D01*
X968710Y526093D01*
X968526Y525760D01*
X968335Y525431D01*
X968135Y525108D01*
X967928Y524789D01*
X967713Y524475D01*
X967490Y524167D01*
X967259Y523864D01*
X967022Y523567D01*
X966777Y523276D01*
X966525Y522991D01*
X966266Y522712D01*
X966000Y522440D01*
X965728Y522174D01*
X965449Y521915D01*
X965164Y521663D01*
X964873Y521418D01*
X964576Y521181D01*
X964273Y520950D01*
X963965Y520727D01*
X963651Y520512D01*
X963332Y520305D01*
X963009Y520105D01*
X962680Y519914D01*
X962347Y519730D01*
X962009Y519555D01*
X961667Y519388D01*
X961321Y519230D01*
X960972Y519080D01*
X960618Y518939D01*
X960262Y518806D01*
X959902Y518682D01*
X959539Y518567D01*
X959174Y518461D01*
X958806Y518365D01*
X958436Y518277D01*
X958064Y518198D01*
X957690Y518128D01*
X957314Y518068D01*
X956937Y518017D01*
X956559Y517975D01*
X956180Y517942D01*
X955801Y517919D01*
X955420Y517905D01*
X955040Y517900D01*
X954660Y517905D01*
X954279Y517919D01*
X953900Y517942D01*
X953521Y517975D01*
X953143Y518017D01*
X952766Y518068D01*
X952390Y518128D01*
X952016Y518198D01*
X951644Y518277D01*
X951274Y518365D01*
X950906Y518461D01*
X950541Y518567D01*
X950178Y518682D01*
X949818Y518806D01*
X949462Y518939D01*
X949108Y519080D01*
X948759Y519230D01*
X948413Y519388D01*
X948071Y519555D01*
X947733Y519730D01*
X947400Y519914D01*
X947071Y520105D01*
X946748Y520305D01*
X946429Y520512D01*
X946115Y520727D01*
X945807Y520950D01*
X945504Y521181D01*
X945207Y521418D01*
X944916Y521663D01*
X944631Y521915D01*
X944352Y522174D01*
X944080Y522440D01*
X943814Y522712D01*
X943555Y522991D01*
X943303Y523276D01*
X943058Y523567D01*
X942821Y523864D01*
X942590Y524167D01*
X942367Y524475D01*
X942152Y524789D01*
X941945Y525108D01*
X941745Y525431D01*
X941554Y525760D01*
X941370Y526093D01*
X941195Y526431D01*
X941028Y526773D01*
X940870Y527119D01*
X940720Y527468D01*
X940579Y527822D01*
X940446Y528178D01*
X940322Y528538D01*
X940207Y528901D01*
X940101Y529266D01*
X940005Y529634D01*
X939917Y530004D01*
X939838Y530376D01*
X939768Y530750D01*
X939708Y531126D01*
X939657Y531503D01*
X939615Y531881D01*
X939582Y532260D01*
X939559Y532639D01*
X939545Y533020D01*
X939540Y533400D01*
X939540Y304800D02*
X939545Y305180D01*
X939559Y305561D01*
X939582Y305940D01*
X939615Y306319D01*
X939657Y306697D01*
X939708Y307074D01*
X939768Y307450D01*
X939838Y307824D01*
X939917Y308196D01*
X940005Y308566D01*
X940101Y308934D01*
X940207Y309299D01*
X940322Y309662D01*
X940446Y310022D01*
X940579Y310378D01*
X940720Y310732D01*
X940870Y311081D01*
X941028Y311427D01*
X941195Y311769D01*
X941370Y312107D01*
X941554Y312440D01*
X941745Y312769D01*
X941945Y313092D01*
X942152Y313411D01*
X942367Y313725D01*
X942590Y314033D01*
X942821Y314336D01*
X943058Y314633D01*
X943303Y314924D01*
X943555Y315209D01*
X943814Y315488D01*
X944080Y315760D01*
X944352Y316026D01*
X944631Y316285D01*
X944916Y316537D01*
X945207Y316782D01*
X945504Y317019D01*
X945807Y317250D01*
X946115Y317473D01*
X946429Y317688D01*
X946748Y317895D01*
X947071Y318095D01*
X947400Y318286D01*
X947733Y318470D01*
X948071Y318645D01*
X948413Y318812D01*
X948759Y318970D01*
X949108Y319120D01*
X949462Y319261D01*
X949818Y319394D01*
X950178Y319518D01*
X950541Y319633D01*
X950906Y319739D01*
X951274Y319835D01*
X951644Y319923D01*
X952016Y320002D01*
X952390Y320072D01*
X952766Y320132D01*
X953143Y320183D01*
X953521Y320225D01*
X953900Y320258D01*
X954279Y320281D01*
X954660Y320295D01*
X955040Y320300D01*
X955420Y320295D01*
X955801Y320281D01*
X956180Y320258D01*
X956559Y320225D01*
X956937Y320183D01*
X957314Y320132D01*
X957690Y320072D01*
X958064Y320002D01*
X958436Y319923D01*
X958806Y319835D01*
X959174Y319739D01*
X959539Y319633D01*
X959902Y319518D01*
X960262Y319394D01*
X960618Y319261D01*
X960972Y319120D01*
X961321Y318970D01*
X961667Y318812D01*
X962009Y318645D01*
X962347Y318470D01*
X962680Y318286D01*
X963009Y318095D01*
X963332Y317895D01*
X963651Y317688D01*
X963965Y317473D01*
X964273Y317250D01*
X964576Y317019D01*
X964873Y316782D01*
X965164Y316537D01*
X965449Y316285D01*
X965728Y316026D01*
X966000Y315760D01*
X966266Y315488D01*
X966525Y315209D01*
X966777Y314924D01*
X967022Y314633D01*
X967259Y314336D01*
X967490Y314033D01*
X967713Y313725D01*
X967928Y313411D01*
X968135Y313092D01*
X968335Y312769D01*
X968526Y312440D01*
X968710Y312107D01*
X968885Y311769D01*
X969052Y311427D01*
X969210Y311081D01*
X969360Y310732D01*
X969501Y310378D01*
X969634Y310022D01*
X969758Y309662D01*
X969873Y309299D01*
X969979Y308934D01*
X970075Y308566D01*
X970163Y308196D01*
X970242Y307824D01*
X970312Y307450D01*
X970372Y307074D01*
X970423Y306697D01*
X970465Y306319D01*
X970498Y305940D01*
X970521Y305561D01*
X970535Y305180D01*
X970540Y304800D01*
X970535Y304420D01*
X970521Y304039D01*
X970498Y303660D01*
X970465Y303281D01*
X970423Y302903D01*
X970372Y302526D01*
X970312Y302150D01*
X970242Y301776D01*
X970163Y301404D01*
X970075Y301034D01*
X969979Y300666D01*
X969873Y300301D01*
X969758Y299938D01*
X969634Y299578D01*
X969501Y299222D01*
X969360Y298868D01*
X969210Y298519D01*
X969052Y298173D01*
X968885Y297831D01*
X968710Y297493D01*
X968526Y297160D01*
X968335Y296831D01*
X968135Y296508D01*
X967928Y296189D01*
X967713Y295875D01*
X967490Y295567D01*
X967259Y295264D01*
X967022Y294967D01*
X966777Y294676D01*
X966525Y294391D01*
X966266Y294112D01*
X966000Y293840D01*
X965728Y293574D01*
X965449Y293315D01*
X965164Y293063D01*
X964873Y292818D01*
X964576Y292581D01*
X964273Y292350D01*
X963965Y292127D01*
X963651Y291912D01*
X963332Y291705D01*
X963009Y291505D01*
X962680Y291314D01*
X962347Y291130D01*
X962009Y290955D01*
X961667Y290788D01*
X961321Y290630D01*
X960972Y290480D01*
X960618Y290339D01*
X960262Y290206D01*
X959902Y290082D01*
X959539Y289967D01*
X959174Y289861D01*
X958806Y289765D01*
X958436Y289677D01*
X958064Y289598D01*
X957690Y289528D01*
X957314Y289468D01*
X956937Y289417D01*
X956559Y289375D01*
X956180Y289342D01*
X955801Y289319D01*
X955420Y289305D01*
X955040Y289300D01*
X954660Y289305D01*
X954279Y289319D01*
X953900Y289342D01*
X953521Y289375D01*
X953143Y289417D01*
X952766Y289468D01*
X952390Y289528D01*
X952016Y289598D01*
X951644Y289677D01*
X951274Y289765D01*
X950906Y289861D01*
X950541Y289967D01*
X950178Y290082D01*
X949818Y290206D01*
X949462Y290339D01*
X949108Y290480D01*
X948759Y290630D01*
X948413Y290788D01*
X948071Y290955D01*
X947733Y291130D01*
X947400Y291314D01*
X947071Y291505D01*
X946748Y291705D01*
X946429Y291912D01*
X946115Y292127D01*
X945807Y292350D01*
X945504Y292581D01*
X945207Y292818D01*
X944916Y293063D01*
X944631Y293315D01*
X944352Y293574D01*
X944080Y293840D01*
X943814Y294112D01*
X943555Y294391D01*
X943303Y294676D01*
X943058Y294967D01*
X942821Y295264D01*
X942590Y295567D01*
X942367Y295875D01*
X942152Y296189D01*
X941945Y296508D01*
X941745Y296831D01*
X941554Y297160D01*
X941370Y297493D01*
X941195Y297831D01*
X941028Y298173D01*
X940870Y298519D01*
X940720Y298868D01*
X940579Y299222D01*
X940446Y299578D01*
X940322Y299938D01*
X940207Y300301D01*
X940101Y300666D01*
X940005Y301034D01*
X939917Y301404D01*
X939838Y301776D01*
X939768Y302150D01*
X939708Y302526D01*
X939657Y302903D01*
X939615Y303281D01*
X939582Y303660D01*
X939559Y304039D01*
X939545Y304420D01*
X939540Y304800D01*
X657100Y114300D02*
X657105Y114693D01*
X657119Y115085D01*
X657143Y115477D01*
X657177Y115868D01*
X657220Y116259D01*
X657273Y116648D01*
X657336Y117035D01*
X657407Y117421D01*
X657489Y117806D01*
X657579Y118188D01*
X657680Y118567D01*
X657789Y118945D01*
X657908Y119319D01*
X658035Y119690D01*
X658172Y120058D01*
X658318Y120423D01*
X658473Y120784D01*
X658636Y121141D01*
X658808Y121494D01*
X658989Y121842D01*
X659179Y122186D01*
X659376Y122526D01*
X659582Y122860D01*
X659796Y123189D01*
X660019Y123513D01*
X660249Y123831D01*
X660486Y124144D01*
X660732Y124450D01*
X660985Y124751D01*
X661245Y125045D01*
X661512Y125333D01*
X661786Y125614D01*
X662067Y125888D01*
X662355Y126155D01*
X662649Y126415D01*
X662950Y126668D01*
X663256Y126914D01*
X663569Y127151D01*
X663887Y127381D01*
X664211Y127604D01*
X664540Y127818D01*
X664874Y128024D01*
X665214Y128221D01*
X665558Y128411D01*
X665906Y128592D01*
X666259Y128764D01*
X666616Y128927D01*
X666977Y129082D01*
X667342Y129228D01*
X667710Y129365D01*
X668081Y129492D01*
X668455Y129611D01*
X668833Y129720D01*
X669212Y129821D01*
X669594Y129911D01*
X669979Y129993D01*
X670365Y130064D01*
X670752Y130127D01*
X671141Y130180D01*
X671532Y130223D01*
X671923Y130257D01*
X672315Y130281D01*
X672707Y130295D01*
X673100Y130300D01*
X673493Y130295D01*
X673885Y130281D01*
X674277Y130257D01*
X674668Y130223D01*
X675059Y130180D01*
X675448Y130127D01*
X675835Y130064D01*
X676221Y129993D01*
X676606Y129911D01*
X676988Y129821D01*
X677367Y129720D01*
X677745Y129611D01*
X678119Y129492D01*
X678490Y129365D01*
X678858Y129228D01*
X679223Y129082D01*
X679584Y128927D01*
X679941Y128764D01*
X680294Y128592D01*
X680642Y128411D01*
X680986Y128221D01*
X681326Y128024D01*
X681660Y127818D01*
X681989Y127604D01*
X682313Y127381D01*
X682631Y127151D01*
X682944Y126914D01*
X683250Y126668D01*
X683551Y126415D01*
X683845Y126155D01*
X684133Y125888D01*
X684414Y125614D01*
X684688Y125333D01*
X684955Y125045D01*
X685215Y124751D01*
X685468Y124450D01*
X685714Y124144D01*
X685951Y123831D01*
X686181Y123513D01*
X686404Y123189D01*
X686618Y122860D01*
X686824Y122526D01*
X687021Y122186D01*
X687211Y121842D01*
X687392Y121494D01*
X687564Y121141D01*
X687727Y120784D01*
X687882Y120423D01*
X688028Y120058D01*
X688165Y119690D01*
X688292Y119319D01*
X688411Y118945D01*
X688520Y118567D01*
X688621Y118188D01*
X688711Y117806D01*
X688793Y117421D01*
X688864Y117035D01*
X688927Y116648D01*
X688980Y116259D01*
X689023Y115868D01*
X689057Y115477D01*
X689081Y115085D01*
X689095Y114693D01*
X689100Y114300D01*
X689095Y113907D01*
X689081Y113515D01*
X689057Y113123D01*
X689023Y112732D01*
X688980Y112341D01*
X688927Y111952D01*
X688864Y111565D01*
X688793Y111179D01*
X688711Y110794D01*
X688621Y110412D01*
X688520Y110033D01*
X688411Y109655D01*
X688292Y109281D01*
X688165Y108910D01*
X688028Y108542D01*
X687882Y108177D01*
X687727Y107816D01*
X687564Y107459D01*
X687392Y107106D01*
X687211Y106758D01*
X687021Y106414D01*
X686824Y106074D01*
X686618Y105740D01*
X686404Y105411D01*
X686181Y105087D01*
X685951Y104769D01*
X685714Y104456D01*
X685468Y104150D01*
X685215Y103849D01*
X684955Y103555D01*
X684688Y103267D01*
X684414Y102986D01*
X684133Y102712D01*
X683845Y102445D01*
X683551Y102185D01*
X683250Y101932D01*
X682944Y101686D01*
X682631Y101449D01*
X682313Y101219D01*
X681989Y100996D01*
X681660Y100782D01*
X681326Y100576D01*
X680986Y100379D01*
X680642Y100189D01*
X680294Y100008D01*
X679941Y99836D01*
X679584Y99673D01*
X679223Y99518D01*
X678858Y99372D01*
X678490Y99235D01*
X678119Y99108D01*
X677745Y98989D01*
X677367Y98880D01*
X676988Y98779D01*
X676606Y98689D01*
X676221Y98607D01*
X675835Y98536D01*
X675448Y98473D01*
X675059Y98420D01*
X674668Y98377D01*
X674277Y98343D01*
X673885Y98319D01*
X673493Y98305D01*
X673100Y98300D01*
X672707Y98305D01*
X672315Y98319D01*
X671923Y98343D01*
X671532Y98377D01*
X671141Y98420D01*
X670752Y98473D01*
X670365Y98536D01*
X669979Y98607D01*
X669594Y98689D01*
X669212Y98779D01*
X668833Y98880D01*
X668455Y98989D01*
X668081Y99108D01*
X667710Y99235D01*
X667342Y99372D01*
X666977Y99518D01*
X666616Y99673D01*
X666259Y99836D01*
X665906Y100008D01*
X665558Y100189D01*
X665214Y100379D01*
X664874Y100576D01*
X664540Y100782D01*
X664211Y100996D01*
X663887Y101219D01*
X663569Y101449D01*
X663256Y101686D01*
X662950Y101932D01*
X662649Y102185D01*
X662355Y102445D01*
X662067Y102712D01*
X661786Y102986D01*
X661512Y103267D01*
X661245Y103555D01*
X660985Y103849D01*
X660732Y104150D01*
X660486Y104456D01*
X660249Y104769D01*
X660019Y105087D01*
X659796Y105411D01*
X659582Y105740D01*
X659376Y106074D01*
X659179Y106414D01*
X658989Y106758D01*
X658808Y107106D01*
X658636Y107459D01*
X658473Y107816D01*
X658318Y108177D01*
X658172Y108542D01*
X658035Y108910D01*
X657908Y109281D01*
X657789Y109655D01*
X657680Y110033D01*
X657579Y110412D01*
X657489Y110794D01*
X657407Y111179D01*
X657336Y111565D01*
X657273Y111952D01*
X657220Y112341D01*
X657177Y112732D01*
X657143Y113123D01*
X657119Y113515D01*
X657105Y113907D01*
X657100Y114300D01*
X936500Y114300D02*
X936505Y114693D01*
X936519Y115085D01*
X936543Y115477D01*
X936577Y115868D01*
X936620Y116259D01*
X936673Y116648D01*
X936736Y117035D01*
X936807Y117421D01*
X936889Y117806D01*
X936979Y118188D01*
X937080Y118567D01*
X937189Y118945D01*
X937308Y119319D01*
X937435Y119690D01*
X937572Y120058D01*
X937718Y120423D01*
X937873Y120784D01*
X938036Y121141D01*
X938208Y121494D01*
X938389Y121842D01*
X938579Y122186D01*
X938776Y122526D01*
X938982Y122860D01*
X939196Y123189D01*
X939419Y123513D01*
X939649Y123831D01*
X939886Y124144D01*
X940132Y124450D01*
X940385Y124751D01*
X940645Y125045D01*
X940912Y125333D01*
X941186Y125614D01*
X941467Y125888D01*
X941755Y126155D01*
X942049Y126415D01*
X942350Y126668D01*
X942656Y126914D01*
X942969Y127151D01*
X943287Y127381D01*
X943611Y127604D01*
X943940Y127818D01*
X944274Y128024D01*
X944614Y128221D01*
X944958Y128411D01*
X945306Y128592D01*
X945659Y128764D01*
X946016Y128927D01*
X946377Y129082D01*
X946742Y129228D01*
X947110Y129365D01*
X947481Y129492D01*
X947855Y129611D01*
X948233Y129720D01*
X948612Y129821D01*
X948994Y129911D01*
X949379Y129993D01*
X949765Y130064D01*
X950152Y130127D01*
X950541Y130180D01*
X950932Y130223D01*
X951323Y130257D01*
X951715Y130281D01*
X952107Y130295D01*
X952500Y130300D01*
X952893Y130295D01*
X953285Y130281D01*
X953677Y130257D01*
X954068Y130223D01*
X954459Y130180D01*
X954848Y130127D01*
X955235Y130064D01*
X955621Y129993D01*
X956006Y129911D01*
X956388Y129821D01*
X956767Y129720D01*
X957145Y129611D01*
X957519Y129492D01*
X957890Y129365D01*
X958258Y129228D01*
X958623Y129082D01*
X958984Y128927D01*
X959341Y128764D01*
X959694Y128592D01*
X960042Y128411D01*
X960386Y128221D01*
X960726Y128024D01*
X961060Y127818D01*
X961389Y127604D01*
X961713Y127381D01*
X962031Y127151D01*
X962344Y126914D01*
X962650Y126668D01*
X962951Y126415D01*
X963245Y126155D01*
X963533Y125888D01*
X963814Y125614D01*
X964088Y125333D01*
X964355Y125045D01*
X964615Y124751D01*
X964868Y124450D01*
X965114Y124144D01*
X965351Y123831D01*
X965581Y123513D01*
X965804Y123189D01*
X966018Y122860D01*
X966224Y122526D01*
X966421Y122186D01*
X966611Y121842D01*
X966792Y121494D01*
X966964Y121141D01*
X967127Y120784D01*
X967282Y120423D01*
X967428Y120058D01*
X967565Y119690D01*
X967692Y119319D01*
X967811Y118945D01*
X967920Y118567D01*
X968021Y118188D01*
X968111Y117806D01*
X968193Y117421D01*
X968264Y117035D01*
X968327Y116648D01*
X968380Y116259D01*
X968423Y115868D01*
X968457Y115477D01*
X968481Y115085D01*
X968495Y114693D01*
X968500Y114300D01*
X968495Y113907D01*
X968481Y113515D01*
X968457Y113123D01*
X968423Y112732D01*
X968380Y112341D01*
X968327Y111952D01*
X968264Y111565D01*
X968193Y111179D01*
X968111Y110794D01*
X968021Y110412D01*
X967920Y110033D01*
X967811Y109655D01*
X967692Y109281D01*
X967565Y108910D01*
X967428Y108542D01*
X967282Y108177D01*
X967127Y107816D01*
X966964Y107459D01*
X966792Y107106D01*
X966611Y106758D01*
X966421Y106414D01*
X966224Y106074D01*
X966018Y105740D01*
X965804Y105411D01*
X965581Y105087D01*
X965351Y104769D01*
X965114Y104456D01*
X964868Y104150D01*
X964615Y103849D01*
X964355Y103555D01*
X964088Y103267D01*
X963814Y102986D01*
X963533Y102712D01*
X963245Y102445D01*
X962951Y102185D01*
X962650Y101932D01*
X962344Y101686D01*
X962031Y101449D01*
X961713Y101219D01*
X961389Y100996D01*
X961060Y100782D01*
X960726Y100576D01*
X960386Y100379D01*
X960042Y100189D01*
X959694Y100008D01*
X959341Y99836D01*
X958984Y99673D01*
X958623Y99518D01*
X958258Y99372D01*
X957890Y99235D01*
X957519Y99108D01*
X957145Y98989D01*
X956767Y98880D01*
X956388Y98779D01*
X956006Y98689D01*
X955621Y98607D01*
X955235Y98536D01*
X954848Y98473D01*
X954459Y98420D01*
X954068Y98377D01*
X953677Y98343D01*
X953285Y98319D01*
X952893Y98305D01*
X952500Y98300D01*
X952107Y98305D01*
X951715Y98319D01*
X951323Y98343D01*
X950932Y98377D01*
X950541Y98420D01*
X950152Y98473D01*
X949765Y98536D01*
X949379Y98607D01*
X948994Y98689D01*
X948612Y98779D01*
X948233Y98880D01*
X947855Y98989D01*
X947481Y99108D01*
X947110Y99235D01*
X946742Y99372D01*
X946377Y99518D01*
X946016Y99673D01*
X945659Y99836D01*
X945306Y100008D01*
X944958Y100189D01*
X944614Y100379D01*
X944274Y100576D01*
X943940Y100782D01*
X943611Y100996D01*
X943287Y101219D01*
X942969Y101449D01*
X942656Y101686D01*
X942350Y101932D01*
X942049Y102185D01*
X941755Y102445D01*
X941467Y102712D01*
X941186Y102986D01*
X940912Y103267D01*
X940645Y103555D01*
X940385Y103849D01*
X940132Y104150D01*
X939886Y104456D01*
X939649Y104769D01*
X939419Y105087D01*
X939196Y105411D01*
X938982Y105740D01*
X938776Y106074D01*
X938579Y106414D01*
X938389Y106758D01*
X938208Y107106D01*
X938036Y107459D01*
X937873Y107816D01*
X937718Y108177D01*
X937572Y108542D01*
X937435Y108910D01*
X937308Y109281D01*
X937189Y109655D01*
X937080Y110033D01*
X936979Y110412D01*
X936889Y110794D01*
X936807Y111179D01*
X936736Y111565D01*
X936673Y111952D01*
X936620Y112341D01*
X936577Y112732D01*
X936543Y113123D01*
X936519Y113515D01*
X936505Y113907D01*
X936500Y114300D01*
X936500Y673100D02*
X936505Y673493D01*
X936519Y673885D01*
X936543Y674277D01*
X936577Y674668D01*
X936620Y675059D01*
X936673Y675448D01*
X936736Y675835D01*
X936807Y676221D01*
X936889Y676606D01*
X936979Y676988D01*
X937080Y677367D01*
X937189Y677745D01*
X937308Y678119D01*
X937435Y678490D01*
X937572Y678858D01*
X937718Y679223D01*
X937873Y679584D01*
X938036Y679941D01*
X938208Y680294D01*
X938389Y680642D01*
X938579Y680986D01*
X938776Y681326D01*
X938982Y681660D01*
X939196Y681989D01*
X939419Y682313D01*
X939649Y682631D01*
X939886Y682944D01*
X940132Y683250D01*
X940385Y683551D01*
X940645Y683845D01*
X940912Y684133D01*
X941186Y684414D01*
X941467Y684688D01*
X941755Y684955D01*
X942049Y685215D01*
X942350Y685468D01*
X942656Y685714D01*
X942969Y685951D01*
X943287Y686181D01*
X943611Y686404D01*
X943940Y686618D01*
X944274Y686824D01*
X944614Y687021D01*
X944958Y687211D01*
X945306Y687392D01*
X945659Y687564D01*
X946016Y687727D01*
X946377Y687882D01*
X946742Y688028D01*
X947110Y688165D01*
X947481Y688292D01*
X947855Y688411D01*
X948233Y688520D01*
X948612Y688621D01*
X948994Y688711D01*
X949379Y688793D01*
X949765Y688864D01*
X950152Y688927D01*
X950541Y688980D01*
X950932Y689023D01*
X951323Y689057D01*
X951715Y689081D01*
X952107Y689095D01*
X952500Y689100D01*
X952893Y689095D01*
X953285Y689081D01*
X953677Y689057D01*
X954068Y689023D01*
X954459Y688980D01*
X954848Y688927D01*
X955235Y688864D01*
X955621Y688793D01*
X956006Y688711D01*
X956388Y688621D01*
X956767Y688520D01*
X957145Y688411D01*
X957519Y688292D01*
X957890Y688165D01*
X958258Y688028D01*
X958623Y687882D01*
X958984Y687727D01*
X959341Y687564D01*
X959694Y687392D01*
X960042Y687211D01*
X960386Y687021D01*
X960726Y686824D01*
X961060Y686618D01*
X961389Y686404D01*
X961713Y686181D01*
X962031Y685951D01*
X962344Y685714D01*
X962650Y685468D01*
X962951Y685215D01*
X963245Y684955D01*
X963533Y684688D01*
X963814Y684414D01*
X964088Y684133D01*
X964355Y683845D01*
X964615Y683551D01*
X964868Y683250D01*
X965114Y682944D01*
X965351Y682631D01*
X965581Y682313D01*
X965804Y681989D01*
X966018Y681660D01*
X966224Y681326D01*
X966421Y680986D01*
X966611Y680642D01*
X966792Y680294D01*
X966964Y679941D01*
X967127Y679584D01*
X967282Y679223D01*
X967428Y678858D01*
X967565Y678490D01*
X967692Y678119D01*
X967811Y677745D01*
X967920Y677367D01*
X968021Y676988D01*
X968111Y676606D01*
X968193Y676221D01*
X968264Y675835D01*
X968327Y675448D01*
X968380Y675059D01*
X968423Y674668D01*
X968457Y674277D01*
X968481Y673885D01*
X968495Y673493D01*
X968500Y673100D01*
X968495Y672707D01*
X968481Y672315D01*
X968457Y671923D01*
X968423Y671532D01*
X968380Y671141D01*
X968327Y670752D01*
X968264Y670365D01*
X968193Y669979D01*
X968111Y669594D01*
X968021Y669212D01*
X967920Y668833D01*
X967811Y668455D01*
X967692Y668081D01*
X967565Y667710D01*
X967428Y667342D01*
X967282Y666977D01*
X967127Y666616D01*
X966964Y666259D01*
X966792Y665906D01*
X966611Y665558D01*
X966421Y665214D01*
X966224Y664874D01*
X966018Y664540D01*
X965804Y664211D01*
X965581Y663887D01*
X965351Y663569D01*
X965114Y663256D01*
X964868Y662950D01*
X964615Y662649D01*
X964355Y662355D01*
X964088Y662067D01*
X963814Y661786D01*
X963533Y661512D01*
X963245Y661245D01*
X962951Y660985D01*
X962650Y660732D01*
X962344Y660486D01*
X962031Y660249D01*
X961713Y660019D01*
X961389Y659796D01*
X961060Y659582D01*
X960726Y659376D01*
X960386Y659179D01*
X960042Y658989D01*
X959694Y658808D01*
X959341Y658636D01*
X958984Y658473D01*
X958623Y658318D01*
X958258Y658172D01*
X957890Y658035D01*
X957519Y657908D01*
X957145Y657789D01*
X956767Y657680D01*
X956388Y657579D01*
X956006Y657489D01*
X955621Y657407D01*
X955235Y657336D01*
X954848Y657273D01*
X954459Y657220D01*
X954068Y657177D01*
X953677Y657143D01*
X953285Y657119D01*
X952893Y657105D01*
X952500Y657100D01*
X952107Y657105D01*
X951715Y657119D01*
X951323Y657143D01*
X950932Y657177D01*
X950541Y657220D01*
X950152Y657273D01*
X949765Y657336D01*
X949379Y657407D01*
X948994Y657489D01*
X948612Y657579D01*
X948233Y657680D01*
X947855Y657789D01*
X947481Y657908D01*
X947110Y658035D01*
X946742Y658172D01*
X946377Y658318D01*
X946016Y658473D01*
X945659Y658636D01*
X945306Y658808D01*
X944958Y658989D01*
X944614Y659179D01*
X944274Y659376D01*
X943940Y659582D01*
X943611Y659796D01*
X943287Y660019D01*
X942969Y660249D01*
X942656Y660486D01*
X942350Y660732D01*
X942049Y660985D01*
X941755Y661245D01*
X941467Y661512D01*
X941186Y661786D01*
X940912Y662067D01*
X940645Y662355D01*
X940385Y662649D01*
X940132Y662950D01*
X939886Y663256D01*
X939649Y663569D01*
X939419Y663887D01*
X939196Y664211D01*
X938982Y664540D01*
X938776Y664874D01*
X938579Y665214D01*
X938389Y665558D01*
X938208Y665906D01*
X938036Y666259D01*
X937873Y666616D01*
X937718Y666977D01*
X937572Y667342D01*
X937435Y667710D01*
X937308Y668081D01*
X937189Y668455D01*
X937080Y668833D01*
X936979Y669212D01*
X936889Y669594D01*
X936807Y669979D01*
X936736Y670365D01*
X936673Y670752D01*
X936620Y671141D01*
X936577Y671532D01*
X936543Y671923D01*
X936519Y672315D01*
X936505Y672707D01*
X936500Y673100D01*
X657100Y673100D02*
X657105Y673493D01*
X657119Y673885D01*
X657143Y674277D01*
X657177Y674668D01*
X657220Y675059D01*
X657273Y675448D01*
X657336Y675835D01*
X657407Y676221D01*
X657489Y676606D01*
X657579Y676988D01*
X657680Y677367D01*
X657789Y677745D01*
X657908Y678119D01*
X658035Y678490D01*
X658172Y678858D01*
X658318Y679223D01*
X658473Y679584D01*
X658636Y679941D01*
X658808Y680294D01*
X658989Y680642D01*
X659179Y680986D01*
X659376Y681326D01*
X659582Y681660D01*
X659796Y681989D01*
X660019Y682313D01*
X660249Y682631D01*
X660486Y682944D01*
X660732Y683250D01*
X660985Y683551D01*
X661245Y683845D01*
X661512Y684133D01*
X661786Y684414D01*
X662067Y684688D01*
X662355Y684955D01*
X662649Y685215D01*
X662950Y685468D01*
X663256Y685714D01*
X663569Y685951D01*
X663887Y686181D01*
X664211Y686404D01*
X664540Y686618D01*
X664874Y686824D01*
X665214Y687021D01*
X665558Y687211D01*
X665906Y687392D01*
X666259Y687564D01*
X666616Y687727D01*
X666977Y687882D01*
X667342Y688028D01*
X667710Y688165D01*
X668081Y688292D01*
X668455Y688411D01*
X668833Y688520D01*
X669212Y688621D01*
X669594Y688711D01*
X669979Y688793D01*
X670365Y688864D01*
X670752Y688927D01*
X671141Y688980D01*
X671532Y689023D01*
X671923Y689057D01*
X672315Y689081D01*
X672707Y689095D01*
X673100Y689100D01*
X673493Y689095D01*
X673885Y689081D01*
X674277Y689057D01*
X674668Y689023D01*
X675059Y688980D01*
X675448Y688927D01*
X675835Y688864D01*
X676221Y688793D01*
X676606Y688711D01*
X676988Y688621D01*
X677367Y688520D01*
X677745Y688411D01*
X678119Y688292D01*
X678490Y688165D01*
X678858Y688028D01*
X679223Y687882D01*
X679584Y687727D01*
X679941Y687564D01*
X680294Y687392D01*
X680642Y687211D01*
X680986Y687021D01*
X681326Y686824D01*
X681660Y686618D01*
X681989Y686404D01*
X682313Y686181D01*
X682631Y685951D01*
X682944Y685714D01*
X683250Y685468D01*
X683551Y685215D01*
X683845Y684955D01*
X684133Y684688D01*
X684414Y684414D01*
X684688Y684133D01*
X684955Y683845D01*
X685215Y683551D01*
X685468Y683250D01*
X685714Y682944D01*
X685951Y682631D01*
X686181Y682313D01*
X686404Y681989D01*
X686618Y681660D01*
X686824Y681326D01*
X687021Y680986D01*
X687211Y680642D01*
X687392Y680294D01*
X687564Y679941D01*
X687727Y679584D01*
X687882Y679223D01*
X688028Y678858D01*
X688165Y678490D01*
X688292Y678119D01*
X688411Y677745D01*
X688520Y677367D01*
X688621Y676988D01*
X688711Y676606D01*
X688793Y676221D01*
X688864Y675835D01*
X688927Y675448D01*
X688980Y675059D01*
X689023Y674668D01*
X689057Y674277D01*
X689081Y673885D01*
X689095Y673493D01*
X689100Y673100D01*
X689095Y672707D01*
X689081Y672315D01*
X689057Y671923D01*
X689023Y671532D01*
X688980Y671141D01*
X688927Y670752D01*
X688864Y670365D01*
X688793Y669979D01*
X688711Y669594D01*
X688621Y669212D01*
X688520Y668833D01*
X688411Y668455D01*
X688292Y668081D01*
X688165Y667710D01*
X688028Y667342D01*
X687882Y666977D01*
X687727Y666616D01*
X687564Y666259D01*
X687392Y665906D01*
X687211Y665558D01*
X687021Y665214D01*
X686824Y664874D01*
X686618Y664540D01*
X686404Y664211D01*
X686181Y663887D01*
X685951Y663569D01*
X685714Y663256D01*
X685468Y662950D01*
X685215Y662649D01*
X684955Y662355D01*
X684688Y662067D01*
X684414Y661786D01*
X684133Y661512D01*
X683845Y661245D01*
X683551Y660985D01*
X683250Y660732D01*
X682944Y660486D01*
X682631Y660249D01*
X682313Y660019D01*
X681989Y659796D01*
X681660Y659582D01*
X681326Y659376D01*
X680986Y659179D01*
X680642Y658989D01*
X680294Y658808D01*
X679941Y658636D01*
X679584Y658473D01*
X679223Y658318D01*
X678858Y658172D01*
X678490Y658035D01*
X678119Y657908D01*
X677745Y657789D01*
X677367Y657680D01*
X676988Y657579D01*
X676606Y657489D01*
X676221Y657407D01*
X675835Y657336D01*
X675448Y657273D01*
X675059Y657220D01*
X674668Y657177D01*
X674277Y657143D01*
X673885Y657119D01*
X673493Y657105D01*
X673100Y657100D01*
X672707Y657105D01*
X672315Y657119D01*
X671923Y657143D01*
X671532Y657177D01*
X671141Y657220D01*
X670752Y657273D01*
X670365Y657336D01*
X669979Y657407D01*
X669594Y657489D01*
X669212Y657579D01*
X668833Y657680D01*
X668455Y657789D01*
X668081Y657908D01*
X667710Y658035D01*
X667342Y658172D01*
X666977Y658318D01*
X666616Y658473D01*
X666259Y658636D01*
X665906Y658808D01*
X665558Y658989D01*
X665214Y659179D01*
X664874Y659376D01*
X664540Y659582D01*
X664211Y659796D01*
X663887Y660019D01*
X663569Y660249D01*
X663256Y660486D01*
X662950Y660732D01*
X662649Y660985D01*
X662355Y661245D01*
X662067Y661512D01*
X661786Y661786D01*
X661512Y662067D01*
X661245Y662355D01*
X660985Y662649D01*
X660732Y662950D01*
X660486Y663256D01*
X660249Y663569D01*
X660019Y663887D01*
X659796Y664211D01*
X659582Y664540D01*
X659376Y664874D01*
X659179Y665214D01*
X658989Y665558D01*
X658808Y665906D01*
X658636Y666259D01*
X658473Y666616D01*
X658318Y666977D01*
X658172Y667342D01*
X658035Y667710D01*
X657908Y668081D01*
X657789Y668455D01*
X657680Y668833D01*
X657579Y669212D01*
X657489Y669594D01*
X657407Y669979D01*
X657336Y670365D01*
X657273Y670752D01*
X657220Y671141D01*
X657177Y671532D01*
X657143Y671923D01*
X657119Y672315D01*
X657105Y672707D01*
X657100Y673100D01*
X745998Y363220D02*
X746003Y363613D01*
X746017Y364005D01*
X746041Y364397D01*
X746075Y364788D01*
X746118Y365179D01*
X746171Y365568D01*
X746234Y365956D01*
X746305Y366342D01*
X746387Y366726D01*
X746478Y367108D01*
X746578Y367488D01*
X746687Y367865D01*
X746806Y368240D01*
X746933Y368611D01*
X747070Y368979D01*
X747216Y369344D01*
X747371Y369705D01*
X747534Y370062D01*
X747707Y370415D01*
X747887Y370763D01*
X748077Y371107D01*
X748275Y371447D01*
X748481Y371781D01*
X748695Y372110D01*
X748917Y372434D01*
X749147Y372752D01*
X749385Y373065D01*
X749630Y373372D01*
X749883Y373672D01*
X750143Y373966D01*
X750411Y374254D01*
X750685Y374535D01*
X750966Y374809D01*
X751254Y375077D01*
X751548Y375337D01*
X751848Y375590D01*
X752155Y375835D01*
X752468Y376073D01*
X752786Y376303D01*
X753110Y376525D01*
X753439Y376739D01*
X753773Y376945D01*
X754113Y377143D01*
X754457Y377333D01*
X754805Y377513D01*
X755158Y377686D01*
X755515Y377849D01*
X755876Y378004D01*
X756241Y378150D01*
X756609Y378287D01*
X756980Y378414D01*
X757355Y378533D01*
X757732Y378642D01*
X758112Y378742D01*
X758494Y378833D01*
X758878Y378915D01*
X759264Y378986D01*
X759652Y379049D01*
X760041Y379102D01*
X760432Y379145D01*
X760823Y379179D01*
X761215Y379203D01*
X761607Y379217D01*
X762000Y379222D01*
X762393Y379217D01*
X762785Y379203D01*
X763177Y379179D01*
X763568Y379145D01*
X763959Y379102D01*
X764348Y379049D01*
X764736Y378986D01*
X765122Y378915D01*
X765506Y378833D01*
X765888Y378742D01*
X766268Y378642D01*
X766645Y378533D01*
X767020Y378414D01*
X767391Y378287D01*
X767759Y378150D01*
X768124Y378004D01*
X768485Y377849D01*
X768842Y377686D01*
X769195Y377513D01*
X769543Y377333D01*
X769887Y377143D01*
X770227Y376945D01*
X770561Y376739D01*
X770890Y376525D01*
X771214Y376303D01*
X771532Y376073D01*
X771845Y375835D01*
X772152Y375590D01*
X772452Y375337D01*
X772746Y375077D01*
X773034Y374809D01*
X773315Y374535D01*
X773589Y374254D01*
X773857Y373966D01*
X774117Y373672D01*
X774370Y373372D01*
X774615Y373065D01*
X774853Y372752D01*
X775083Y372434D01*
X775305Y372110D01*
X775519Y371781D01*
X775725Y371447D01*
X775923Y371107D01*
X776113Y370763D01*
X776293Y370415D01*
X776466Y370062D01*
X776629Y369705D01*
X776784Y369344D01*
X776930Y368979D01*
X777067Y368611D01*
X777194Y368240D01*
X777313Y367865D01*
X777422Y367488D01*
X777522Y367108D01*
X777613Y366726D01*
X777695Y366342D01*
X777766Y365956D01*
X777829Y365568D01*
X777882Y365179D01*
X777925Y364788D01*
X777959Y364397D01*
X777983Y364005D01*
X777997Y363613D01*
X778002Y363220D01*
X777997Y362827D01*
X777983Y362435D01*
X777959Y362043D01*
X777925Y361652D01*
X777882Y361261D01*
X777829Y360872D01*
X777766Y360484D01*
X777695Y360098D01*
X777613Y359714D01*
X777522Y359332D01*
X777422Y358952D01*
X777313Y358575D01*
X777194Y358200D01*
X777067Y357829D01*
X776930Y357461D01*
X776784Y357096D01*
X776629Y356735D01*
X776466Y356378D01*
X776293Y356025D01*
X776113Y355677D01*
X775923Y355333D01*
X775725Y354993D01*
X775519Y354659D01*
X775305Y354330D01*
X775083Y354006D01*
X774853Y353688D01*
X774615Y353375D01*
X774370Y353068D01*
X774117Y352768D01*
X773857Y352474D01*
X773589Y352186D01*
X773315Y351905D01*
X773034Y351631D01*
X772746Y351363D01*
X772452Y351103D01*
X772152Y350850D01*
X771845Y350605D01*
X771532Y350367D01*
X771214Y350137D01*
X770890Y349915D01*
X770561Y349701D01*
X770227Y349495D01*
X769887Y349297D01*
X769543Y349107D01*
X769195Y348927D01*
X768842Y348754D01*
X768485Y348591D01*
X768124Y348436D01*
X767759Y348290D01*
X767391Y348153D01*
X767020Y348026D01*
X766645Y347907D01*
X766268Y347798D01*
X765888Y347698D01*
X765506Y347607D01*
X765122Y347525D01*
X764736Y347454D01*
X764348Y347391D01*
X763959Y347338D01*
X763568Y347295D01*
X763177Y347261D01*
X762785Y347237D01*
X762393Y347223D01*
X762000Y347218D01*
X761607Y347223D01*
X761215Y347237D01*
X760823Y347261D01*
X760432Y347295D01*
X760041Y347338D01*
X759652Y347391D01*
X759264Y347454D01*
X758878Y347525D01*
X758494Y347607D01*
X758112Y347698D01*
X757732Y347798D01*
X757355Y347907D01*
X756980Y348026D01*
X756609Y348153D01*
X756241Y348290D01*
X755876Y348436D01*
X755515Y348591D01*
X755158Y348754D01*
X754805Y348927D01*
X754457Y349107D01*
X754113Y349297D01*
X753773Y349495D01*
X753439Y349701D01*
X753110Y349915D01*
X752786Y350137D01*
X752468Y350367D01*
X752155Y350605D01*
X751848Y350850D01*
X751548Y351103D01*
X751254Y351363D01*
X750966Y351631D01*
X750685Y351905D01*
X750411Y352186D01*
X750143Y352474D01*
X749883Y352768D01*
X749630Y353068D01*
X749385Y353375D01*
X749147Y353688D01*
X748917Y354006D01*
X748695Y354330D01*
X748481Y354659D01*
X748275Y354993D01*
X748077Y355333D01*
X747887Y355677D01*
X747707Y356025D01*
X747534Y356378D01*
X747371Y356735D01*
X747216Y357096D01*
X747070Y357461D01*
X746933Y357829D01*
X746806Y358200D01*
X746687Y358575D01*
X746578Y358952D01*
X746478Y359332D01*
X746387Y359714D01*
X746305Y360098D01*
X746234Y360484D01*
X746171Y360872D01*
X746118Y361261D01*
X746075Y361652D01*
X746041Y362043D01*
X746017Y362435D01*
X746003Y362827D01*
X745998Y363220D01*
X542798Y363220D02*
X542803Y363613D01*
X542817Y364005D01*
X542841Y364397D01*
X542875Y364788D01*
X542918Y365179D01*
X542971Y365568D01*
X543034Y365956D01*
X543105Y366342D01*
X543187Y366726D01*
X543278Y367108D01*
X543378Y367488D01*
X543487Y367865D01*
X543606Y368240D01*
X543733Y368611D01*
X543870Y368979D01*
X544016Y369344D01*
X544171Y369705D01*
X544334Y370062D01*
X544507Y370415D01*
X544687Y370763D01*
X544877Y371107D01*
X545075Y371447D01*
X545281Y371781D01*
X545495Y372110D01*
X545717Y372434D01*
X545947Y372752D01*
X546185Y373065D01*
X546430Y373372D01*
X546683Y373672D01*
X546943Y373966D01*
X547211Y374254D01*
X547485Y374535D01*
X547766Y374809D01*
X548054Y375077D01*
X548348Y375337D01*
X548648Y375590D01*
X548955Y375835D01*
X549268Y376073D01*
X549586Y376303D01*
X549910Y376525D01*
X550239Y376739D01*
X550573Y376945D01*
X550913Y377143D01*
X551257Y377333D01*
X551605Y377513D01*
X551958Y377686D01*
X552315Y377849D01*
X552676Y378004D01*
X553041Y378150D01*
X553409Y378287D01*
X553780Y378414D01*
X554155Y378533D01*
X554532Y378642D01*
X554912Y378742D01*
X555294Y378833D01*
X555678Y378915D01*
X556064Y378986D01*
X556452Y379049D01*
X556841Y379102D01*
X557232Y379145D01*
X557623Y379179D01*
X558015Y379203D01*
X558407Y379217D01*
X558800Y379222D01*
X559193Y379217D01*
X559585Y379203D01*
X559977Y379179D01*
X560368Y379145D01*
X560759Y379102D01*
X561148Y379049D01*
X561536Y378986D01*
X561922Y378915D01*
X562306Y378833D01*
X562688Y378742D01*
X563068Y378642D01*
X563445Y378533D01*
X563820Y378414D01*
X564191Y378287D01*
X564559Y378150D01*
X564924Y378004D01*
X565285Y377849D01*
X565642Y377686D01*
X565995Y377513D01*
X566343Y377333D01*
X566687Y377143D01*
X567027Y376945D01*
X567361Y376739D01*
X567690Y376525D01*
X568014Y376303D01*
X568332Y376073D01*
X568645Y375835D01*
X568952Y375590D01*
X569252Y375337D01*
X569546Y375077D01*
X569834Y374809D01*
X570115Y374535D01*
X570389Y374254D01*
X570657Y373966D01*
X570917Y373672D01*
X571170Y373372D01*
X571415Y373065D01*
X571653Y372752D01*
X571883Y372434D01*
X572105Y372110D01*
X572319Y371781D01*
X572525Y371447D01*
X572723Y371107D01*
X572913Y370763D01*
X573093Y370415D01*
X573266Y370062D01*
X573429Y369705D01*
X573584Y369344D01*
X573730Y368979D01*
X573867Y368611D01*
X573994Y368240D01*
X574113Y367865D01*
X574222Y367488D01*
X574322Y367108D01*
X574413Y366726D01*
X574495Y366342D01*
X574566Y365956D01*
X574629Y365568D01*
X574682Y365179D01*
X574725Y364788D01*
X574759Y364397D01*
X574783Y364005D01*
X574797Y363613D01*
X574802Y363220D01*
X574797Y362827D01*
X574783Y362435D01*
X574759Y362043D01*
X574725Y361652D01*
X574682Y361261D01*
X574629Y360872D01*
X574566Y360484D01*
X574495Y360098D01*
X574413Y359714D01*
X574322Y359332D01*
X574222Y358952D01*
X574113Y358575D01*
X573994Y358200D01*
X573867Y357829D01*
X573730Y357461D01*
X573584Y357096D01*
X573429Y356735D01*
X573266Y356378D01*
X573093Y356025D01*
X572913Y355677D01*
X572723Y355333D01*
X572525Y354993D01*
X572319Y354659D01*
X572105Y354330D01*
X571883Y354006D01*
X571653Y353688D01*
X571415Y353375D01*
X571170Y353068D01*
X570917Y352768D01*
X570657Y352474D01*
X570389Y352186D01*
X570115Y351905D01*
X569834Y351631D01*
X569546Y351363D01*
X569252Y351103D01*
X568952Y350850D01*
X568645Y350605D01*
X568332Y350367D01*
X568014Y350137D01*
X567690Y349915D01*
X567361Y349701D01*
X567027Y349495D01*
X566687Y349297D01*
X566343Y349107D01*
X565995Y348927D01*
X565642Y348754D01*
X565285Y348591D01*
X564924Y348436D01*
X564559Y348290D01*
X564191Y348153D01*
X563820Y348026D01*
X563445Y347907D01*
X563068Y347798D01*
X562688Y347698D01*
X562306Y347607D01*
X561922Y347525D01*
X561536Y347454D01*
X561148Y347391D01*
X560759Y347338D01*
X560368Y347295D01*
X559977Y347261D01*
X559585Y347237D01*
X559193Y347223D01*
X558800Y347218D01*
X558407Y347223D01*
X558015Y347237D01*
X557623Y347261D01*
X557232Y347295D01*
X556841Y347338D01*
X556452Y347391D01*
X556064Y347454D01*
X555678Y347525D01*
X555294Y347607D01*
X554912Y347698D01*
X554532Y347798D01*
X554155Y347907D01*
X553780Y348026D01*
X553409Y348153D01*
X553041Y348290D01*
X552676Y348436D01*
X552315Y348591D01*
X551958Y348754D01*
X551605Y348927D01*
X551257Y349107D01*
X550913Y349297D01*
X550573Y349495D01*
X550239Y349701D01*
X549910Y349915D01*
X549586Y350137D01*
X549268Y350367D01*
X548955Y350605D01*
X548648Y350850D01*
X548348Y351103D01*
X548054Y351363D01*
X547766Y351631D01*
X547485Y351905D01*
X547211Y352186D01*
X546943Y352474D01*
X546683Y352768D01*
X546430Y353068D01*
X546185Y353375D01*
X545947Y353688D01*
X545717Y354006D01*
X545495Y354330D01*
X545281Y354659D01*
X545075Y354993D01*
X544877Y355333D01*
X544687Y355677D01*
X544507Y356025D01*
X544334Y356378D01*
X544171Y356735D01*
X544016Y357096D01*
X543870Y357461D01*
X543733Y357829D01*
X543606Y358200D01*
X543487Y358575D01*
X543378Y358952D01*
X543278Y359332D01*
X543187Y359714D01*
X543105Y360098D01*
X543034Y360484D01*
X542971Y360872D01*
X542918Y361261D01*
X542875Y361652D01*
X542841Y362043D01*
X542817Y362435D01*
X542803Y362827D01*
X542798Y363220D01*
X542798Y541020D02*
X542803Y541413D01*
X542817Y541805D01*
X542841Y542197D01*
X542875Y542588D01*
X542918Y542979D01*
X542971Y543368D01*
X543034Y543756D01*
X543105Y544142D01*
X543187Y544526D01*
X543278Y544908D01*
X543378Y545288D01*
X543487Y545665D01*
X543606Y546040D01*
X543733Y546411D01*
X543870Y546779D01*
X544016Y547144D01*
X544171Y547505D01*
X544334Y547862D01*
X544507Y548215D01*
X544687Y548563D01*
X544877Y548907D01*
X545075Y549247D01*
X545281Y549581D01*
X545495Y549910D01*
X545717Y550234D01*
X545947Y550552D01*
X546185Y550865D01*
X546430Y551172D01*
X546683Y551472D01*
X546943Y551766D01*
X547211Y552054D01*
X547485Y552335D01*
X547766Y552609D01*
X548054Y552877D01*
X548348Y553137D01*
X548648Y553390D01*
X548955Y553635D01*
X549268Y553873D01*
X549586Y554103D01*
X549910Y554325D01*
X550239Y554539D01*
X550573Y554745D01*
X550913Y554943D01*
X551257Y555133D01*
X551605Y555313D01*
X551958Y555486D01*
X552315Y555649D01*
X552676Y555804D01*
X553041Y555950D01*
X553409Y556087D01*
X553780Y556214D01*
X554155Y556333D01*
X554532Y556442D01*
X554912Y556542D01*
X555294Y556633D01*
X555678Y556715D01*
X556064Y556786D01*
X556452Y556849D01*
X556841Y556902D01*
X557232Y556945D01*
X557623Y556979D01*
X558015Y557003D01*
X558407Y557017D01*
X558800Y557022D01*
X559193Y557017D01*
X559585Y557003D01*
X559977Y556979D01*
X560368Y556945D01*
X560759Y556902D01*
X561148Y556849D01*
X561536Y556786D01*
X561922Y556715D01*
X562306Y556633D01*
X562688Y556542D01*
X563068Y556442D01*
X563445Y556333D01*
X563820Y556214D01*
X564191Y556087D01*
X564559Y555950D01*
X564924Y555804D01*
X565285Y555649D01*
X565642Y555486D01*
X565995Y555313D01*
X566343Y555133D01*
X566687Y554943D01*
X567027Y554745D01*
X567361Y554539D01*
X567690Y554325D01*
X568014Y554103D01*
X568332Y553873D01*
X568645Y553635D01*
X568952Y553390D01*
X569252Y553137D01*
X569546Y552877D01*
X569834Y552609D01*
X570115Y552335D01*
X570389Y552054D01*
X570657Y551766D01*
X570917Y551472D01*
X571170Y551172D01*
X571415Y550865D01*
X571653Y550552D01*
X571883Y550234D01*
X572105Y549910D01*
X572319Y549581D01*
X572525Y549247D01*
X572723Y548907D01*
X572913Y548563D01*
X573093Y548215D01*
X573266Y547862D01*
X573429Y547505D01*
X573584Y547144D01*
X573730Y546779D01*
X573867Y546411D01*
X573994Y546040D01*
X574113Y545665D01*
X574222Y545288D01*
X574322Y544908D01*
X574413Y544526D01*
X574495Y544142D01*
X574566Y543756D01*
X574629Y543368D01*
X574682Y542979D01*
X574725Y542588D01*
X574759Y542197D01*
X574783Y541805D01*
X574797Y541413D01*
X574802Y541020D01*
X574797Y540627D01*
X574783Y540235D01*
X574759Y539843D01*
X574725Y539452D01*
X574682Y539061D01*
X574629Y538672D01*
X574566Y538284D01*
X574495Y537898D01*
X574413Y537514D01*
X574322Y537132D01*
X574222Y536752D01*
X574113Y536375D01*
X573994Y536000D01*
X573867Y535629D01*
X573730Y535261D01*
X573584Y534896D01*
X573429Y534535D01*
X573266Y534178D01*
X573093Y533825D01*
X572913Y533477D01*
X572723Y533133D01*
X572525Y532793D01*
X572319Y532459D01*
X572105Y532130D01*
X571883Y531806D01*
X571653Y531488D01*
X571415Y531175D01*
X571170Y530868D01*
X570917Y530568D01*
X570657Y530274D01*
X570389Y529986D01*
X570115Y529705D01*
X569834Y529431D01*
X569546Y529163D01*
X569252Y528903D01*
X568952Y528650D01*
X568645Y528405D01*
X568332Y528167D01*
X568014Y527937D01*
X567690Y527715D01*
X567361Y527501D01*
X567027Y527295D01*
X566687Y527097D01*
X566343Y526907D01*
X565995Y526727D01*
X565642Y526554D01*
X565285Y526391D01*
X564924Y526236D01*
X564559Y526090D01*
X564191Y525953D01*
X563820Y525826D01*
X563445Y525707D01*
X563068Y525598D01*
X562688Y525498D01*
X562306Y525407D01*
X561922Y525325D01*
X561536Y525254D01*
X561148Y525191D01*
X560759Y525138D01*
X560368Y525095D01*
X559977Y525061D01*
X559585Y525037D01*
X559193Y525023D01*
X558800Y525018D01*
X558407Y525023D01*
X558015Y525037D01*
X557623Y525061D01*
X557232Y525095D01*
X556841Y525138D01*
X556452Y525191D01*
X556064Y525254D01*
X555678Y525325D01*
X555294Y525407D01*
X554912Y525498D01*
X554532Y525598D01*
X554155Y525707D01*
X553780Y525826D01*
X553409Y525953D01*
X553041Y526090D01*
X552676Y526236D01*
X552315Y526391D01*
X551958Y526554D01*
X551605Y526727D01*
X551257Y526907D01*
X550913Y527097D01*
X550573Y527295D01*
X550239Y527501D01*
X549910Y527715D01*
X549586Y527937D01*
X549268Y528167D01*
X548955Y528405D01*
X548648Y528650D01*
X548348Y528903D01*
X548054Y529163D01*
X547766Y529431D01*
X547485Y529705D01*
X547211Y529986D01*
X546943Y530274D01*
X546683Y530568D01*
X546430Y530868D01*
X546185Y531175D01*
X545947Y531488D01*
X545717Y531806D01*
X545495Y532130D01*
X545281Y532459D01*
X545075Y532793D01*
X544877Y533133D01*
X544687Y533477D01*
X544507Y533825D01*
X544334Y534178D01*
X544171Y534535D01*
X544016Y534896D01*
X543870Y535261D01*
X543733Y535629D01*
X543606Y536000D01*
X543487Y536375D01*
X543378Y536752D01*
X543278Y537132D01*
X543187Y537514D01*
X543105Y537898D01*
X543034Y538284D01*
X542971Y538672D01*
X542918Y539061D01*
X542875Y539452D01*
X542841Y539843D01*
X542817Y540235D01*
X542803Y540627D01*
X542798Y541020D01*
X745998Y541020D02*
X746003Y541413D01*
X746017Y541805D01*
X746041Y542197D01*
X746075Y542588D01*
X746118Y542979D01*
X746171Y543368D01*
X746234Y543756D01*
X746305Y544142D01*
X746387Y544526D01*
X746478Y544908D01*
X746578Y545288D01*
X746687Y545665D01*
X746806Y546040D01*
X746933Y546411D01*
X747070Y546779D01*
X747216Y547144D01*
X747371Y547505D01*
X747534Y547862D01*
X747707Y548215D01*
X747887Y548563D01*
X748077Y548907D01*
X748275Y549247D01*
X748481Y549581D01*
X748695Y549910D01*
X748917Y550234D01*
X749147Y550552D01*
X749385Y550865D01*
X749630Y551172D01*
X749883Y551472D01*
X750143Y551766D01*
X750411Y552054D01*
X750685Y552335D01*
X750966Y552609D01*
X751254Y552877D01*
X751548Y553137D01*
X751848Y553390D01*
X752155Y553635D01*
X752468Y553873D01*
X752786Y554103D01*
X753110Y554325D01*
X753439Y554539D01*
X753773Y554745D01*
X754113Y554943D01*
X754457Y555133D01*
X754805Y555313D01*
X755158Y555486D01*
X755515Y555649D01*
X755876Y555804D01*
X756241Y555950D01*
X756609Y556087D01*
X756980Y556214D01*
X757355Y556333D01*
X757732Y556442D01*
X758112Y556542D01*
X758494Y556633D01*
X758878Y556715D01*
X759264Y556786D01*
X759652Y556849D01*
X760041Y556902D01*
X760432Y556945D01*
X760823Y556979D01*
X761215Y557003D01*
X761607Y557017D01*
X762000Y557022D01*
X762393Y557017D01*
X762785Y557003D01*
X763177Y556979D01*
X763568Y556945D01*
X763959Y556902D01*
X764348Y556849D01*
X764736Y556786D01*
X765122Y556715D01*
X765506Y556633D01*
X765888Y556542D01*
X766268Y556442D01*
X766645Y556333D01*
X767020Y556214D01*
X767391Y556087D01*
X767759Y555950D01*
X768124Y555804D01*
X768485Y555649D01*
X768842Y555486D01*
X769195Y555313D01*
X769543Y555133D01*
X769887Y554943D01*
X770227Y554745D01*
X770561Y554539D01*
X770890Y554325D01*
X771214Y554103D01*
X771532Y553873D01*
X771845Y553635D01*
X772152Y553390D01*
X772452Y553137D01*
X772746Y552877D01*
X773034Y552609D01*
X773315Y552335D01*
X773589Y552054D01*
X773857Y551766D01*
X774117Y551472D01*
X774370Y551172D01*
X774615Y550865D01*
X774853Y550552D01*
X775083Y550234D01*
X775305Y549910D01*
X775519Y549581D01*
X775725Y549247D01*
X775923Y548907D01*
X776113Y548563D01*
X776293Y548215D01*
X776466Y547862D01*
X776629Y547505D01*
X776784Y547144D01*
X776930Y546779D01*
X777067Y546411D01*
X777194Y546040D01*
X777313Y545665D01*
X777422Y545288D01*
X777522Y544908D01*
X777613Y544526D01*
X777695Y544142D01*
X777766Y543756D01*
X777829Y543368D01*
X777882Y542979D01*
X777925Y542588D01*
X777959Y542197D01*
X777983Y541805D01*
X777997Y541413D01*
X778002Y541020D01*
X777997Y540627D01*
X777983Y540235D01*
X777959Y539843D01*
X777925Y539452D01*
X777882Y539061D01*
X777829Y538672D01*
X777766Y538284D01*
X777695Y537898D01*
X777613Y537514D01*
X777522Y537132D01*
X777422Y536752D01*
X777313Y536375D01*
X777194Y536000D01*
X777067Y535629D01*
X776930Y535261D01*
X776784Y534896D01*
X776629Y534535D01*
X776466Y534178D01*
X776293Y533825D01*
X776113Y533477D01*
X775923Y533133D01*
X775725Y532793D01*
X775519Y532459D01*
X775305Y532130D01*
X775083Y531806D01*
X774853Y531488D01*
X774615Y531175D01*
X774370Y530868D01*
X774117Y530568D01*
X773857Y530274D01*
X773589Y529986D01*
X773315Y529705D01*
X773034Y529431D01*
X772746Y529163D01*
X772452Y528903D01*
X772152Y528650D01*
X771845Y528405D01*
X771532Y528167D01*
X771214Y527937D01*
X770890Y527715D01*
X770561Y527501D01*
X770227Y527295D01*
X769887Y527097D01*
X769543Y526907D01*
X769195Y526727D01*
X768842Y526554D01*
X768485Y526391D01*
X768124Y526236D01*
X767759Y526090D01*
X767391Y525953D01*
X767020Y525826D01*
X766645Y525707D01*
X766268Y525598D01*
X765888Y525498D01*
X765506Y525407D01*
X765122Y525325D01*
X764736Y525254D01*
X764348Y525191D01*
X763959Y525138D01*
X763568Y525095D01*
X763177Y525061D01*
X762785Y525037D01*
X762393Y525023D01*
X762000Y525018D01*
X761607Y525023D01*
X761215Y525037D01*
X760823Y525061D01*
X760432Y525095D01*
X760041Y525138D01*
X759652Y525191D01*
X759264Y525254D01*
X758878Y525325D01*
X758494Y525407D01*
X758112Y525498D01*
X757732Y525598D01*
X757355Y525707D01*
X756980Y525826D01*
X756609Y525953D01*
X756241Y526090D01*
X755876Y526236D01*
X755515Y526391D01*
X755158Y526554D01*
X754805Y526727D01*
X754457Y526907D01*
X754113Y527097D01*
X753773Y527295D01*
X753439Y527501D01*
X753110Y527715D01*
X752786Y527937D01*
X752468Y528167D01*
X752155Y528405D01*
X751848Y528650D01*
X751548Y528903D01*
X751254Y529163D01*
X750966Y529431D01*
X750685Y529705D01*
X750411Y529986D01*
X750143Y530274D01*
X749883Y530568D01*
X749630Y530868D01*
X749385Y531175D01*
X749147Y531488D01*
X748917Y531806D01*
X748695Y532130D01*
X748481Y532459D01*
X748275Y532793D01*
X748077Y533133D01*
X747887Y533477D01*
X747707Y533825D01*
X747534Y534178D01*
X747371Y534535D01*
X747216Y534896D01*
X747070Y535261D01*
X746933Y535629D01*
X746806Y536000D01*
X746687Y536375D01*
X746578Y536752D01*
X746478Y537132D01*
X746387Y537514D01*
X746305Y537898D01*
X746234Y538284D01*
X746171Y538672D01*
X746118Y539061D01*
X746075Y539452D01*
X746041Y539843D01*
X746017Y540235D01*
X746003Y540627D01*
X745998Y541020D01*
X614045Y363220D02*
X614047Y363423D01*
X614055Y363625D01*
X614067Y363827D01*
X614085Y364029D01*
X614107Y364231D01*
X614134Y364431D01*
X614167Y364631D01*
X614204Y364830D01*
X614246Y365029D01*
X614292Y365226D01*
X614344Y365422D01*
X614400Y365616D01*
X614462Y365809D01*
X614528Y366001D01*
X614598Y366191D01*
X614673Y366379D01*
X614753Y366565D01*
X614838Y366749D01*
X614926Y366932D01*
X615020Y367111D01*
X615117Y367289D01*
X615219Y367464D01*
X615326Y367636D01*
X615436Y367806D01*
X615551Y367973D01*
X615670Y368137D01*
X615792Y368299D01*
X615919Y368457D01*
X616049Y368612D01*
X616183Y368764D01*
X616321Y368912D01*
X616463Y369057D01*
X616608Y369199D01*
X616756Y369337D01*
X616908Y369471D01*
X617063Y369601D01*
X617221Y369728D01*
X617383Y369850D01*
X617547Y369969D01*
X617714Y370084D01*
X617884Y370194D01*
X618056Y370301D01*
X618231Y370403D01*
X618409Y370500D01*
X618588Y370594D01*
X618771Y370682D01*
X618955Y370767D01*
X619141Y370847D01*
X619329Y370922D01*
X619519Y370992D01*
X619711Y371058D01*
X619904Y371120D01*
X620098Y371176D01*
X620294Y371228D01*
X620491Y371274D01*
X620690Y371316D01*
X620889Y371353D01*
X621089Y371386D01*
X621289Y371413D01*
X621491Y371435D01*
X621693Y371453D01*
X621895Y371465D01*
X622097Y371473D01*
X622300Y371475D01*
X622503Y371473D01*
X622705Y371465D01*
X622907Y371453D01*
X623109Y371435D01*
X623311Y371413D01*
X623511Y371386D01*
X623711Y371353D01*
X623910Y371316D01*
X624109Y371274D01*
X624306Y371228D01*
X624502Y371176D01*
X624696Y371120D01*
X624889Y371058D01*
X625081Y370992D01*
X625271Y370922D01*
X625459Y370847D01*
X625645Y370767D01*
X625829Y370682D01*
X626012Y370594D01*
X626191Y370500D01*
X626369Y370403D01*
X626544Y370301D01*
X626716Y370194D01*
X626886Y370084D01*
X627053Y369969D01*
X627217Y369850D01*
X627379Y369728D01*
X627537Y369601D01*
X627692Y369471D01*
X627844Y369337D01*
X627992Y369199D01*
X628137Y369057D01*
X628279Y368912D01*
X628417Y368764D01*
X628551Y368612D01*
X628681Y368457D01*
X628808Y368299D01*
X628930Y368137D01*
X629049Y367973D01*
X629164Y367806D01*
X629274Y367636D01*
X629381Y367464D01*
X629483Y367289D01*
X629580Y367111D01*
X629674Y366932D01*
X629762Y366749D01*
X629847Y366565D01*
X629927Y366379D01*
X630002Y366191D01*
X630072Y366001D01*
X630138Y365809D01*
X630200Y365616D01*
X630256Y365422D01*
X630308Y365226D01*
X630354Y365029D01*
X630396Y364830D01*
X630433Y364631D01*
X630466Y364431D01*
X630493Y364231D01*
X630515Y364029D01*
X630533Y363827D01*
X630545Y363625D01*
X630553Y363423D01*
X630555Y363220D01*
X630553Y363017D01*
X630545Y362815D01*
X630533Y362613D01*
X630515Y362411D01*
X630493Y362209D01*
X630466Y362009D01*
X630433Y361809D01*
X630396Y361610D01*
X630354Y361411D01*
X630308Y361214D01*
X630256Y361018D01*
X630200Y360824D01*
X630138Y360631D01*
X630072Y360439D01*
X630002Y360249D01*
X629927Y360061D01*
X629847Y359875D01*
X629762Y359691D01*
X629674Y359508D01*
X629580Y359329D01*
X629483Y359151D01*
X629381Y358976D01*
X629274Y358804D01*
X629164Y358634D01*
X629049Y358467D01*
X628930Y358303D01*
X628808Y358141D01*
X628681Y357983D01*
X628551Y357828D01*
X628417Y357676D01*
X628279Y357528D01*
X628137Y357383D01*
X627992Y357241D01*
X627844Y357103D01*
X627692Y356969D01*
X627537Y356839D01*
X627379Y356712D01*
X627217Y356590D01*
X627053Y356471D01*
X626886Y356356D01*
X626716Y356246D01*
X626544Y356139D01*
X626369Y356037D01*
X626191Y355940D01*
X626012Y355846D01*
X625829Y355758D01*
X625645Y355673D01*
X625459Y355593D01*
X625271Y355518D01*
X625081Y355448D01*
X624889Y355382D01*
X624696Y355320D01*
X624502Y355264D01*
X624306Y355212D01*
X624109Y355166D01*
X623910Y355124D01*
X623711Y355087D01*
X623511Y355054D01*
X623311Y355027D01*
X623109Y355005D01*
X622907Y354987D01*
X622705Y354975D01*
X622503Y354967D01*
X622300Y354965D01*
X622097Y354967D01*
X621895Y354975D01*
X621693Y354987D01*
X621491Y355005D01*
X621289Y355027D01*
X621089Y355054D01*
X620889Y355087D01*
X620690Y355124D01*
X620491Y355166D01*
X620294Y355212D01*
X620098Y355264D01*
X619904Y355320D01*
X619711Y355382D01*
X619519Y355448D01*
X619329Y355518D01*
X619141Y355593D01*
X618955Y355673D01*
X618771Y355758D01*
X618588Y355846D01*
X618409Y355940D01*
X618231Y356037D01*
X618056Y356139D01*
X617884Y356246D01*
X617714Y356356D01*
X617547Y356471D01*
X617383Y356590D01*
X617221Y356712D01*
X617063Y356839D01*
X616908Y356969D01*
X616756Y357103D01*
X616608Y357241D01*
X616463Y357383D01*
X616321Y357528D01*
X616183Y357676D01*
X616049Y357828D01*
X615919Y357983D01*
X615792Y358141D01*
X615670Y358303D01*
X615551Y358467D01*
X615436Y358634D01*
X615326Y358804D01*
X615219Y358976D01*
X615117Y359151D01*
X615020Y359329D01*
X614926Y359508D01*
X614838Y359691D01*
X614753Y359875D01*
X614673Y360061D01*
X614598Y360249D01*
X614528Y360439D01*
X614462Y360631D01*
X614400Y360824D01*
X614344Y361018D01*
X614292Y361214D01*
X614246Y361411D01*
X614204Y361610D01*
X614167Y361809D01*
X614134Y362009D01*
X614107Y362209D01*
X614085Y362411D01*
X614067Y362613D01*
X614055Y362815D01*
X614047Y363017D01*
X614045Y363220D01*
X701320Y444500D02*
X701325Y444929D01*
X701341Y445359D01*
X701367Y445787D01*
X701404Y446215D01*
X701452Y446642D01*
X701509Y447068D01*
X701578Y447492D01*
X701656Y447914D01*
X701745Y448334D01*
X701844Y448752D01*
X701954Y449167D01*
X702074Y449580D01*
X702203Y449989D01*
X702343Y450396D01*
X702493Y450798D01*
X702652Y451197D01*
X702821Y451592D01*
X703000Y451982D01*
X703189Y452368D01*
X703386Y452749D01*
X703593Y453126D01*
X703810Y453497D01*
X704035Y453862D01*
X704269Y454222D01*
X704512Y454577D01*
X704764Y454925D01*
X705024Y455267D01*
X705292Y455602D01*
X705569Y455931D01*
X705853Y456252D01*
X706146Y456567D01*
X706446Y456874D01*
X706753Y457174D01*
X707068Y457467D01*
X707389Y457751D01*
X707718Y458028D01*
X708053Y458296D01*
X708395Y458556D01*
X708743Y458808D01*
X709098Y459051D01*
X709458Y459285D01*
X709823Y459510D01*
X710194Y459727D01*
X710571Y459934D01*
X710952Y460131D01*
X711338Y460320D01*
X711728Y460499D01*
X712123Y460668D01*
X712522Y460827D01*
X712924Y460977D01*
X713331Y461117D01*
X713740Y461246D01*
X714153Y461366D01*
X714568Y461476D01*
X714986Y461575D01*
X715406Y461664D01*
X715828Y461742D01*
X716252Y461811D01*
X716678Y461868D01*
X717105Y461916D01*
X717533Y461953D01*
X717961Y461979D01*
X718391Y461995D01*
X718820Y462000D01*
X719249Y461995D01*
X719679Y461979D01*
X720107Y461953D01*
X720535Y461916D01*
X720962Y461868D01*
X721388Y461811D01*
X721812Y461742D01*
X722234Y461664D01*
X722654Y461575D01*
X723072Y461476D01*
X723487Y461366D01*
X723900Y461246D01*
X724309Y461117D01*
X724716Y460977D01*
X725118Y460827D01*
X725517Y460668D01*
X725912Y460499D01*
X726302Y460320D01*
X726688Y460131D01*
X727069Y459934D01*
X727446Y459727D01*
X727817Y459510D01*
X728182Y459285D01*
X728542Y459051D01*
X728897Y458808D01*
X729245Y458556D01*
X729587Y458296D01*
X729922Y458028D01*
X730251Y457751D01*
X730572Y457467D01*
X730887Y457174D01*
X731194Y456874D01*
X731494Y456567D01*
X731787Y456252D01*
X732071Y455931D01*
X732348Y455602D01*
X732616Y455267D01*
X732876Y454925D01*
X733128Y454577D01*
X733371Y454222D01*
X733605Y453862D01*
X733830Y453497D01*
X734047Y453126D01*
X734254Y452749D01*
X734451Y452368D01*
X734640Y451982D01*
X734819Y451592D01*
X734988Y451197D01*
X735147Y450798D01*
X735297Y450396D01*
X735437Y449989D01*
X735566Y449580D01*
X735686Y449167D01*
X735796Y448752D01*
X735895Y448334D01*
X735984Y447914D01*
X736062Y447492D01*
X736131Y447068D01*
X736188Y446642D01*
X736236Y446215D01*
X736273Y445787D01*
X736299Y445359D01*
X736315Y444929D01*
X736320Y444500D01*
X736315Y444071D01*
X736299Y443641D01*
X736273Y443213D01*
X736236Y442785D01*
X736188Y442358D01*
X736131Y441932D01*
X736062Y441508D01*
X735984Y441086D01*
X735895Y440666D01*
X735796Y440248D01*
X735686Y439833D01*
X735566Y439420D01*
X735437Y439011D01*
X735297Y438604D01*
X735147Y438202D01*
X734988Y437803D01*
X734819Y437408D01*
X734640Y437018D01*
X734451Y436632D01*
X734254Y436251D01*
X734047Y435874D01*
X733830Y435503D01*
X733605Y435138D01*
X733371Y434778D01*
X733128Y434423D01*
X732876Y434075D01*
X732616Y433733D01*
X732348Y433398D01*
X732071Y433069D01*
X731787Y432748D01*
X731494Y432433D01*
X731194Y432126D01*
X730887Y431826D01*
X730572Y431533D01*
X730251Y431249D01*
X729922Y430972D01*
X729587Y430704D01*
X729245Y430444D01*
X728897Y430192D01*
X728542Y429949D01*
X728182Y429715D01*
X727817Y429490D01*
X727446Y429273D01*
X727069Y429066D01*
X726688Y428869D01*
X726302Y428680D01*
X725912Y428501D01*
X725517Y428332D01*
X725118Y428173D01*
X724716Y428023D01*
X724309Y427883D01*
X723900Y427754D01*
X723487Y427634D01*
X723072Y427524D01*
X722654Y427425D01*
X722234Y427336D01*
X721812Y427258D01*
X721388Y427189D01*
X720962Y427132D01*
X720535Y427084D01*
X720107Y427047D01*
X719679Y427021D01*
X719249Y427005D01*
X718820Y427000D01*
X718391Y427005D01*
X717961Y427021D01*
X717533Y427047D01*
X717105Y427084D01*
X716678Y427132D01*
X716252Y427189D01*
X715828Y427258D01*
X715406Y427336D01*
X714986Y427425D01*
X714568Y427524D01*
X714153Y427634D01*
X713740Y427754D01*
X713331Y427883D01*
X712924Y428023D01*
X712522Y428173D01*
X712123Y428332D01*
X711728Y428501D01*
X711338Y428680D01*
X710952Y428869D01*
X710571Y429066D01*
X710194Y429273D01*
X709823Y429490D01*
X709458Y429715D01*
X709098Y429949D01*
X708743Y430192D01*
X708395Y430444D01*
X708053Y430704D01*
X707718Y430972D01*
X707389Y431249D01*
X707068Y431533D01*
X706753Y431826D01*
X706446Y432126D01*
X706146Y432433D01*
X705853Y432748D01*
X705569Y433069D01*
X705292Y433398D01*
X705024Y433733D01*
X704764Y434075D01*
X704512Y434423D01*
X704269Y434778D01*
X704035Y435138D01*
X703810Y435503D01*
X703593Y435874D01*
X703386Y436251D01*
X703189Y436632D01*
X703000Y437018D01*
X702821Y437408D01*
X702652Y437803D01*
X702493Y438202D01*
X702343Y438604D01*
X702203Y439011D01*
X702074Y439420D01*
X701954Y439833D01*
X701844Y440248D01*
X701745Y440666D01*
X701656Y441086D01*
X701578Y441508D01*
X701509Y441932D01*
X701452Y442358D01*
X701404Y442785D01*
X701367Y443213D01*
X701341Y443641D01*
X701325Y444071D01*
X701320Y444500D01*
X587020Y304800D02*
X587025Y305229D01*
X587041Y305659D01*
X587067Y306087D01*
X587104Y306515D01*
X587152Y306942D01*
X587209Y307368D01*
X587278Y307792D01*
X587356Y308214D01*
X587445Y308634D01*
X587544Y309052D01*
X587654Y309467D01*
X587774Y309880D01*
X587903Y310289D01*
X588043Y310696D01*
X588193Y311098D01*
X588352Y311497D01*
X588521Y311892D01*
X588700Y312282D01*
X588889Y312668D01*
X589086Y313049D01*
X589293Y313426D01*
X589510Y313797D01*
X589735Y314162D01*
X589969Y314522D01*
X590212Y314877D01*
X590464Y315225D01*
X590724Y315567D01*
X590992Y315902D01*
X591269Y316231D01*
X591553Y316552D01*
X591846Y316867D01*
X592146Y317174D01*
X592453Y317474D01*
X592768Y317767D01*
X593089Y318051D01*
X593418Y318328D01*
X593753Y318596D01*
X594095Y318856D01*
X594443Y319108D01*
X594798Y319351D01*
X595158Y319585D01*
X595523Y319810D01*
X595894Y320027D01*
X596271Y320234D01*
X596652Y320431D01*
X597038Y320620D01*
X597428Y320799D01*
X597823Y320968D01*
X598222Y321127D01*
X598624Y321277D01*
X599031Y321417D01*
X599440Y321546D01*
X599853Y321666D01*
X600268Y321776D01*
X600686Y321875D01*
X601106Y321964D01*
X601528Y322042D01*
X601952Y322111D01*
X602378Y322168D01*
X602805Y322216D01*
X603233Y322253D01*
X603661Y322279D01*
X604091Y322295D01*
X604520Y322300D01*
X604949Y322295D01*
X605379Y322279D01*
X605807Y322253D01*
X606235Y322216D01*
X606662Y322168D01*
X607088Y322111D01*
X607512Y322042D01*
X607934Y321964D01*
X608354Y321875D01*
X608772Y321776D01*
X609187Y321666D01*
X609600Y321546D01*
X610009Y321417D01*
X610416Y321277D01*
X610818Y321127D01*
X611217Y320968D01*
X611612Y320799D01*
X612002Y320620D01*
X612388Y320431D01*
X612769Y320234D01*
X613146Y320027D01*
X613517Y319810D01*
X613882Y319585D01*
X614242Y319351D01*
X614597Y319108D01*
X614945Y318856D01*
X615287Y318596D01*
X615622Y318328D01*
X615951Y318051D01*
X616272Y317767D01*
X616587Y317474D01*
X616894Y317174D01*
X617194Y316867D01*
X617487Y316552D01*
X617771Y316231D01*
X618048Y315902D01*
X618316Y315567D01*
X618576Y315225D01*
X618828Y314877D01*
X619071Y314522D01*
X619305Y314162D01*
X619530Y313797D01*
X619747Y313426D01*
X619954Y313049D01*
X620151Y312668D01*
X620340Y312282D01*
X620519Y311892D01*
X620688Y311497D01*
X620847Y311098D01*
X620997Y310696D01*
X621137Y310289D01*
X621266Y309880D01*
X621386Y309467D01*
X621496Y309052D01*
X621595Y308634D01*
X621684Y308214D01*
X621762Y307792D01*
X621831Y307368D01*
X621888Y306942D01*
X621936Y306515D01*
X621973Y306087D01*
X621999Y305659D01*
X622015Y305229D01*
X622020Y304800D01*
X622015Y304371D01*
X621999Y303941D01*
X621973Y303513D01*
X621936Y303085D01*
X621888Y302658D01*
X621831Y302232D01*
X621762Y301808D01*
X621684Y301386D01*
X621595Y300966D01*
X621496Y300548D01*
X621386Y300133D01*
X621266Y299720D01*
X621137Y299311D01*
X620997Y298904D01*
X620847Y298502D01*
X620688Y298103D01*
X620519Y297708D01*
X620340Y297318D01*
X620151Y296932D01*
X619954Y296551D01*
X619747Y296174D01*
X619530Y295803D01*
X619305Y295438D01*
X619071Y295078D01*
X618828Y294723D01*
X618576Y294375D01*
X618316Y294033D01*
X618048Y293698D01*
X617771Y293369D01*
X617487Y293048D01*
X617194Y292733D01*
X616894Y292426D01*
X616587Y292126D01*
X616272Y291833D01*
X615951Y291549D01*
X615622Y291272D01*
X615287Y291004D01*
X614945Y290744D01*
X614597Y290492D01*
X614242Y290249D01*
X613882Y290015D01*
X613517Y289790D01*
X613146Y289573D01*
X612769Y289366D01*
X612388Y289169D01*
X612002Y288980D01*
X611612Y288801D01*
X611217Y288632D01*
X610818Y288473D01*
X610416Y288323D01*
X610009Y288183D01*
X609600Y288054D01*
X609187Y287934D01*
X608772Y287824D01*
X608354Y287725D01*
X607934Y287636D01*
X607512Y287558D01*
X607088Y287489D01*
X606662Y287432D01*
X606235Y287384D01*
X605807Y287347D01*
X605379Y287321D01*
X604949Y287305D01*
X604520Y287300D01*
X604091Y287305D01*
X603661Y287321D01*
X603233Y287347D01*
X602805Y287384D01*
X602378Y287432D01*
X601952Y287489D01*
X601528Y287558D01*
X601106Y287636D01*
X600686Y287725D01*
X600268Y287824D01*
X599853Y287934D01*
X599440Y288054D01*
X599031Y288183D01*
X598624Y288323D01*
X598222Y288473D01*
X597823Y288632D01*
X597428Y288801D01*
X597038Y288980D01*
X596652Y289169D01*
X596271Y289366D01*
X595894Y289573D01*
X595523Y289790D01*
X595158Y290015D01*
X594798Y290249D01*
X594443Y290492D01*
X594095Y290744D01*
X593753Y291004D01*
X593418Y291272D01*
X593089Y291549D01*
X592768Y291833D01*
X592453Y292126D01*
X592146Y292426D01*
X591846Y292733D01*
X591553Y293048D01*
X591269Y293369D01*
X590992Y293698D01*
X590724Y294033D01*
X590464Y294375D01*
X590212Y294723D01*
X589969Y295078D01*
X589735Y295438D01*
X589510Y295803D01*
X589293Y296174D01*
X589086Y296551D01*
X588889Y296932D01*
X588700Y297318D01*
X588521Y297708D01*
X588352Y298103D01*
X588193Y298502D01*
X588043Y298904D01*
X587903Y299311D01*
X587774Y299720D01*
X587654Y300133D01*
X587544Y300548D01*
X587445Y300966D01*
X587356Y301386D01*
X587278Y301808D01*
X587209Y302232D01*
X587152Y302658D01*
X587104Y303085D01*
X587067Y303513D01*
X587041Y303941D01*
X587025Y304371D01*
X587020Y304800D01*
X640588Y488950D02*
X640591Y489156D01*
X640598Y489361D01*
X640611Y489567D01*
X640628Y489772D01*
X640651Y489976D01*
X640679Y490180D01*
X640711Y490383D01*
X640749Y490585D01*
X640792Y490787D01*
X640839Y490987D01*
X640892Y491186D01*
X640949Y491383D01*
X641011Y491579D01*
X641078Y491774D01*
X641150Y491967D01*
X641226Y492158D01*
X641307Y492347D01*
X641393Y492534D01*
X641483Y492719D01*
X641578Y492901D01*
X641677Y493081D01*
X641781Y493259D01*
X641888Y493434D01*
X642001Y493607D01*
X642117Y493776D01*
X642238Y493943D01*
X642362Y494107D01*
X642491Y494267D01*
X642623Y494425D01*
X642759Y494579D01*
X642899Y494730D01*
X643043Y494877D01*
X643190Y495021D01*
X643341Y495161D01*
X643495Y495297D01*
X643653Y495429D01*
X643813Y495558D01*
X643977Y495682D01*
X644144Y495803D01*
X644313Y495919D01*
X644486Y496032D01*
X644661Y496139D01*
X644839Y496243D01*
X645019Y496342D01*
X645201Y496437D01*
X645386Y496527D01*
X645573Y496613D01*
X645762Y496694D01*
X645953Y496770D01*
X646146Y496842D01*
X646341Y496909D01*
X646537Y496971D01*
X646734Y497028D01*
X646933Y497081D01*
X647133Y497128D01*
X647335Y497171D01*
X647537Y497209D01*
X647740Y497241D01*
X647944Y497269D01*
X648148Y497292D01*
X648353Y497309D01*
X648559Y497322D01*
X648764Y497329D01*
X648970Y497332D01*
X649176Y497329D01*
X649381Y497322D01*
X649587Y497309D01*
X649792Y497292D01*
X649996Y497269D01*
X650200Y497241D01*
X650403Y497209D01*
X650605Y497171D01*
X650807Y497128D01*
X651007Y497081D01*
X651206Y497028D01*
X651403Y496971D01*
X651599Y496909D01*
X651794Y496842D01*
X651987Y496770D01*
X652178Y496694D01*
X652367Y496613D01*
X652554Y496527D01*
X652739Y496437D01*
X652921Y496342D01*
X653101Y496243D01*
X653279Y496139D01*
X653454Y496032D01*
X653627Y495919D01*
X653796Y495803D01*
X653963Y495682D01*
X654127Y495558D01*
X654287Y495429D01*
X654445Y495297D01*
X654599Y495161D01*
X654750Y495021D01*
X654897Y494877D01*
X655041Y494730D01*
X655181Y494579D01*
X655317Y494425D01*
X655449Y494267D01*
X655578Y494107D01*
X655702Y493943D01*
X655823Y493776D01*
X655939Y493607D01*
X656052Y493434D01*
X656159Y493259D01*
X656263Y493081D01*
X656362Y492901D01*
X656457Y492719D01*
X656547Y492534D01*
X656633Y492347D01*
X656714Y492158D01*
X656790Y491967D01*
X656862Y491774D01*
X656929Y491579D01*
X656991Y491383D01*
X657048Y491186D01*
X657101Y490987D01*
X657148Y490787D01*
X657191Y490585D01*
X657229Y490383D01*
X657261Y490180D01*
X657289Y489976D01*
X657312Y489772D01*
X657329Y489567D01*
X657342Y489361D01*
X657349Y489156D01*
X657352Y488950D01*
X657349Y488744D01*
X657342Y488539D01*
X657329Y488333D01*
X657312Y488128D01*
X657289Y487924D01*
X657261Y487720D01*
X657229Y487517D01*
X657191Y487315D01*
X657148Y487113D01*
X657101Y486913D01*
X657048Y486714D01*
X656991Y486517D01*
X656929Y486321D01*
X656862Y486126D01*
X656790Y485933D01*
X656714Y485742D01*
X656633Y485553D01*
X656547Y485366D01*
X656457Y485181D01*
X656362Y484999D01*
X656263Y484819D01*
X656159Y484641D01*
X656052Y484466D01*
X655939Y484293D01*
X655823Y484124D01*
X655702Y483957D01*
X655578Y483793D01*
X655449Y483633D01*
X655317Y483475D01*
X655181Y483321D01*
X655041Y483170D01*
X654897Y483023D01*
X654750Y482879D01*
X654599Y482739D01*
X654445Y482603D01*
X654287Y482471D01*
X654127Y482342D01*
X653963Y482218D01*
X653796Y482097D01*
X653627Y481981D01*
X653454Y481868D01*
X653279Y481761D01*
X653101Y481657D01*
X652921Y481558D01*
X652739Y481463D01*
X652554Y481373D01*
X652367Y481287D01*
X652178Y481206D01*
X651987Y481130D01*
X651794Y481058D01*
X651599Y480991D01*
X651403Y480929D01*
X651206Y480872D01*
X651007Y480819D01*
X650807Y480772D01*
X650605Y480729D01*
X650403Y480691D01*
X650200Y480659D01*
X649996Y480631D01*
X649792Y480608D01*
X649587Y480591D01*
X649381Y480578D01*
X649176Y480571D01*
X648970Y480568D01*
X648764Y480571D01*
X648559Y480578D01*
X648353Y480591D01*
X648148Y480608D01*
X647944Y480631D01*
X647740Y480659D01*
X647537Y480691D01*
X647335Y480729D01*
X647133Y480772D01*
X646933Y480819D01*
X646734Y480872D01*
X646537Y480929D01*
X646341Y480991D01*
X646146Y481058D01*
X645953Y481130D01*
X645762Y481206D01*
X645573Y481287D01*
X645386Y481373D01*
X645201Y481463D01*
X645019Y481558D01*
X644839Y481657D01*
X644661Y481761D01*
X644486Y481868D01*
X644313Y481981D01*
X644144Y482097D01*
X643977Y482218D01*
X643813Y482342D01*
X643653Y482471D01*
X643495Y482603D01*
X643341Y482739D01*
X643190Y482879D01*
X643043Y483023D01*
X642899Y483170D01*
X642759Y483321D01*
X642623Y483475D01*
X642491Y483633D01*
X642362Y483793D01*
X642238Y483957D01*
X642117Y484124D01*
X642001Y484293D01*
X641888Y484466D01*
X641781Y484641D01*
X641677Y484819D01*
X641578Y484999D01*
X641483Y485181D01*
X641393Y485366D01*
X641307Y485553D01*
X641226Y485742D01*
X641150Y485933D01*
X641078Y486126D01*
X641011Y486321D01*
X640949Y486517D01*
X640892Y486714D01*
X640839Y486913D01*
X640792Y487113D01*
X640749Y487315D01*
X640711Y487517D01*
X640679Y487720D01*
X640651Y487924D01*
X640628Y488128D01*
X640611Y488333D01*
X640598Y488539D01*
X640591Y488744D01*
X640588Y488950D01*
X615188Y488950D02*
X615191Y489156D01*
X615198Y489361D01*
X615211Y489567D01*
X615228Y489772D01*
X615251Y489976D01*
X615279Y490180D01*
X615311Y490383D01*
X615349Y490585D01*
X615392Y490787D01*
X615439Y490987D01*
X615492Y491186D01*
X615549Y491383D01*
X615611Y491579D01*
X615678Y491774D01*
X615750Y491967D01*
X615826Y492158D01*
X615907Y492347D01*
X615993Y492534D01*
X616083Y492719D01*
X616178Y492901D01*
X616277Y493081D01*
X616381Y493259D01*
X616488Y493434D01*
X616601Y493607D01*
X616717Y493776D01*
X616838Y493943D01*
X616962Y494107D01*
X617091Y494267D01*
X617223Y494425D01*
X617359Y494579D01*
X617499Y494730D01*
X617643Y494877D01*
X617790Y495021D01*
X617941Y495161D01*
X618095Y495297D01*
X618253Y495429D01*
X618413Y495558D01*
X618577Y495682D01*
X618744Y495803D01*
X618913Y495919D01*
X619086Y496032D01*
X619261Y496139D01*
X619439Y496243D01*
X619619Y496342D01*
X619801Y496437D01*
X619986Y496527D01*
X620173Y496613D01*
X620362Y496694D01*
X620553Y496770D01*
X620746Y496842D01*
X620941Y496909D01*
X621137Y496971D01*
X621334Y497028D01*
X621533Y497081D01*
X621733Y497128D01*
X621935Y497171D01*
X622137Y497209D01*
X622340Y497241D01*
X622544Y497269D01*
X622748Y497292D01*
X622953Y497309D01*
X623159Y497322D01*
X623364Y497329D01*
X623570Y497332D01*
X623776Y497329D01*
X623981Y497322D01*
X624187Y497309D01*
X624392Y497292D01*
X624596Y497269D01*
X624800Y497241D01*
X625003Y497209D01*
X625205Y497171D01*
X625407Y497128D01*
X625607Y497081D01*
X625806Y497028D01*
X626003Y496971D01*
X626199Y496909D01*
X626394Y496842D01*
X626587Y496770D01*
X626778Y496694D01*
X626967Y496613D01*
X627154Y496527D01*
X627339Y496437D01*
X627521Y496342D01*
X627701Y496243D01*
X627879Y496139D01*
X628054Y496032D01*
X628227Y495919D01*
X628396Y495803D01*
X628563Y495682D01*
X628727Y495558D01*
X628887Y495429D01*
X629045Y495297D01*
X629199Y495161D01*
X629350Y495021D01*
X629497Y494877D01*
X629641Y494730D01*
X629781Y494579D01*
X629917Y494425D01*
X630049Y494267D01*
X630178Y494107D01*
X630302Y493943D01*
X630423Y493776D01*
X630539Y493607D01*
X630652Y493434D01*
X630759Y493259D01*
X630863Y493081D01*
X630962Y492901D01*
X631057Y492719D01*
X631147Y492534D01*
X631233Y492347D01*
X631314Y492158D01*
X631390Y491967D01*
X631462Y491774D01*
X631529Y491579D01*
X631591Y491383D01*
X631648Y491186D01*
X631701Y490987D01*
X631748Y490787D01*
X631791Y490585D01*
X631829Y490383D01*
X631861Y490180D01*
X631889Y489976D01*
X631912Y489772D01*
X631929Y489567D01*
X631942Y489361D01*
X631949Y489156D01*
X631952Y488950D01*
X631949Y488744D01*
X631942Y488539D01*
X631929Y488333D01*
X631912Y488128D01*
X631889Y487924D01*
X631861Y487720D01*
X631829Y487517D01*
X631791Y487315D01*
X631748Y487113D01*
X631701Y486913D01*
X631648Y486714D01*
X631591Y486517D01*
X631529Y486321D01*
X631462Y486126D01*
X631390Y485933D01*
X631314Y485742D01*
X631233Y485553D01*
X631147Y485366D01*
X631057Y485181D01*
X630962Y484999D01*
X630863Y484819D01*
X630759Y484641D01*
X630652Y484466D01*
X630539Y484293D01*
X630423Y484124D01*
X630302Y483957D01*
X630178Y483793D01*
X630049Y483633D01*
X629917Y483475D01*
X629781Y483321D01*
X629641Y483170D01*
X629497Y483023D01*
X629350Y482879D01*
X629199Y482739D01*
X629045Y482603D01*
X628887Y482471D01*
X628727Y482342D01*
X628563Y482218D01*
X628396Y482097D01*
X628227Y481981D01*
X628054Y481868D01*
X627879Y481761D01*
X627701Y481657D01*
X627521Y481558D01*
X627339Y481463D01*
X627154Y481373D01*
X626967Y481287D01*
X626778Y481206D01*
X626587Y481130D01*
X626394Y481058D01*
X626199Y480991D01*
X626003Y480929D01*
X625806Y480872D01*
X625607Y480819D01*
X625407Y480772D01*
X625205Y480729D01*
X625003Y480691D01*
X624800Y480659D01*
X624596Y480631D01*
X624392Y480608D01*
X624187Y480591D01*
X623981Y480578D01*
X623776Y480571D01*
X623570Y480568D01*
X623364Y480571D01*
X623159Y480578D01*
X622953Y480591D01*
X622748Y480608D01*
X622544Y480631D01*
X622340Y480659D01*
X622137Y480691D01*
X621935Y480729D01*
X621733Y480772D01*
X621533Y480819D01*
X621334Y480872D01*
X621137Y480929D01*
X620941Y480991D01*
X620746Y481058D01*
X620553Y481130D01*
X620362Y481206D01*
X620173Y481287D01*
X619986Y481373D01*
X619801Y481463D01*
X619619Y481558D01*
X619439Y481657D01*
X619261Y481761D01*
X619086Y481868D01*
X618913Y481981D01*
X618744Y482097D01*
X618577Y482218D01*
X618413Y482342D01*
X618253Y482471D01*
X618095Y482603D01*
X617941Y482739D01*
X617790Y482879D01*
X617643Y483023D01*
X617499Y483170D01*
X617359Y483321D01*
X617223Y483475D01*
X617091Y483633D01*
X616962Y483793D01*
X616838Y483957D01*
X616717Y484124D01*
X616601Y484293D01*
X616488Y484466D01*
X616381Y484641D01*
X616277Y484819D01*
X616178Y484999D01*
X616083Y485181D01*
X615993Y485366D01*
X615907Y485553D01*
X615826Y485742D01*
X615750Y485933D01*
X615678Y486126D01*
X615611Y486321D01*
X615549Y486517D01*
X615492Y486714D01*
X615439Y486913D01*
X615392Y487113D01*
X615349Y487315D01*
X615311Y487517D01*
X615279Y487720D01*
X615251Y487924D01*
X615228Y488128D01*
X615211Y488333D01*
X615198Y488539D01*
X615191Y488744D01*
X615188Y488950D01*
D12*
X12700Y0D02*
X1003300Y0D01*
X1003300Y990600D01*
X12700Y990600D01*
X12700Y0D01*
X79500Y50276D02*
X79432Y49231D01*
X79295Y48192D01*
X79090Y47165D01*
X78819Y46153D01*
X78483Y45161D01*
X78082Y44193D01*
X77618Y43254D01*
X77095Y42346D01*
X76513Y41475D01*
X75875Y40644D01*
X75184Y39857D01*
X74443Y39116D01*
X73656Y38425D01*
X72825Y37788D01*
X71954Y37206D01*
X71046Y36682D01*
X70107Y36218D01*
X69139Y35817D01*
X68147Y35481D01*
X67135Y35210D01*
X66108Y35005D01*
X65069Y34869D01*
X64024Y34800D01*
X62976Y34800D01*
X61931Y34869D01*
X60892Y35005D01*
X59865Y35210D01*
X58853Y35481D01*
X57861Y35817D01*
X56893Y36218D01*
X55954Y36682D01*
X55046Y37206D01*
X54175Y37788D01*
X53344Y38425D01*
X52557Y39116D01*
X51816Y39857D01*
X51125Y40644D01*
X50488Y41475D01*
X49906Y42346D01*
X49382Y43254D01*
X48918Y44193D01*
X48517Y45161D01*
X48181Y46153D01*
X47910Y47165D01*
X47705Y48192D01*
X47569Y49231D01*
X47500Y50276D01*
X47500Y51324D01*
X47569Y52369D01*
X47705Y53408D01*
X47910Y54435D01*
X48181Y55447D01*
X48517Y56439D01*
X48918Y57407D01*
X49382Y58346D01*
X49906Y59254D01*
X50488Y60125D01*
X51125Y60956D01*
X51816Y61743D01*
X52557Y62484D01*
X53344Y63175D01*
X54175Y63813D01*
X55046Y64395D01*
X55954Y64918D01*
X56893Y65382D01*
X57861Y65783D01*
X58853Y66119D01*
X59865Y66390D01*
X60892Y66595D01*
X61931Y66732D01*
X62976Y66800D01*
X64024Y66800D01*
X65069Y66732D01*
X66108Y66595D01*
X67135Y66390D01*
X68147Y66119D01*
X69139Y65783D01*
X70107Y65382D01*
X71046Y64918D01*
X71954Y64395D01*
X72825Y63813D01*
X73656Y63175D01*
X74443Y62484D01*
X75184Y61743D01*
X75875Y60956D01*
X76513Y60125D01*
X77095Y59254D01*
X77618Y58346D01*
X78082Y57407D01*
X78483Y56439D01*
X78819Y55447D01*
X79090Y54435D01*
X79295Y53408D01*
X79432Y52369D01*
X79500Y51324D01*
X79500Y50276D01*
X968500Y50276D02*
X968432Y49231D01*
X968295Y48192D01*
X968090Y47165D01*
X967819Y46153D01*
X967483Y45161D01*
X967082Y44193D01*
X966618Y43254D01*
X966095Y42346D01*
X965513Y41475D01*
X964875Y40644D01*
X964184Y39857D01*
X963443Y39116D01*
X962656Y38425D01*
X961825Y37788D01*
X960954Y37206D01*
X960046Y36682D01*
X959107Y36218D01*
X958139Y35817D01*
X957147Y35481D01*
X956135Y35210D01*
X955108Y35005D01*
X954069Y34869D01*
X953024Y34800D01*
X951976Y34800D01*
X950931Y34869D01*
X949892Y35005D01*
X948865Y35210D01*
X947853Y35481D01*
X946861Y35817D01*
X945893Y36218D01*
X944954Y36682D01*
X944046Y37206D01*
X943175Y37788D01*
X942344Y38425D01*
X941557Y39116D01*
X940816Y39857D01*
X940125Y40644D01*
X939488Y41475D01*
X938906Y42346D01*
X938382Y43254D01*
X937918Y44193D01*
X937517Y45161D01*
X937181Y46153D01*
X936910Y47165D01*
X936705Y48192D01*
X936569Y49231D01*
X936500Y50276D01*
X936500Y51324D01*
X936569Y52369D01*
X936705Y53408D01*
X936910Y54435D01*
X937181Y55447D01*
X937517Y56439D01*
X937918Y57407D01*
X938382Y58346D01*
X938906Y59254D01*
X939488Y60125D01*
X940125Y60956D01*
X940816Y61743D01*
X941557Y62484D01*
X942344Y63175D01*
X943175Y63813D01*
X944046Y64395D01*
X944954Y64918D01*
X945893Y65382D01*
X946861Y65783D01*
X947853Y66119D01*
X948865Y66390D01*
X949892Y66595D01*
X950931Y66732D01*
X951976Y66800D01*
X953024Y66800D01*
X954069Y66732D01*
X955108Y66595D01*
X956135Y66390D01*
X957147Y66119D01*
X958139Y65783D01*
X959107Y65382D01*
X960046Y64918D01*
X960954Y64395D01*
X961825Y63813D01*
X962656Y63175D01*
X963443Y62484D01*
X964184Y61743D01*
X964875Y60956D01*
X965513Y60125D01*
X966095Y59254D01*
X966618Y58346D01*
X967082Y57407D01*
X967483Y56439D01*
X967819Y55447D01*
X968090Y54435D01*
X968295Y53408D01*
X968432Y52369D01*
X968500Y51324D01*
X968500Y50276D01*
X79500Y939276D02*
X79432Y938231D01*
X79295Y937192D01*
X79090Y936165D01*
X78819Y935153D01*
X78483Y934161D01*
X78082Y933193D01*
X77618Y932254D01*
X77095Y931346D01*
X76513Y930475D01*
X75875Y929644D01*
X75184Y928857D01*
X74443Y928116D01*
X73656Y927425D01*
X72825Y926788D01*
X71954Y926206D01*
X71046Y925682D01*
X70107Y925218D01*
X69139Y924817D01*
X68147Y924481D01*
X67135Y924210D01*
X66108Y924005D01*
X65069Y923869D01*
X64024Y923800D01*
X62976Y923800D01*
X61931Y923869D01*
X60892Y924005D01*
X59865Y924210D01*
X58853Y924481D01*
X57861Y924817D01*
X56893Y925218D01*
X55954Y925682D01*
X55046Y926206D01*
X54175Y926788D01*
X53344Y927425D01*
X52557Y928116D01*
X51816Y928857D01*
X51125Y929644D01*
X50488Y930475D01*
X49906Y931346D01*
X49382Y932254D01*
X48918Y933193D01*
X48517Y934161D01*
X48181Y935153D01*
X47910Y936165D01*
X47705Y937192D01*
X47569Y938231D01*
X47500Y939276D01*
X47500Y940324D01*
X47569Y941369D01*
X47705Y942408D01*
X47910Y943435D01*
X48181Y944447D01*
X48517Y945439D01*
X48918Y946407D01*
X49382Y947346D01*
X49906Y948254D01*
X50488Y949125D01*
X51125Y949956D01*
X51816Y950743D01*
X52557Y951484D01*
X53344Y952175D01*
X54175Y952813D01*
X55046Y953395D01*
X55954Y953918D01*
X56893Y954382D01*
X57861Y954783D01*
X58853Y955119D01*
X59865Y955390D01*
X60892Y955595D01*
X61931Y955732D01*
X62976Y955800D01*
X64024Y955800D01*
X65069Y955732D01*
X66108Y955595D01*
X67135Y955390D01*
X68147Y955119D01*
X69139Y954783D01*
X70107Y954382D01*
X71046Y953918D01*
X71954Y953395D01*
X72825Y952813D01*
X73656Y952175D01*
X74443Y951484D01*
X75184Y950743D01*
X75875Y949956D01*
X76513Y949125D01*
X77095Y948254D01*
X77618Y947346D01*
X78082Y946407D01*
X78483Y945439D01*
X78819Y944447D01*
X79090Y943435D01*
X79295Y942408D01*
X79432Y941369D01*
X79500Y940324D01*
X79500Y939276D01*
X968500Y939276D02*
X968432Y938231D01*
X968295Y937192D01*
X968090Y936165D01*
X967819Y935153D01*
X967483Y934161D01*
X967082Y933193D01*
X966618Y932254D01*
X966095Y931346D01*
X965513Y930475D01*
X964875Y929644D01*
X964184Y928857D01*
X963443Y928116D01*
X962656Y927425D01*
X961825Y926788D01*
X960954Y926206D01*
X960046Y925682D01*
X959107Y925218D01*
X958139Y924817D01*
X957147Y924481D01*
X956135Y924210D01*
X955108Y924005D01*
X954069Y923869D01*
X953024Y923800D01*
X951976Y923800D01*
X950931Y923869D01*
X949892Y924005D01*
X948865Y924210D01*
X947853Y924481D01*
X946861Y924817D01*
X945893Y925218D01*
X944954Y925682D01*
X944046Y926206D01*
X943175Y926788D01*
X942344Y927425D01*
X941557Y928116D01*
X940816Y928857D01*
X940125Y929644D01*
X939488Y930475D01*
X938906Y931346D01*
X938382Y932254D01*
X937918Y933193D01*
X937517Y934161D01*
X937181Y935153D01*
X936910Y936165D01*
X936705Y937192D01*
X936569Y938231D01*
X936500Y939276D01*
X936500Y940324D01*
X936569Y941369D01*
X936705Y942408D01*
X936910Y943435D01*
X937181Y944447D01*
X937517Y945439D01*
X937918Y946407D01*
X938382Y947346D01*
X938906Y948254D01*
X939488Y949125D01*
X940125Y949956D01*
X940816Y950743D01*
X941557Y951484D01*
X942344Y952175D01*
X943175Y952813D01*
X944046Y953395D01*
X944954Y953918D01*
X945893Y954382D01*
X946861Y954783D01*
X947853Y955119D01*
X948865Y955390D01*
X949892Y955595D01*
X950931Y955732D01*
X951976Y955800D01*
X953024Y955800D01*
X954069Y955732D01*
X955108Y955595D01*
X956135Y955390D01*
X957147Y955119D01*
X958139Y954783D01*
X959107Y954382D01*
X960046Y953918D01*
X960954Y953395D01*
X961825Y952813D01*
X962656Y952175D01*
X963443Y951484D01*
X964184Y950743D01*
X964875Y949956D01*
X965513Y949125D01*
X966095Y948254D01*
X966618Y947346D01*
X967082Y946407D01*
X967483Y945439D01*
X967819Y944447D01*
X968090Y943435D01*
X968295Y942408D01*
X968432Y941369D01*
X968500Y940324D01*
X968500Y939276D01*
X550900Y189927D02*
X550825Y188784D01*
X550676Y187648D01*
X550452Y186524D01*
X550155Y185417D01*
X549787Y184332D01*
X549349Y183274D01*
X548842Y182246D01*
X548269Y181254D01*
X547632Y180301D01*
X546935Y179392D01*
X546179Y178531D01*
X545369Y177721D01*
X544508Y176965D01*
X543599Y176268D01*
X542646Y175631D01*
X541654Y175058D01*
X540626Y174551D01*
X539568Y174113D01*
X538483Y173745D01*
X537376Y173448D01*
X536252Y173225D01*
X535116Y173075D01*
X533973Y173000D01*
X532827Y173000D01*
X531684Y173075D01*
X530548Y173225D01*
X529424Y173448D01*
X528317Y173745D01*
X527232Y174113D01*
X526174Y174551D01*
X525146Y175058D01*
X524154Y175631D01*
X523201Y176268D01*
X522292Y176965D01*
X521431Y177721D01*
X520621Y178531D01*
X519865Y179392D01*
X519168Y180301D01*
X518531Y181254D01*
X517958Y182246D01*
X517451Y183274D01*
X517013Y184332D01*
X516645Y185417D01*
X516348Y186524D01*
X516125Y187648D01*
X515975Y188784D01*
X515900Y189927D01*
X515900Y191073D01*
X515975Y192216D01*
X516125Y193352D01*
X516348Y194476D01*
X516645Y195583D01*
X517013Y196668D01*
X517451Y197726D01*
X517958Y198754D01*
X518531Y199746D01*
X519168Y200699D01*
X519865Y201608D01*
X520621Y202469D01*
X521431Y203279D01*
X522292Y204035D01*
X523201Y204732D01*
X524154Y205369D01*
X525146Y205942D01*
X526174Y206449D01*
X527232Y206887D01*
X528317Y207255D01*
X529424Y207552D01*
X530548Y207776D01*
X531684Y207925D01*
X532827Y208000D01*
X533973Y208000D01*
X535116Y207925D01*
X536252Y207776D01*
X537376Y207552D01*
X538483Y207255D01*
X539568Y206887D01*
X540626Y206449D01*
X541654Y205942D01*
X542646Y205369D01*
X543599Y204732D01*
X544508Y204035D01*
X545369Y203279D01*
X546179Y202469D01*
X546935Y201608D01*
X547632Y200699D01*
X548269Y199746D01*
X548842Y198754D01*
X549349Y197726D01*
X549787Y196668D01*
X550155Y195583D01*
X550452Y194476D01*
X550676Y193352D01*
X550825Y192216D01*
X550900Y191073D01*
X550900Y189927D01*
X970540Y532846D02*
X970461Y531742D01*
X970303Y530646D01*
X970068Y529564D01*
X969756Y528502D01*
X969369Y527465D01*
X968909Y526458D01*
X968379Y525486D01*
X967780Y524554D01*
X967117Y523668D01*
X966392Y522831D01*
X965609Y522048D01*
X964772Y521323D01*
X963886Y520660D01*
X962954Y520061D01*
X961983Y519531D01*
X960975Y519071D01*
X959938Y518684D01*
X958876Y518372D01*
X957794Y518137D01*
X956698Y517979D01*
X955594Y517900D01*
X954486Y517900D01*
X953382Y517979D01*
X952286Y518137D01*
X951204Y518372D01*
X950142Y518684D01*
X949105Y519071D01*
X948098Y519531D01*
X947126Y520061D01*
X946194Y520660D01*
X945308Y521323D01*
X944471Y522048D01*
X943688Y522831D01*
X942963Y523668D01*
X942300Y524554D01*
X941701Y525486D01*
X941171Y526458D01*
X940711Y527465D01*
X940324Y528502D01*
X940012Y529564D01*
X939777Y530646D01*
X939619Y531742D01*
X939540Y532846D01*
X939540Y533954D01*
X939619Y535058D01*
X939777Y536154D01*
X940012Y537236D01*
X940324Y538298D01*
X940711Y539335D01*
X941171Y540343D01*
X941701Y541314D01*
X942300Y542246D01*
X942963Y543132D01*
X943688Y543969D01*
X944471Y544752D01*
X945308Y545477D01*
X946194Y546140D01*
X947126Y546739D01*
X948098Y547269D01*
X949105Y547729D01*
X950142Y548116D01*
X951204Y548428D01*
X952286Y548663D01*
X953382Y548821D01*
X954486Y548900D01*
X955594Y548900D01*
X956698Y548821D01*
X957794Y548663D01*
X958876Y548428D01*
X959938Y548116D01*
X960975Y547729D01*
X961983Y547269D01*
X962954Y546739D01*
X963886Y546140D01*
X964772Y545477D01*
X965609Y544752D01*
X966392Y543969D01*
X967117Y543132D01*
X967780Y542246D01*
X968379Y541314D01*
X968909Y540343D01*
X969369Y539335D01*
X969756Y538298D01*
X970068Y537236D01*
X970303Y536154D01*
X970461Y535058D01*
X970540Y533954D01*
X970540Y532846D01*
X970540Y304246D02*
X970461Y303142D01*
X970303Y302046D01*
X970068Y300964D01*
X969756Y299902D01*
X969369Y298865D01*
X968909Y297858D01*
X968379Y296886D01*
X967780Y295954D01*
X967117Y295068D01*
X966392Y294231D01*
X965609Y293448D01*
X964772Y292723D01*
X963886Y292060D01*
X962954Y291461D01*
X961983Y290931D01*
X960975Y290471D01*
X959938Y290084D01*
X958876Y289772D01*
X957794Y289537D01*
X956698Y289379D01*
X955594Y289300D01*
X954486Y289300D01*
X953382Y289379D01*
X952286Y289537D01*
X951204Y289772D01*
X950142Y290084D01*
X949105Y290471D01*
X948098Y290931D01*
X947126Y291461D01*
X946194Y292060D01*
X945308Y292723D01*
X944471Y293448D01*
X943688Y294231D01*
X942963Y295068D01*
X942300Y295954D01*
X941701Y296886D01*
X941171Y297858D01*
X940711Y298865D01*
X940324Y299902D01*
X940012Y300964D01*
X939777Y302046D01*
X939619Y303142D01*
X939540Y304246D01*
X939540Y305354D01*
X939619Y306458D01*
X939777Y307554D01*
X940012Y308636D01*
X940324Y309698D01*
X940711Y310735D01*
X941171Y311743D01*
X941701Y312714D01*
X942300Y313646D01*
X942963Y314532D01*
X943688Y315369D01*
X944471Y316152D01*
X945308Y316877D01*
X946194Y317540D01*
X947126Y318139D01*
X948098Y318669D01*
X949105Y319129D01*
X950142Y319516D01*
X951204Y319828D01*
X952286Y320063D01*
X953382Y320221D01*
X954486Y320300D01*
X955594Y320300D01*
X956698Y320221D01*
X957794Y320063D01*
X958876Y319828D01*
X959938Y319516D01*
X960975Y319129D01*
X961983Y318669D01*
X962954Y318139D01*
X963886Y317540D01*
X964772Y316877D01*
X965609Y316152D01*
X966392Y315369D01*
X967117Y314532D01*
X967780Y313646D01*
X968379Y312714D01*
X968909Y311743D01*
X969369Y310735D01*
X969756Y309698D01*
X970068Y308636D01*
X970303Y307554D01*
X970461Y306458D01*
X970540Y305354D01*
X970540Y304246D01*
X673624Y130300D02*
X674669Y130232D01*
X675708Y130095D01*
X676735Y129890D01*
X677747Y129619D01*
X678739Y129283D01*
X679707Y128882D01*
X680646Y128418D01*
X681554Y127895D01*
X682425Y127313D01*
X683256Y126675D01*
X684043Y125984D01*
X684784Y125243D01*
X685475Y124456D01*
X686113Y123625D01*
X686695Y122754D01*
X687218Y121846D01*
X687682Y120907D01*
X688083Y119939D01*
X688419Y118947D01*
X688690Y117935D01*
X688895Y116908D01*
X689032Y115869D01*
X689100Y114824D01*
X689100Y113776D01*
X689032Y112731D01*
X688895Y111692D01*
X688690Y110665D01*
X688419Y109653D01*
X688083Y108661D01*
X687682Y107693D01*
X687218Y106754D01*
X686695Y105846D01*
X686113Y104975D01*
X685475Y104144D01*
X684784Y103357D01*
X684043Y102616D01*
X683256Y101925D01*
X682425Y101288D01*
X681554Y100706D01*
X680646Y100182D01*
X679707Y99718D01*
X678739Y99317D01*
X677747Y98981D01*
X676735Y98710D01*
X675708Y98505D01*
X674669Y98369D01*
X673624Y98300D01*
X672576Y98300D01*
X671531Y98369D01*
X670492Y98505D01*
X669465Y98710D01*
X668453Y98981D01*
X667461Y99317D01*
X666493Y99718D01*
X665554Y100182D01*
X664646Y100706D01*
X663775Y101288D01*
X662944Y101925D01*
X662157Y102616D01*
X661416Y103357D01*
X660725Y104144D01*
X660088Y104975D01*
X659506Y105846D01*
X658982Y106754D01*
X658518Y107693D01*
X658117Y108661D01*
X657781Y109653D01*
X657510Y110665D01*
X657305Y111692D01*
X657169Y112731D01*
X657100Y113776D01*
X657100Y114824D01*
X657169Y115869D01*
X657305Y116908D01*
X657510Y117935D01*
X657781Y118947D01*
X658117Y119939D01*
X658518Y120907D01*
X658982Y121846D01*
X659506Y122754D01*
X660088Y123625D01*
X660725Y124456D01*
X661416Y125243D01*
X662157Y125984D01*
X662944Y126675D01*
X663775Y127313D01*
X664646Y127895D01*
X665554Y128418D01*
X666493Y128882D01*
X667461Y129283D01*
X668453Y129619D01*
X669465Y129890D01*
X670492Y130095D01*
X671531Y130232D01*
X672576Y130300D01*
X673624Y130300D01*
X953024Y130300D02*
X954069Y130232D01*
X955108Y130095D01*
X956135Y129890D01*
X957147Y129619D01*
X958139Y129283D01*
X959107Y128882D01*
X960046Y128418D01*
X960954Y127895D01*
X961825Y127313D01*
X962656Y126675D01*
X963443Y125984D01*
X964184Y125243D01*
X964875Y124456D01*
X965513Y123625D01*
X966095Y122754D01*
X966618Y121846D01*
X967082Y120907D01*
X967483Y119939D01*
X967819Y118947D01*
X968090Y117935D01*
X968295Y116908D01*
X968432Y115869D01*
X968500Y114824D01*
X968500Y113776D01*
X968432Y112731D01*
X968295Y111692D01*
X968090Y110665D01*
X967819Y109653D01*
X967483Y108661D01*
X967082Y107693D01*
X966618Y106754D01*
X966095Y105846D01*
X965513Y104975D01*
X964875Y104144D01*
X964184Y103357D01*
X963443Y102616D01*
X962656Y101925D01*
X961825Y101288D01*
X960954Y100706D01*
X960046Y100182D01*
X959107Y99718D01*
X958139Y99317D01*
X957147Y98981D01*
X956135Y98710D01*
X955108Y98505D01*
X954069Y98369D01*
X953024Y98300D01*
X951976Y98300D01*
X950931Y98369D01*
X949892Y98505D01*
X948865Y98710D01*
X947853Y98981D01*
X946861Y99317D01*
X945893Y99718D01*
X944954Y100182D01*
X944046Y100706D01*
X943175Y101288D01*
X942344Y101925D01*
X941557Y102616D01*
X940816Y103357D01*
X940125Y104144D01*
X939488Y104975D01*
X938906Y105846D01*
X938382Y106754D01*
X937918Y107693D01*
X937517Y108661D01*
X937181Y109653D01*
X936910Y110665D01*
X936705Y111692D01*
X936569Y112731D01*
X936500Y113776D01*
X936500Y114824D01*
X936569Y115869D01*
X936705Y116908D01*
X936910Y117935D01*
X937181Y118947D01*
X937517Y119939D01*
X937918Y120907D01*
X938382Y121846D01*
X938906Y122754D01*
X939488Y123625D01*
X940125Y124456D01*
X940816Y125243D01*
X941557Y125984D01*
X942344Y126675D01*
X943175Y127313D01*
X944046Y127895D01*
X944954Y128418D01*
X945893Y128882D01*
X946861Y129283D01*
X947853Y129619D01*
X948865Y129890D01*
X949892Y130095D01*
X950931Y130232D01*
X951976Y130300D01*
X953024Y130300D01*
X953024Y689100D02*
X954069Y689032D01*
X955108Y688895D01*
X956135Y688690D01*
X957147Y688419D01*
X958139Y688083D01*
X959107Y687682D01*
X960046Y687218D01*
X960954Y686695D01*
X961825Y686113D01*
X962656Y685475D01*
X963443Y684784D01*
X964184Y684043D01*
X964875Y683256D01*
X965513Y682425D01*
X966095Y681554D01*
X966618Y680646D01*
X967082Y679707D01*
X967483Y678739D01*
X967819Y677747D01*
X968090Y676735D01*
X968295Y675708D01*
X968432Y674669D01*
X968500Y673624D01*
X968500Y672576D01*
X968432Y671531D01*
X968295Y670492D01*
X968090Y669465D01*
X967819Y668453D01*
X967483Y667461D01*
X967082Y666493D01*
X966618Y665554D01*
X966095Y664646D01*
X965513Y663775D01*
X964875Y662944D01*
X964184Y662157D01*
X963443Y661416D01*
X962656Y660725D01*
X961825Y660088D01*
X960954Y659506D01*
X960046Y658982D01*
X959107Y658518D01*
X958139Y658117D01*
X957147Y657781D01*
X956135Y657510D01*
X955108Y657305D01*
X954069Y657169D01*
X953024Y657100D01*
X951976Y657100D01*
X950931Y657169D01*
X949892Y657305D01*
X948865Y657510D01*
X947853Y657781D01*
X946861Y658117D01*
X945893Y658518D01*
X944954Y658982D01*
X944046Y659506D01*
X943175Y660088D01*
X942344Y660725D01*
X941557Y661416D01*
X940816Y662157D01*
X940125Y662944D01*
X939488Y663775D01*
X938906Y664646D01*
X938382Y665554D01*
X937918Y666493D01*
X937517Y667461D01*
X937181Y668453D01*
X936910Y669465D01*
X936705Y670492D01*
X936569Y671531D01*
X936500Y672576D01*
X936500Y673624D01*
X936569Y674669D01*
X936705Y675708D01*
X936910Y676735D01*
X937181Y677747D01*
X937517Y678739D01*
X937918Y679707D01*
X938382Y680646D01*
X938906Y681554D01*
X939488Y682425D01*
X940125Y683256D01*
X940816Y684043D01*
X941557Y684784D01*
X942344Y685475D01*
X943175Y686113D01*
X944046Y686695D01*
X944954Y687218D01*
X945893Y687682D01*
X946861Y688083D01*
X947853Y688419D01*
X948865Y688690D01*
X949892Y688895D01*
X950931Y689032D01*
X951976Y689100D01*
X953024Y689100D01*
X673624Y689100D02*
X674669Y689032D01*
X675708Y688895D01*
X676735Y688690D01*
X677747Y688419D01*
X678739Y688083D01*
X679707Y687682D01*
X680646Y687218D01*
X681554Y686695D01*
X682425Y686113D01*
X683256Y685475D01*
X684043Y684784D01*
X684784Y684043D01*
X685475Y683256D01*
X686113Y682425D01*
X686695Y681554D01*
X687218Y680646D01*
X687682Y679707D01*
X688083Y678739D01*
X688419Y677747D01*
X688690Y676735D01*
X688895Y675708D01*
X689032Y674669D01*
X689100Y673624D01*
X689100Y672576D01*
X689032Y671531D01*
X688895Y670492D01*
X688690Y669465D01*
X688419Y668453D01*
X688083Y667461D01*
X687682Y666493D01*
X687218Y665554D01*
X686695Y664646D01*
X686113Y663775D01*
X685475Y662944D01*
X684784Y662157D01*
X684043Y661416D01*
X683256Y660725D01*
X682425Y660088D01*
X681554Y659506D01*
X680646Y658982D01*
X679707Y658518D01*
X678739Y658117D01*
X677747Y657781D01*
X676735Y657510D01*
X675708Y657305D01*
X674669Y657169D01*
X673624Y657100D01*
X672576Y657100D01*
X671531Y657169D01*
X670492Y657305D01*
X669465Y657510D01*
X668453Y657781D01*
X667461Y658117D01*
X666493Y658518D01*
X665554Y658982D01*
X664646Y659506D01*
X663775Y660088D01*
X662944Y660725D01*
X662157Y661416D01*
X661416Y662157D01*
X660725Y662944D01*
X660088Y663775D01*
X659506Y664646D01*
X658982Y665554D01*
X658518Y666493D01*
X658117Y667461D01*
X657781Y668453D01*
X657510Y669465D01*
X657305Y670492D01*
X657169Y671531D01*
X657100Y672576D01*
X657100Y673624D01*
X657169Y674669D01*
X657305Y675708D01*
X657510Y676735D01*
X657781Y677747D01*
X658117Y678739D01*
X658518Y679707D01*
X658982Y680646D01*
X659506Y681554D01*
X660088Y682425D01*
X660725Y683256D01*
X661416Y684043D01*
X662157Y684784D01*
X662944Y685475D01*
X663775Y686113D01*
X664646Y686695D01*
X665554Y687218D01*
X666493Y687682D01*
X667461Y688083D01*
X668453Y688419D01*
X669465Y688690D01*
X670492Y688895D01*
X671531Y689032D01*
X672576Y689100D01*
X673624Y689100D01*
X761476Y347218D02*
X760431Y347287D01*
X759392Y347423D01*
X758364Y347628D01*
X757352Y347899D01*
X756360Y348236D01*
X755392Y348637D01*
X754453Y349100D01*
X753545Y349624D01*
X752674Y350206D01*
X751843Y350844D01*
X751055Y351534D01*
X750314Y352275D01*
X749624Y353063D01*
X748986Y353894D01*
X748404Y354765D01*
X747880Y355673D01*
X747417Y356612D01*
X747016Y357580D01*
X746679Y358572D01*
X746408Y359584D01*
X746203Y360612D01*
X746067Y361651D01*
X745998Y362696D01*
X745998Y363744D01*
X746067Y364789D01*
X746203Y365828D01*
X746408Y366856D01*
X746679Y367868D01*
X747016Y368860D01*
X747417Y369828D01*
X747880Y370767D01*
X748404Y371675D01*
X748986Y372546D01*
X749624Y373377D01*
X750314Y374165D01*
X751055Y374906D01*
X751843Y375596D01*
X752674Y376234D01*
X753545Y376816D01*
X754453Y377340D01*
X755392Y377803D01*
X756360Y378204D01*
X757352Y378541D01*
X758364Y378812D01*
X759392Y379017D01*
X760431Y379153D01*
X761476Y379222D01*
X762524Y379222D01*
X763569Y379153D01*
X764608Y379017D01*
X765636Y378812D01*
X766648Y378541D01*
X767640Y378204D01*
X768608Y377803D01*
X769547Y377340D01*
X770455Y376816D01*
X771326Y376234D01*
X772157Y375596D01*
X772945Y374906D01*
X773686Y374165D01*
X774376Y373377D01*
X775014Y372546D01*
X775596Y371675D01*
X776120Y370767D01*
X776583Y369828D01*
X776984Y368860D01*
X777321Y367868D01*
X777592Y366856D01*
X777797Y365828D01*
X777933Y364789D01*
X778002Y363744D01*
X778002Y362696D01*
X777933Y361651D01*
X777797Y360612D01*
X777592Y359584D01*
X777321Y358572D01*
X776984Y357580D01*
X776583Y356612D01*
X776120Y355673D01*
X775596Y354765D01*
X775014Y353894D01*
X774376Y353063D01*
X773686Y352275D01*
X772945Y351534D01*
X772157Y350844D01*
X771326Y350206D01*
X770455Y349624D01*
X769547Y349100D01*
X768608Y348637D01*
X767640Y348236D01*
X766648Y347899D01*
X765636Y347628D01*
X764608Y347423D01*
X763569Y347287D01*
X762524Y347218D01*
X761476Y347218D01*
X558276Y347218D02*
X557231Y347287D01*
X556192Y347423D01*
X555164Y347628D01*
X554152Y347899D01*
X553160Y348236D01*
X552192Y348637D01*
X551253Y349100D01*
X550345Y349624D01*
X549474Y350206D01*
X548643Y350844D01*
X547855Y351534D01*
X547114Y352275D01*
X546424Y353063D01*
X545786Y353894D01*
X545204Y354765D01*
X544680Y355673D01*
X544217Y356612D01*
X543816Y357580D01*
X543479Y358572D01*
X543208Y359584D01*
X543003Y360612D01*
X542867Y361651D01*
X542798Y362696D01*
X542798Y363744D01*
X542867Y364789D01*
X543003Y365828D01*
X543208Y366856D01*
X543479Y367868D01*
X543816Y368860D01*
X544217Y369828D01*
X544680Y370767D01*
X545204Y371675D01*
X545786Y372546D01*
X546424Y373377D01*
X547114Y374165D01*
X547855Y374906D01*
X548643Y375596D01*
X549474Y376234D01*
X550345Y376816D01*
X551253Y377340D01*
X552192Y377803D01*
X553160Y378204D01*
X554152Y378541D01*
X555164Y378812D01*
X556192Y379017D01*
X557231Y379153D01*
X558276Y379222D01*
X559324Y379222D01*
X560369Y379153D01*
X561408Y379017D01*
X562436Y378812D01*
X563448Y378541D01*
X564440Y378204D01*
X565408Y377803D01*
X566347Y377340D01*
X567255Y376816D01*
X568126Y376234D01*
X568957Y375596D01*
X569745Y374906D01*
X570486Y374165D01*
X571176Y373377D01*
X571814Y372546D01*
X572396Y371675D01*
X572920Y370767D01*
X573383Y369828D01*
X573784Y368860D01*
X574121Y367868D01*
X574392Y366856D01*
X574597Y365828D01*
X574733Y364789D01*
X574802Y363744D01*
X574802Y362696D01*
X574733Y361651D01*
X574597Y360612D01*
X574392Y359584D01*
X574121Y358572D01*
X573784Y357580D01*
X573383Y356612D01*
X572920Y355673D01*
X572396Y354765D01*
X571814Y353894D01*
X571176Y353063D01*
X570486Y352275D01*
X569745Y351534D01*
X568957Y350844D01*
X568126Y350206D01*
X567255Y349624D01*
X566347Y349100D01*
X565408Y348637D01*
X564440Y348236D01*
X563448Y347899D01*
X562436Y347628D01*
X561408Y347423D01*
X560369Y347287D01*
X559324Y347218D01*
X558276Y347218D01*
X558276Y525018D02*
X557231Y525087D01*
X556192Y525223D01*
X555164Y525428D01*
X554152Y525699D01*
X553160Y526036D01*
X552192Y526437D01*
X551253Y526900D01*
X550345Y527424D01*
X549474Y528006D01*
X548643Y528644D01*
X547855Y529334D01*
X547114Y530075D01*
X546424Y530863D01*
X545786Y531694D01*
X545204Y532565D01*
X544680Y533473D01*
X544217Y534412D01*
X543816Y535380D01*
X543479Y536372D01*
X543208Y537384D01*
X543003Y538412D01*
X542867Y539451D01*
X542798Y540496D01*
X542798Y541544D01*
X542867Y542589D01*
X543003Y543628D01*
X543208Y544656D01*
X543479Y545668D01*
X543816Y546660D01*
X544217Y547628D01*
X544680Y548567D01*
X545204Y549475D01*
X545786Y550346D01*
X546424Y551177D01*
X547114Y551965D01*
X547855Y552706D01*
X548643Y553396D01*
X549474Y554034D01*
X550345Y554616D01*
X551253Y555140D01*
X552192Y555603D01*
X553160Y556004D01*
X554152Y556341D01*
X555164Y556612D01*
X556192Y556817D01*
X557231Y556953D01*
X558276Y557022D01*
X559324Y557022D01*
X560369Y556953D01*
X561408Y556817D01*
X562436Y556612D01*
X563448Y556341D01*
X564440Y556004D01*
X565408Y555603D01*
X566347Y555140D01*
X567255Y554616D01*
X568126Y554034D01*
X568957Y553396D01*
X569745Y552706D01*
X570486Y551965D01*
X571176Y551177D01*
X571814Y550346D01*
X572396Y549475D01*
X572920Y548567D01*
X573383Y547628D01*
X573784Y546660D01*
X574121Y545668D01*
X574392Y544656D01*
X574597Y543628D01*
X574733Y542589D01*
X574802Y541544D01*
X574802Y540496D01*
X574733Y539451D01*
X574597Y538412D01*
X574392Y537384D01*
X574121Y536372D01*
X573784Y535380D01*
X573383Y534412D01*
X572920Y533473D01*
X572396Y532565D01*
X571814Y531694D01*
X571176Y530863D01*
X570486Y530075D01*
X569745Y529334D01*
X568957Y528644D01*
X568126Y528006D01*
X567255Y527424D01*
X566347Y526900D01*
X565408Y526437D01*
X564440Y526036D01*
X563448Y525699D01*
X562436Y525428D01*
X561408Y525223D01*
X560369Y525087D01*
X559324Y525018D01*
X558276Y525018D01*
X761476Y525018D02*
X760431Y525087D01*
X759392Y525223D01*
X758364Y525428D01*
X757352Y525699D01*
X756360Y526036D01*
X755392Y526437D01*
X754453Y526900D01*
X753545Y527424D01*
X752674Y528006D01*
X751843Y528644D01*
X751055Y529334D01*
X750314Y530075D01*
X749624Y530863D01*
X748986Y531694D01*
X748404Y532565D01*
X747880Y533473D01*
X747417Y534412D01*
X747016Y535380D01*
X746679Y536372D01*
X746408Y537384D01*
X746203Y538412D01*
X746067Y539451D01*
X745998Y540496D01*
X745998Y541544D01*
X746067Y542589D01*
X746203Y543628D01*
X746408Y544656D01*
X746679Y545668D01*
X747016Y546660D01*
X747417Y547628D01*
X747880Y548567D01*
X748404Y549475D01*
X748986Y550346D01*
X749624Y551177D01*
X750314Y551965D01*
X751055Y552706D01*
X751843Y553396D01*
X752674Y554034D01*
X753545Y554616D01*
X754453Y555140D01*
X755392Y555603D01*
X756360Y556004D01*
X757352Y556341D01*
X758364Y556612D01*
X759392Y556817D01*
X760431Y556953D01*
X761476Y557022D01*
X762524Y557022D01*
X763569Y556953D01*
X764608Y556817D01*
X765636Y556612D01*
X766648Y556341D01*
X767640Y556004D01*
X768608Y555603D01*
X769547Y555140D01*
X770455Y554616D01*
X771326Y554034D01*
X772157Y553396D01*
X772945Y552706D01*
X773686Y551965D01*
X774376Y551177D01*
X775014Y550346D01*
X775596Y549475D01*
X776120Y548567D01*
X776583Y547628D01*
X776984Y546660D01*
X777321Y545668D01*
X777592Y544656D01*
X777797Y543628D01*
X777933Y542589D01*
X778002Y541544D01*
X778002Y540496D01*
X777933Y539451D01*
X777797Y538412D01*
X777592Y537384D01*
X777321Y536372D01*
X776984Y535380D01*
X776583Y534412D01*
X776120Y533473D01*
X775596Y532565D01*
X775014Y531694D01*
X774376Y530863D01*
X773686Y530075D01*
X772945Y529334D01*
X772157Y528644D01*
X771326Y528006D01*
X770455Y527424D01*
X769547Y526900D01*
X768608Y526437D01*
X767640Y526036D01*
X766648Y525699D01*
X765636Y525428D01*
X764608Y525223D01*
X763569Y525087D01*
X762524Y525018D01*
X761476Y525018D01*
X621894Y354965D02*
X621087Y355045D01*
X620292Y355203D01*
X619516Y355438D01*
X618766Y355749D01*
X618051Y356131D01*
X617377Y356582D01*
X616750Y357096D01*
X616176Y357670D01*
X615662Y358297D01*
X615211Y358971D01*
X614829Y359686D01*
X614518Y360436D01*
X614283Y361212D01*
X614125Y362007D01*
X614045Y362814D01*
X614045Y363626D01*
X614125Y364433D01*
X614283Y365228D01*
X614518Y366004D01*
X614829Y366754D01*
X615211Y367469D01*
X615662Y368143D01*
X616176Y368770D01*
X616750Y369344D01*
X617377Y369858D01*
X618051Y370309D01*
X618766Y370691D01*
X619516Y371002D01*
X620292Y371237D01*
X621087Y371396D01*
X621894Y371475D01*
X622706Y371475D01*
X623513Y371396D01*
X624308Y371237D01*
X625084Y371002D01*
X625834Y370691D01*
X626549Y370309D01*
X627223Y369858D01*
X627850Y369344D01*
X628424Y368770D01*
X628938Y368143D01*
X629389Y367469D01*
X629771Y366754D01*
X630082Y366004D01*
X630317Y365228D01*
X630476Y364433D01*
X630555Y363626D01*
X630555Y362814D01*
X630476Y362007D01*
X630317Y361212D01*
X630082Y360436D01*
X629771Y359686D01*
X629389Y358971D01*
X628938Y358297D01*
X628424Y357670D01*
X627850Y357096D01*
X627223Y356582D01*
X626549Y356131D01*
X625834Y355749D01*
X625084Y355438D01*
X624308Y355203D01*
X623513Y355045D01*
X622706Y354965D01*
X621894Y354965D01*
X719393Y462000D02*
X720536Y461925D01*
X721672Y461776D01*
X722796Y461552D01*
X723903Y461255D01*
X724988Y460887D01*
X726046Y460449D01*
X727074Y459942D01*
X728066Y459369D01*
X729019Y458732D01*
X729928Y458035D01*
X730789Y457279D01*
X731599Y456469D01*
X732355Y455608D01*
X733052Y454699D01*
X733689Y453746D01*
X734262Y452754D01*
X734769Y451726D01*
X735207Y450668D01*
X735575Y449583D01*
X735872Y448476D01*
X736096Y447352D01*
X736245Y446216D01*
X736320Y445073D01*
X736320Y443927D01*
X736245Y442784D01*
X736096Y441648D01*
X735872Y440524D01*
X735575Y439417D01*
X735207Y438332D01*
X734769Y437274D01*
X734262Y436246D01*
X733689Y435254D01*
X733052Y434301D01*
X732355Y433392D01*
X731599Y432531D01*
X730789Y431721D01*
X729928Y430965D01*
X729019Y430268D01*
X728066Y429631D01*
X727074Y429058D01*
X726046Y428551D01*
X724988Y428113D01*
X723903Y427745D01*
X722796Y427448D01*
X721672Y427225D01*
X720536Y427075D01*
X719393Y427000D01*
X718247Y427000D01*
X717104Y427075D01*
X715968Y427225D01*
X714844Y427448D01*
X713737Y427745D01*
X712652Y428113D01*
X711594Y428551D01*
X710566Y429058D01*
X709574Y429631D01*
X708621Y430268D01*
X707712Y430965D01*
X706851Y431721D01*
X706041Y432531D01*
X705285Y433392D01*
X704588Y434301D01*
X703951Y435254D01*
X703378Y436246D01*
X702871Y437274D01*
X702433Y438332D01*
X702065Y439417D01*
X701768Y440524D01*
X701545Y441648D01*
X701395Y442784D01*
X701320Y443927D01*
X701320Y445073D01*
X701395Y446216D01*
X701545Y447352D01*
X701768Y448476D01*
X702065Y449583D01*
X702433Y450668D01*
X702871Y451726D01*
X703378Y452754D01*
X703951Y453746D01*
X704588Y454699D01*
X705285Y455608D01*
X706041Y456469D01*
X706851Y457279D01*
X707712Y458035D01*
X708621Y458732D01*
X709574Y459369D01*
X710566Y459942D01*
X711594Y460449D01*
X712652Y460887D01*
X713737Y461255D01*
X714844Y461552D01*
X715968Y461776D01*
X717104Y461925D01*
X718247Y462000D01*
X719393Y462000D01*
X605093Y322300D02*
X606236Y322225D01*
X607372Y322076D01*
X608496Y321852D01*
X609603Y321555D01*
X610688Y321187D01*
X611746Y320749D01*
X612774Y320242D01*
X613766Y319669D01*
X614719Y319032D01*
X615628Y318335D01*
X616489Y317579D01*
X617299Y316769D01*
X618055Y315908D01*
X618752Y314999D01*
X619389Y314046D01*
X619962Y313054D01*
X620469Y312026D01*
X620907Y310968D01*
X621275Y309883D01*
X621572Y308776D01*
X621796Y307652D01*
X621945Y306516D01*
X622020Y305373D01*
X622020Y304227D01*
X621945Y303084D01*
X621796Y301948D01*
X621572Y300824D01*
X621275Y299717D01*
X620907Y298632D01*
X620469Y297574D01*
X619962Y296546D01*
X619389Y295554D01*
X618752Y294601D01*
X618055Y293692D01*
X617299Y292831D01*
X616489Y292021D01*
X615628Y291265D01*
X614719Y290568D01*
X613766Y289931D01*
X612774Y289358D01*
X611746Y288851D01*
X610688Y288413D01*
X609603Y288045D01*
X608496Y287748D01*
X607372Y287525D01*
X606236Y287375D01*
X605093Y287300D01*
X603947Y287300D01*
X602804Y287375D01*
X601668Y287525D01*
X600544Y287748D01*
X599437Y288045D01*
X598352Y288413D01*
X597294Y288851D01*
X596266Y289358D01*
X595274Y289931D01*
X594321Y290568D01*
X593412Y291265D01*
X592551Y292021D01*
X591741Y292831D01*
X590985Y293692D01*
X590288Y294601D01*
X589651Y295554D01*
X589078Y296546D01*
X588571Y297574D01*
X588133Y298632D01*
X587765Y299717D01*
X587468Y300824D01*
X587245Y301948D01*
X587095Y303084D01*
X587020Y304227D01*
X587020Y305373D01*
X587095Y306516D01*
X587245Y307652D01*
X587468Y308776D01*
X587765Y309883D01*
X588133Y310968D01*
X588571Y312026D01*
X589078Y313054D01*
X589651Y314046D01*
X590288Y314999D01*
X590985Y315908D01*
X591741Y316769D01*
X592551Y317579D01*
X593412Y318335D01*
X594321Y319032D01*
X595274Y319669D01*
X596266Y320242D01*
X597294Y320749D01*
X598352Y321187D01*
X599437Y321555D01*
X600544Y321852D01*
X601668Y322076D01*
X602804Y322225D01*
X603947Y322300D01*
X605093Y322300D01*
X649336Y497332D02*
X650065Y497268D01*
X650786Y497141D01*
X651493Y496952D01*
X652181Y496701D01*
X652844Y496392D01*
X653478Y496026D01*
X654078Y495606D01*
X654638Y495136D01*
X655156Y494618D01*
X655626Y494058D01*
X656046Y493458D01*
X656412Y492824D01*
X656721Y492161D01*
X656972Y491473D01*
X657161Y490766D01*
X657288Y490045D01*
X657352Y489316D01*
X657352Y488584D01*
X657288Y487855D01*
X657161Y487134D01*
X656972Y486427D01*
X656721Y485739D01*
X656412Y485076D01*
X656046Y484442D01*
X655626Y483843D01*
X655156Y483282D01*
X654638Y482764D01*
X654078Y482294D01*
X653478Y481874D01*
X652844Y481508D01*
X652181Y481199D01*
X651493Y480948D01*
X650786Y480759D01*
X650065Y480632D01*
X649336Y480568D01*
X648604Y480568D01*
X647875Y480632D01*
X647154Y480759D01*
X646447Y480948D01*
X645759Y481199D01*
X645096Y481508D01*
X644462Y481874D01*
X643863Y482294D01*
X643302Y482764D01*
X642784Y483282D01*
X642314Y483843D01*
X641894Y484442D01*
X641528Y485076D01*
X641219Y485739D01*
X640968Y486427D01*
X640779Y487134D01*
X640652Y487855D01*
X640588Y488584D01*
X640588Y489316D01*
X640652Y490045D01*
X640779Y490766D01*
X640968Y491473D01*
X641219Y492161D01*
X641528Y492824D01*
X641894Y493458D01*
X642314Y494058D01*
X642784Y494618D01*
X643302Y495136D01*
X643863Y495606D01*
X644462Y496026D01*
X645096Y496392D01*
X645759Y496701D01*
X646447Y496952D01*
X647154Y497141D01*
X647875Y497268D01*
X648604Y497332D01*
X649336Y497332D01*
X623936Y497332D02*
X624665Y497268D01*
X625386Y497141D01*
X626093Y496952D01*
X626781Y496701D01*
X627444Y496392D01*
X628078Y496026D01*
X628678Y495606D01*
X629238Y495136D01*
X629756Y494618D01*
X630226Y494058D01*
X630646Y493458D01*
X631012Y492824D01*
X631321Y492161D01*
X631572Y491473D01*
X631761Y490766D01*
X631888Y490045D01*
X631952Y489316D01*
X631952Y488584D01*
X631888Y487855D01*
X631761Y487134D01*
X631572Y486427D01*
X631321Y485739D01*
X631012Y485076D01*
X630646Y484442D01*
X630226Y483843D01*
X629756Y483282D01*
X629238Y482764D01*
X628678Y482294D01*
X628078Y481874D01*
X627444Y481508D01*
X626781Y481199D01*
X626093Y480948D01*
X625386Y480759D01*
X624665Y480632D01*
X623936Y480568D01*
X623204Y480568D01*
X622475Y480632D01*
X621754Y480759D01*
X621047Y480948D01*
X620359Y481199D01*
X619696Y481508D01*
X619062Y481874D01*
X618463Y482294D01*
X617902Y482764D01*
X617384Y483282D01*
X616914Y483843D01*
X616494Y484442D01*
X616128Y485076D01*
X615819Y485739D01*
X615568Y486427D01*
X615379Y487134D01*
X615252Y487855D01*
X615188Y488584D01*
X615188Y489316D01*
X615252Y490045D01*
X615379Y490766D01*
X615568Y491473D01*
X615819Y492161D01*
X616128Y492824D01*
X616494Y493458D01*
X616914Y494058D01*
X617384Y494618D01*
X617902Y495136D01*
X618463Y495606D01*
X619062Y496026D01*
X619696Y496392D01*
X620359Y496701D01*
X621047Y496952D01*
X621754Y497141D01*
X622475Y497268D01*
X623204Y497332D01*
X623936Y497332D01*
M02*
