M48
;GenerationSoftware,Autodesk,EAGLE,9.5.1*%
;CreationDate,2021-04-18T22:24:52Z*%
FMAT,2
ICI,OFF
METRIC,TZ,000.000
T16C0.350
T15C0.600
T14C0.813
T13C0.900
T12C1.000
T11C1.016
T10C1.118
T9C1.499
T8C1.651
T7C1.676
T6C1.750
T5C2.300
T4C3.100
T3C3.200
T2C3.200
T1C3.500
%
G90
M71
T1
X53340Y19050
X71882Y44450
X60452Y30480
T2
X55880Y54102
X55880Y36322
X76200Y36322
X76200Y54102
T3
X67310Y67310
X95250Y67310
X95250Y11430
X67310Y11430
X6350Y5080
X95250Y5080
X6350Y93980
X95250Y93980
T4
X95504Y30480
X95504Y53340
T5
X8830Y59690
X26730Y59690
X17230Y51290
X17230Y68090
X16830Y59690
T6
X61722Y90170
T7
X64897Y48895
X62357Y48895
T8
X35560Y81280
X62230Y36322
X67310Y88900
X45720Y90170
X40640Y90170
X10160Y78740
X30480Y90170
X40640Y81280
X35560Y90170
X25400Y90170
X82550Y88900
X77470Y88900
X72390Y88900
X10160Y83820
T9
X31750Y71120
X46990Y71120
T10
X59690Y36322
X12065Y90170
X14605Y90170
X17145Y90170
X19685Y90170
X87630Y22860
X8890Y44450
X8890Y41910
X8890Y39370
X8890Y30480
X8890Y27940
X8890Y25400
X8890Y16510
X8890Y13970
X8890Y11430
X95250Y22860
X92710Y22860
X90170Y22860
X72517Y48895
X80010Y6350
X82550Y6350
X85090Y6350
X87630Y6350
X66040Y59944
X17018Y72644
X80010Y12700
X82550Y12700
X85090Y12700
X87630Y12700
X59817Y48895
X67437Y48895
X69977Y48895
X81280Y22860
X78740Y22860
X76200Y22860
X51181Y67310
X51181Y77470
X68580Y59944
X6858Y72644
X73660Y22860
X69850Y36322
X95250Y86741
X92710Y86741
X90170Y86741
X87630Y86741
X67310Y36322
X64770Y36322
T11
X64770Y17780
X69850Y17780
X72390Y17780
X74930Y17780
X71120Y76200
X20320Y78740
X25400Y78740
X60960Y10160
X76200Y76200
X55880Y10160
X87630Y73660
X87630Y78740
X80645Y67056
X80645Y61976
X59690Y60960
X58420Y10160
X59690Y63500
X59690Y66040
X59690Y73660
X59690Y76200
X59690Y78740
X53340Y10160
X50800Y10160
X48260Y10160
X67310Y17780
X27940Y78740
X68707Y77216
X57150Y17780
X59690Y17780
X62230Y17780
T12
X34290Y26670
X49530Y31750
X49530Y29210
X49530Y26670
X34290Y29210
X82550Y53340
X82550Y50800
X82550Y48260
X82550Y45720
X82550Y43180
X82550Y40640
X82550Y38100
X82550Y35560
X82550Y30480
X34290Y62230
X34290Y59690
X34290Y57150
X34290Y54610
X34290Y52070
X34290Y49530
X34290Y46990
X34290Y44450
X34290Y41910
X34290Y39370
X34290Y36830
X34290Y34290
X49530Y62230
X49530Y59690
X49530Y57150
X49530Y54610
X49530Y52070
X49530Y49530
X49530Y44450
X49530Y41910
X49530Y36830
X49530Y34290
X49530Y39370
X49530Y46990
X34290Y31750
X82550Y33020
T13
X56460Y88470
X56460Y91870
X52560Y86770
X52560Y90170
X52560Y93570
T14
X21590Y30480
X87630Y43180
X85090Y35560
X87630Y35560
X85090Y33020
X29210Y16510
X91440Y64770
X91440Y54610
X96520Y48260
X96520Y38100
X92710Y48260
X92710Y38100
X28575Y34925
X28575Y45085
X33020Y6350
X33020Y16510
X88900Y58420
X88900Y48260
X85090Y58420
X29210Y6350
X19050Y30480
X19050Y22860
X21590Y22860
X16510Y30480
X16510Y22860
X21590Y43180
X19050Y43180
X19050Y35560
X21590Y35560
X16510Y43180
X16510Y35560
X24892Y37719
X24892Y47879
X25019Y21971
X25019Y32131
X85090Y48260
X28702Y29337
X28702Y19177
X85090Y30480
X36830Y6350
X36830Y16510
X40640Y6350
X40640Y16510
X25400Y16510
X21590Y15240
X19050Y15240
X19050Y7620
X21590Y7620
X64135Y32385
X74295Y32385
X64135Y29337
X74295Y29337
X16510Y15240
X16510Y7620
X25400Y6350
X46990Y67310
X36830Y67310
X45720Y81280
X45720Y78740
X63500Y81280
X63500Y71120
X45720Y54610
X45720Y52070
X80010Y49530
X80010Y52070
X85090Y45720
X87630Y45720
X87630Y40640
T15
X8890Y88900
X44069Y76708
X60960Y96520
X97790Y78740
X21590Y96520
X30480Y74930
X26670Y64770
X25400Y73660
X7620Y53340
X11430Y66040
X10160Y54610
X6350Y68580
X10795Y68834
X25400Y68580
X96520Y72390
X27178Y21082
X76200Y12700
X78740Y95250
X26670Y86360
X82550Y78740
X35179Y24511
X90170Y95250
X49022Y88011
X36576Y39370
X30480Y83820
X69850Y96520
X3810Y35052
X63246Y10160
X88900Y31750
X52070Y48260
X60960Y43053
X83820Y68580
X53340Y31750
X11430Y5080
X80010Y43815
X76200Y40640
X60071Y25654
X70993Y12954
X97790Y16383
X72390Y67310
X63881Y57404
X81280Y82550
X86360Y95250
X45720Y60960
X45720Y44450
X82550Y95250
X71120Y60960
X17780Y38100
X8890Y33782
X3683Y58166
X24130Y53340
X20320Y64770
X20320Y74930
X27178Y96520
X5080Y88900
X70358Y25908
X80010Y57150
X48895Y20955
X54610Y3810
X95377Y59309
X8890Y20320
X3810Y49022
X3810Y67310
X78740Y82550
X72390Y85090
X73660Y81280
X67310Y85090
X53340Y78740
X31750Y46990
X28702Y41910
X54610Y64770
X59690Y69850
X62865Y67818
X63500Y74930
X27940Y72390
T16
X40640Y63500
X58420Y25400
X38100Y31750
X41910Y30480
X71120Y21590
X43180Y57150
X68580Y27940
X38100Y57150
X60960Y54610
M30